G04 Layer_Color=8388736*
%FSLAX24Y24*%
%MOIN*%
G70*
G01*
G75*
%ADD65R,0.0946X0.0493*%
%ADD66R,0.0474X0.0493*%
%ADD67R,0.0552X0.0552*%
%ADD68R,0.0395X0.0474*%
%ADD69R,0.0433X0.0630*%
%ADD70R,0.0630X0.0433*%
%ADD71R,0.0709X0.0709*%
%ADD72R,0.0630X0.0433*%
%ADD73R,0.0926X0.1360*%
%ADD74R,0.0926X0.0454*%
%ADD75R,0.0560X0.0300*%
%ADD76R,0.0300X0.0308*%
%ADD77R,0.0280X0.0330*%
%ADD78R,0.0330X0.0280*%
%ADD79R,0.0600X0.0680*%
%ADD80C,0.0390*%
%ADD81R,0.0612X0.0237*%
%ADD82R,0.0592X0.0651*%
%ADD83R,0.0828X0.0828*%
%ADD84R,0.0631X0.0710*%
%ADD85R,0.0640X0.0640*%
%ADD86R,0.0380X0.0480*%
%ADD87R,0.0480X0.0380*%
%ADD88R,0.0710X0.1150*%
%ADD89R,0.0277X0.0316*%
%ADD90R,0.0395X0.0395*%
%ADD91R,0.0710X0.0867*%
%ADD92C,0.0680*%
%ADD93C,0.0671*%
%ADD94R,0.0671X0.0671*%
%ADD95C,0.0420*%
D65*
X-4636Y10315D02*
D03*
Y11476D02*
D03*
Y-6604D02*
D03*
Y-5443D02*
D03*
D66*
X-4016Y10896D02*
D03*
Y-6024D02*
D03*
D67*
X-1214Y9098D02*
D03*
Y8311D02*
D03*
X-426D02*
D03*
Y9098D02*
D03*
X361Y8311D02*
D03*
Y9098D02*
D03*
X-1214Y9886D02*
D03*
X-426D02*
D03*
X361D02*
D03*
D68*
X-3025Y7287D02*
D03*
X-2525D02*
D03*
X-2025D02*
D03*
X-1525D02*
D03*
X-1025D02*
D03*
X-533D02*
D03*
X-25D02*
D03*
X475D02*
D03*
X975D02*
D03*
X1475D02*
D03*
X2025D02*
D03*
X1975Y10909D02*
D03*
X-3025D02*
D03*
X-2525D02*
D03*
X-2025D02*
D03*
X-1525D02*
D03*
X-1025D02*
D03*
X-525D02*
D03*
X-25D02*
D03*
X475D02*
D03*
X975D02*
D03*
X1475D02*
D03*
D69*
X-1854Y-5387D02*
D03*
X1453D02*
D03*
X35D02*
D03*
X1925D02*
D03*
X-2300Y676D02*
D03*
X-1356D02*
D03*
X-909Y-5387D02*
D03*
X-1382D02*
D03*
X-437D02*
D03*
X1479Y676D02*
D03*
X-411D02*
D03*
X1007D02*
D03*
X-1828D02*
D03*
X508Y-5387D02*
D03*
X-883Y676D02*
D03*
X62D02*
D03*
X980Y-5387D02*
D03*
X534Y676D02*
D03*
D70*
X2838Y-1647D02*
D03*
Y-2120D02*
D03*
X-3225Y-759D02*
D03*
X2838Y-230D02*
D03*
Y-702D02*
D03*
Y-4009D02*
D03*
X-3225Y-1232D02*
D03*
Y-3122D02*
D03*
Y-2177D02*
D03*
X2838Y-3065D02*
D03*
Y-3537D02*
D03*
X-3225Y-2649D02*
D03*
Y-1704D02*
D03*
X2838Y-1175D02*
D03*
Y-2592D02*
D03*
X-3225Y-3594D02*
D03*
D71*
X2359Y-4659D02*
D03*
X2109Y241D02*
D03*
X-2741Y-59D02*
D03*
X-2441Y-4959D02*
D03*
D72*
X-3225Y-4539D02*
D03*
Y-4067D02*
D03*
D73*
X2362Y5128D02*
D03*
D74*
X79Y4222D02*
D03*
Y6033D02*
D03*
Y5128D02*
D03*
D75*
X-1880Y4862D02*
D03*
Y5236D02*
D03*
Y5616D02*
D03*
X-2912D02*
D03*
Y4862D02*
D03*
D76*
X-2908Y-6431D02*
D03*
Y-6053D02*
D03*
D77*
X2667Y-6447D02*
D03*
Y-6033D02*
D03*
D78*
X2047Y-6496D02*
D03*
X1634D02*
D03*
X236Y3445D02*
D03*
X650D02*
D03*
X1576Y3100D02*
D03*
X1163D02*
D03*
X-1378Y-6053D02*
D03*
X-1791D02*
D03*
D79*
X-2277Y3858D02*
D03*
X-3031D02*
D03*
D80*
X-4650Y-693D02*
D03*
X-4150Y-193D02*
D03*
Y-693D02*
D03*
X-4650Y-1193D02*
D03*
X-4150D02*
D03*
X-4650Y-193D02*
D03*
D81*
X-3642Y4764D02*
D03*
Y4508D02*
D03*
Y5020D02*
D03*
Y5276D02*
D03*
Y5531D02*
D03*
D82*
X-4695Y6368D02*
D03*
X-4695Y3671D02*
D03*
D83*
X-4695Y5493D02*
D03*
X-4695Y4509D02*
D03*
D84*
X-3730Y3760D02*
D03*
Y6280D02*
D03*
D85*
X-3683Y2776D02*
D03*
X-2224D02*
D03*
D86*
X-933Y3861D02*
D03*
X-1633D02*
D03*
D87*
X-952Y4437D02*
D03*
Y5137D02*
D03*
D88*
X-2461Y1713D02*
D03*
X-3572D02*
D03*
D89*
X-2766Y6575D02*
D03*
X-3120D02*
D03*
X-1752D02*
D03*
X-2106D02*
D03*
D90*
X-197Y-6506D02*
D03*
X-787D02*
D03*
X354Y-6506D02*
D03*
X945D02*
D03*
D91*
X-4321Y-2589D02*
D03*
Y-4715D02*
D03*
D92*
X-1280Y2677D02*
D03*
D93*
Y1677D02*
D03*
X-4567Y2693D02*
D03*
D94*
Y1693D02*
D03*
D95*
X-4400Y-1693D02*
D03*
X-4800Y307D02*
D03*
X-4000D02*
D03*
M02*
