G04 Layer_Physical_Order=6*
G04 Layer_Color=16711680*
%FSLAX24Y24*%
%MOIN*%
G70*
G01*
G75*
%ADD22R,0.0200X0.0250*%
%ADD23R,0.0250X0.0200*%
%ADD24R,0.0520X0.0600*%
%ADD31R,0.0300X0.0400*%
%ADD32R,0.0400X0.0300*%
%ADD37C,0.0059*%
%ADD38C,0.0060*%
%ADD40C,0.0600*%
%ADD41C,0.0591*%
%ADD42R,0.0591X0.0591*%
%ADD43C,0.0340*%
%ADD44C,0.0157*%
%ADD52R,0.0394X0.0276*%
%ADD53R,0.0276X0.0394*%
%ADD54R,0.0276X0.0354*%
%ADD55R,0.0600X0.0520*%
G36*
X3118Y-6517D02*
X3120D01*
X3122Y-6517D01*
X3128Y-6518D01*
X3134Y-6520D01*
X3140Y-6522D01*
X3147Y-6526D01*
X3150Y-6528D01*
X3153Y-6530D01*
X3153Y-6530D01*
X3153Y-6531D01*
X3154Y-6532D01*
X3155Y-6532D01*
X3157Y-6534D01*
X3158Y-6536D01*
X3161Y-6540D01*
X3164Y-6545D01*
X3167Y-6551D01*
X3170Y-6559D01*
X3171Y-6567D01*
X3147Y-6569D01*
Y-6568D01*
X3146Y-6568D01*
X3146Y-6566D01*
X3145Y-6564D01*
X3144Y-6561D01*
X3143Y-6557D01*
X3141Y-6554D01*
X3139Y-6550D01*
X3137Y-6548D01*
X3137Y-6547D01*
X3135Y-6546D01*
X3133Y-6544D01*
X3130Y-6542D01*
X3127Y-6541D01*
X3123Y-6539D01*
X3118Y-6538D01*
X3112Y-6537D01*
X3110D01*
X3108Y-6537D01*
X3105Y-6538D01*
X3102Y-6539D01*
X3098Y-6540D01*
X3095Y-6541D01*
X3091Y-6544D01*
X3091Y-6544D01*
X3089Y-6545D01*
X3087Y-6547D01*
X3085Y-6550D01*
X3082Y-6554D01*
X3079Y-6558D01*
X3076Y-6563D01*
X3073Y-6569D01*
Y-6569D01*
X3072Y-6570D01*
X3072Y-6571D01*
X3072Y-6572D01*
X3071Y-6573D01*
X3071Y-6575D01*
X3070Y-6578D01*
X3070Y-6581D01*
X3069Y-6584D01*
X3068Y-6587D01*
X3068Y-6591D01*
X3067Y-6595D01*
X3067Y-6600D01*
X3066Y-6605D01*
X3066Y-6610D01*
Y-6615D01*
X3066Y-6615D01*
X3068Y-6613D01*
X3070Y-6611D01*
X3072Y-6608D01*
X3075Y-6604D01*
X3079Y-6601D01*
X3083Y-6598D01*
X3088Y-6595D01*
X3088D01*
X3088Y-6595D01*
X3090Y-6594D01*
X3093Y-6593D01*
X3096Y-6591D01*
X3100Y-6590D01*
X3105Y-6589D01*
X3110Y-6589D01*
X3115Y-6588D01*
X3117D01*
X3119Y-6589D01*
X3121Y-6589D01*
X3124Y-6589D01*
X3127Y-6590D01*
X3130Y-6591D01*
X3136Y-6593D01*
X3140Y-6594D01*
X3143Y-6596D01*
X3147Y-6598D01*
X3150Y-6601D01*
X3154Y-6603D01*
X3157Y-6607D01*
X3157Y-6607D01*
X3158Y-6607D01*
X3159Y-6608D01*
X3160Y-6610D01*
X3161Y-6612D01*
X3163Y-6614D01*
X3164Y-6617D01*
X3166Y-6619D01*
X3168Y-6623D01*
X3169Y-6626D01*
X3171Y-6630D01*
X3172Y-6634D01*
X3173Y-6639D01*
X3174Y-6644D01*
X3174Y-6649D01*
X3175Y-6654D01*
Y-6654D01*
Y-6655D01*
Y-6656D01*
Y-6657D01*
X3174Y-6659D01*
Y-6660D01*
X3173Y-6665D01*
X3173Y-6671D01*
X3171Y-6676D01*
X3169Y-6683D01*
X3166Y-6689D01*
Y-6689D01*
X3166Y-6690D01*
X3165Y-6690D01*
X3165Y-6692D01*
X3163Y-6695D01*
X3160Y-6698D01*
X3157Y-6702D01*
X3153Y-6706D01*
X3149Y-6711D01*
X3144Y-6714D01*
X3143D01*
X3143Y-6714D01*
X3142Y-6715D01*
X3141Y-6715D01*
X3138Y-6717D01*
X3134Y-6718D01*
X3130Y-6720D01*
X3124Y-6721D01*
X3118Y-6722D01*
X3111Y-6722D01*
X3110D01*
X3108Y-6722D01*
X3106D01*
X3103Y-6722D01*
X3100Y-6721D01*
X3097Y-6720D01*
X3093Y-6720D01*
X3089Y-6718D01*
X3085Y-6717D01*
X3081Y-6715D01*
X3077Y-6713D01*
X3073Y-6710D01*
X3069Y-6707D01*
X3065Y-6704D01*
X3061Y-6700D01*
X3061Y-6699D01*
X3060Y-6699D01*
X3059Y-6697D01*
X3058Y-6695D01*
X3056Y-6693D01*
X3055Y-6690D01*
X3053Y-6686D01*
X3051Y-6682D01*
X3049Y-6677D01*
X3047Y-6672D01*
X3046Y-6665D01*
X3045Y-6659D01*
X3043Y-6651D01*
X3042Y-6643D01*
X3042Y-6634D01*
X3041Y-6625D01*
Y-6625D01*
Y-6624D01*
Y-6623D01*
Y-6622D01*
X3042Y-6619D01*
Y-6615D01*
X3042Y-6611D01*
X3043Y-6605D01*
X3043Y-6599D01*
X3044Y-6592D01*
X3045Y-6586D01*
X3047Y-6578D01*
X3048Y-6571D01*
X3050Y-6564D01*
X3053Y-6558D01*
X3056Y-6551D01*
X3059Y-6545D01*
X3063Y-6540D01*
X3063Y-6540D01*
X3064Y-6539D01*
X3065Y-6538D01*
X3066Y-6536D01*
X3068Y-6534D01*
X3070Y-6533D01*
X3073Y-6530D01*
X3076Y-6528D01*
X3080Y-6526D01*
X3084Y-6524D01*
X3088Y-6522D01*
X3092Y-6520D01*
X3097Y-6519D01*
X3102Y-6518D01*
X3108Y-6517D01*
X3114Y-6517D01*
X3116D01*
X3118Y-6517D01*
D02*
G37*
%LPC*%
G36*
X3110Y-6610D02*
X3108D01*
X3107Y-6610D01*
X3104Y-6611D01*
X3100Y-6612D01*
X3096Y-6613D01*
X3091Y-6615D01*
X3086Y-6618D01*
X3081Y-6622D01*
X3081Y-6623D01*
X3080Y-6624D01*
X3078Y-6627D01*
X3076Y-6631D01*
X3074Y-6635D01*
X3072Y-6641D01*
X3070Y-6647D01*
X3070Y-6654D01*
Y-6654D01*
Y-6656D01*
X3070Y-6658D01*
X3070Y-6662D01*
X3071Y-6665D01*
X3072Y-6669D01*
X3073Y-6674D01*
X3075Y-6678D01*
X3075Y-6679D01*
X3076Y-6680D01*
X3077Y-6682D01*
X3079Y-6685D01*
X3081Y-6688D01*
X3084Y-6691D01*
X3087Y-6693D01*
X3090Y-6696D01*
X3091Y-6696D01*
X3092Y-6697D01*
X3094Y-6698D01*
X3097Y-6699D01*
X3100Y-6700D01*
X3103Y-6701D01*
X3107Y-6702D01*
X3111Y-6702D01*
X3112D01*
X3114Y-6702D01*
X3116Y-6701D01*
X3120Y-6701D01*
X3124Y-6699D01*
X3129Y-6697D01*
X3134Y-6694D01*
X3136Y-6692D01*
X3138Y-6690D01*
Y-6689D01*
X3139Y-6689D01*
X3140Y-6687D01*
X3141Y-6684D01*
X3144Y-6681D01*
X3146Y-6676D01*
X3148Y-6670D01*
X3149Y-6663D01*
X3149Y-6655D01*
Y-6655D01*
Y-6654D01*
Y-6653D01*
X3149Y-6652D01*
Y-6650D01*
X3149Y-6648D01*
X3148Y-6643D01*
X3147Y-6638D01*
X3145Y-6633D01*
X3142Y-6627D01*
X3138Y-6622D01*
X3137Y-6622D01*
X3136Y-6620D01*
X3134Y-6619D01*
X3130Y-6616D01*
X3126Y-6614D01*
X3122Y-6612D01*
X3116Y-6611D01*
X3110Y-6610D01*
D02*
G37*
%LPD*%
D22*
X2569Y4596D02*
D03*
Y4183D02*
D03*
X2992Y4193D02*
D03*
Y4606D02*
D03*
X-2025Y9970D02*
D03*
Y10384D02*
D03*
X974Y6594D02*
D03*
Y6181D02*
D03*
X2028Y6594D02*
D03*
Y6181D02*
D03*
X2697Y11211D02*
D03*
Y10797D02*
D03*
X-532Y6181D02*
D03*
Y6594D02*
D03*
X-25Y9970D02*
D03*
Y10384D02*
D03*
X-1024Y6594D02*
D03*
Y6181D02*
D03*
X2648D02*
D03*
Y6594D02*
D03*
X-2569Y-817D02*
D03*
Y-404D02*
D03*
X-2077Y-817D02*
D03*
Y-404D02*
D03*
D23*
X1526Y-4341D02*
D03*
X1939D02*
D03*
X1526Y-3533D02*
D03*
X1939D02*
D03*
X1526Y-3947D02*
D03*
X1939D02*
D03*
X886Y10384D02*
D03*
X472D02*
D03*
X1821Y10276D02*
D03*
X1407D02*
D03*
X285Y4606D02*
D03*
X-128D02*
D03*
X285Y5020D02*
D03*
X-128D02*
D03*
X-2156Y-1230D02*
D03*
X-2569D02*
D03*
Y-1703D02*
D03*
X-2156D02*
D03*
X-2569Y-2175D02*
D03*
X-2156D02*
D03*
D24*
X-3923Y6063D02*
D03*
X-3169D02*
D03*
X-1598D02*
D03*
X-2352D02*
D03*
D31*
X2084Y3182D02*
D03*
X2784D02*
D03*
X432Y5662D02*
D03*
X-268D02*
D03*
D32*
X-4619Y5549D02*
D03*
Y6249D02*
D03*
D37*
X845Y9715D02*
X886Y9756D01*
Y10384D01*
X472D02*
X482Y10394D01*
Y11289D01*
X1407Y10276D02*
Y10689D01*
X984Y11112D02*
X1407Y10689D01*
X984Y11112D02*
Y11299D01*
X1821Y9931D02*
Y10276D01*
X2697Y11211D02*
Y11526D01*
X669Y2579D02*
Y3061D01*
X620Y3110D02*
X669Y3061D01*
X-108Y2638D02*
Y3110D01*
Y2638D02*
X-49Y2579D01*
X196D01*
X669D02*
X699Y2609D01*
X-1004Y935D02*
X-679Y610D01*
X-1004Y935D02*
Y1171D01*
X1496Y3799D02*
X1614Y3917D01*
Y4281D01*
X1141Y2579D02*
Y3376D01*
X1053Y3465D02*
X1141Y3376D01*
X2569Y4596D02*
Y5758D01*
X2648Y5837D01*
Y6181D01*
X2982Y4183D02*
X2992Y4193D01*
X2569Y4183D02*
X2982D01*
X1939Y-4341D02*
Y-3947D01*
Y-3533D01*
X1526Y-4341D02*
Y-3947D01*
X-2025Y9599D02*
Y9970D01*
X-2028Y9596D02*
X-2025Y9599D01*
X-25Y9572D02*
Y9970D01*
X-30Y9567D02*
X-25Y9572D01*
X-2156Y-2175D02*
Y-1703D01*
Y-1230D02*
X-1831D01*
X-1821Y-1240D01*
X-2077Y-404D02*
Y-49D01*
Y-404D02*
X-2077Y-404D01*
X-2569D02*
X-2077D01*
X-2569Y-817D02*
X-2077D01*
X-2569Y-1230D02*
Y-817D01*
Y-1230D02*
X-2569Y-1230D01*
X-3720Y-2175D02*
X-3720Y-2175D01*
X-2569D01*
X-3720Y-1713D02*
X-2579D01*
X-2569Y-1703D01*
X-4843Y6900D02*
X-4665D01*
X-4619Y6853D01*
Y6249D02*
Y6853D01*
X-128Y4606D02*
Y5020D01*
X432Y5422D02*
Y5662D01*
X-268Y5406D02*
Y5662D01*
Y5406D02*
X-128Y5266D01*
Y5020D02*
Y5266D01*
X2028Y6181D02*
X2303D01*
X2303Y6181D01*
X2784Y3182D02*
X2785Y3183D01*
Y3652D01*
X2500Y1555D02*
X2952D01*
X1161Y-4341D02*
X1526D01*
X1171Y-3543D02*
X1516D01*
X1526Y-3533D01*
X-2156Y-2175D02*
X-1772D01*
X-1772Y-2175D01*
X2087Y3184D02*
Y3799D01*
X1516Y3780D02*
X1535Y3799D01*
X974Y6594D02*
X1289D01*
X1289Y6594D01*
X974Y6181D02*
X974Y6181D01*
X974Y6181D02*
X984Y6171D01*
X1309D01*
X285Y5020D02*
Y5276D01*
X432Y5422D01*
X285Y4606D02*
X286Y4606D01*
X-551Y4606D02*
X-128D01*
X2510Y1083D02*
X2952D01*
X2992Y4606D02*
Y5128D01*
X2992Y4606D02*
X2992Y4606D01*
X2992Y3848D02*
X2992Y3848D01*
X2992Y3848D02*
Y4193D01*
X2082Y3179D02*
X2087Y3175D01*
X2648Y6181D02*
X2963D01*
X2963Y6181D01*
X2028Y6594D02*
X2648D01*
X296Y4616D02*
X306Y4606D01*
X630D01*
X-2411Y876D02*
X-2392Y896D01*
X-4409Y876D02*
X-4144D01*
X-3524Y1640D02*
X-2402D01*
X-2392Y1650D01*
X-3669Y2703D02*
X-3524Y2557D01*
Y1640D02*
Y2557D01*
X-3539Y1624D02*
X-3524Y1640D01*
X-2392Y896D02*
X-1969D01*
X-1791Y1073D01*
Y2195D01*
X-1319Y2667D01*
X-2411Y6122D02*
Y6575D01*
Y6122D02*
X-2352Y6063D01*
X-3022Y6880D02*
X-2766D01*
X-3169Y6732D02*
X-3022Y6880D01*
X-3169Y6063D02*
Y6732D01*
X-1598Y6063D02*
Y6502D01*
X-1526Y6575D01*
X-1388D01*
X-1024Y5915D02*
Y6181D01*
Y5915D02*
X-974Y5866D01*
X-797D01*
X1662Y10797D02*
X2697D01*
X1476Y10983D02*
X1662Y10797D01*
X1476Y10983D02*
Y11289D01*
X2697Y11211D02*
X2697Y11211D01*
X-2077Y-817D02*
X-1742D01*
X-4619Y5386D02*
Y5549D01*
X1939Y-3533D02*
X2283D01*
X2283Y-3533D01*
X-3923Y6063D02*
Y6778D01*
X-3937Y6791D02*
X-3923Y6778D01*
X285Y4606D02*
Y5020D01*
X2087Y2146D02*
Y3175D01*
X1496Y3799D02*
X1516Y3780D01*
X-4144Y876D02*
X-2411D01*
X286Y4606D02*
X296Y4616D01*
X-3559Y1644D02*
X-3539Y1624D01*
X-4075Y1644D02*
X-3559D01*
X-4567Y1033D02*
Y1693D01*
Y1033D02*
X-4409Y876D01*
X-4459Y5226D02*
X-3022D01*
X-4619Y5386D02*
X-4459Y5226D01*
X-4567Y2703D02*
X-3669D01*
X-679Y610D02*
X-196D01*
X2952Y-345D02*
Y138D01*
X2794Y-504D02*
X2952Y-345D01*
X2067Y-504D02*
X2794D01*
D38*
X-25Y10384D02*
Y11294D01*
X-20Y11299D01*
X-2028Y10387D02*
Y11299D01*
Y10387D02*
X-2025Y10384D01*
X-1024Y6594D02*
Y6919D01*
X-532Y6594D02*
Y6919D01*
X-1024Y6181D02*
X-532D01*
X2028Y6594D02*
Y6919D01*
D40*
X-1280Y2677D02*
D03*
D41*
Y1677D02*
D03*
X-4567Y2693D02*
D03*
D42*
Y1693D02*
D03*
D43*
X-4400Y-1693D02*
D03*
X-4800Y307D02*
D03*
X-4000D02*
D03*
D44*
X1821Y9931D02*
D03*
X845Y9715D02*
D03*
X482Y11289D02*
D03*
X984Y11299D02*
D03*
X2697Y11526D02*
D03*
X620Y3110D02*
D03*
X325Y3071D02*
D03*
X-108Y3110D02*
D03*
X-3750Y-1358D02*
D03*
X59Y-4478D02*
D03*
X-1004Y1171D02*
D03*
X1614Y4281D02*
D03*
X1585Y3406D02*
D03*
X2283Y-3533D02*
D03*
X1476Y11289D02*
D03*
X-20Y11299D02*
D03*
X-2028D02*
D03*
X-1024Y6919D02*
D03*
X-531D02*
D03*
X2028D02*
D03*
X-2520Y11299D02*
D03*
X-1526D02*
D03*
X-1024D02*
D03*
X-1220Y10325D02*
D03*
X-4636Y9813D02*
D03*
X-3967Y11378D02*
D03*
X2992Y5128D02*
D03*
X-955Y5531D02*
D03*
X-4350Y3671D02*
D03*
X-1614Y4291D02*
D03*
X-4843Y6900D02*
D03*
X-3804Y-187D02*
D03*
X-3278Y-49D02*
D03*
X-2028Y9596D02*
D03*
X-915Y-4872D02*
D03*
X-30Y9567D02*
D03*
X-1821Y-1240D02*
D03*
X-2077Y-49D02*
D03*
X69Y6506D02*
D03*
X-3720Y-2175D02*
D03*
Y-1713D02*
D03*
X-1850Y-4862D02*
D03*
X-2550Y-6453D02*
D03*
X2303Y6181D02*
D03*
X2785Y3652D02*
D03*
X2500Y1555D02*
D03*
X472Y7697D02*
D03*
X-525Y11299D02*
D03*
X512Y-4852D02*
D03*
X984Y-4862D02*
D03*
X1161Y-4341D02*
D03*
X1447Y-4862D02*
D03*
X2313Y-719D02*
D03*
X1171Y-3543D02*
D03*
X2963Y-4665D02*
D03*
X2333Y-4016D02*
D03*
X-3711Y-4537D02*
D03*
X-3002Y-4951D02*
D03*
X-1772Y-2175D02*
D03*
X-2667Y-2648D02*
D03*
X-2687Y-3120D02*
D03*
X-3816Y-687D02*
D03*
X-4902Y-1535D02*
D03*
X-4980Y-935D02*
D03*
X2343Y-1181D02*
D03*
Y-1634D02*
D03*
X1289Y6594D02*
D03*
X1309Y6171D02*
D03*
X-551Y5128D02*
D03*
Y4606D02*
D03*
X1053Y3465D02*
D03*
X2510Y1083D02*
D03*
X2992Y3848D02*
D03*
X2087Y2146D02*
D03*
X2283Y-5433D02*
D03*
X2963Y6181D02*
D03*
X630Y4606D02*
D03*
X39Y-5945D02*
D03*
X-4144Y876D02*
D03*
X-2411Y6575D02*
D03*
X-2766Y6880D02*
D03*
X-1388Y6575D02*
D03*
X-797Y5866D02*
D03*
X-1526Y6909D02*
D03*
X-2313Y5226D02*
D03*
X-1880Y4587D02*
D03*
X-1742Y-817D02*
D03*
X374Y-6171D02*
D03*
X-207D02*
D03*
X2293Y-6014D02*
D03*
X-3937Y6791D02*
D03*
X-3957Y-6673D02*
D03*
X-4075Y1644D02*
D03*
X-4311Y-3425D02*
D03*
X-3022Y5226D02*
D03*
X1368Y-335D02*
D03*
X1004Y-226D02*
D03*
X2067Y-504D02*
D03*
D52*
X-196Y138D02*
D03*
Y610D02*
D03*
Y1083D02*
D03*
Y1555D02*
D03*
Y2028D02*
D03*
X2952D02*
D03*
Y1555D02*
D03*
Y1083D02*
D03*
Y610D02*
D03*
Y138D02*
D03*
D53*
X196Y2579D02*
D03*
X669D02*
D03*
X1141D02*
D03*
X1614D02*
D03*
X2086D02*
D03*
X2559D02*
D03*
D54*
X2087Y3799D02*
D03*
X1535D02*
D03*
D55*
X-3524Y886D02*
D03*
Y1640D02*
D03*
X-2392Y896D02*
D03*
Y1650D02*
D03*
M02*
