G04 Layer_Physical_Order=4*
G04 Layer_Color=16737945*
%FSLAX24Y24*%
%MOIN*%
G70*
G01*
G75*
%ADD37C,0.0059*%
%ADD44C,0.0157*%
D37*
X-620Y11024D02*
X1329D01*
X1476Y11171D01*
X-1110Y11507D02*
X2679D01*
X-1232Y11385D02*
X-1110Y11507D01*
X2679D02*
X2697Y11526D01*
X325Y-1732D02*
Y3071D01*
Y-1732D02*
X443Y-1850D01*
X1576Y-2971D02*
Y3406D01*
X-354Y-2648D02*
X443Y-1850D01*
X-2667Y-2648D02*
X-354D01*
X2992Y3848D02*
X3130Y3711D01*
X1971Y-5433D02*
X2283D01*
X2510Y1083D02*
X2992D01*
X3130Y1220D01*
Y3711D01*
X-1388Y6575D02*
X-1309D01*
X-1201Y6467D01*
X1476Y11171D02*
Y11289D01*
X-797Y10846D02*
X-620Y11024D01*
X-797Y5866D02*
Y10846D01*
X-1526Y6909D02*
Y10522D01*
X-1232Y10815D01*
Y11385D01*
X-1880Y4587D02*
X-1299D01*
X-1201Y4685D01*
Y6467D01*
X-3937Y6329D02*
Y6791D01*
Y6329D02*
X-3819Y6211D01*
X-1752D01*
X-1388Y6575D01*
X-2687Y-3120D02*
X1427D01*
X1576Y-2971D01*
X1820Y1879D02*
X2087Y2146D01*
X1820Y-5282D02*
X1971Y-5433D01*
X1820Y-5282D02*
Y1879D01*
D44*
X2697Y11526D02*
D03*
X325Y3071D02*
D03*
X1585Y3406D02*
D03*
X1476Y11289D02*
D03*
X-2667Y-2648D02*
D03*
X-2687Y-3120D02*
D03*
X2510Y1083D02*
D03*
X2992Y3848D02*
D03*
X2087Y2146D02*
D03*
X2283Y-5433D02*
D03*
X-1388Y6575D02*
D03*
X-797Y5866D02*
D03*
X-1526Y6909D02*
D03*
X-1880Y4587D02*
D03*
X-3937Y6791D02*
D03*
M02*
