G04 Layer_Physical_Order=1*
G04 Layer_Color=255*
%FSLAX24Y24*%
%MOIN*%
G70*
G01*
G75*
%ADD10R,0.0866X0.0413*%
%ADD11R,0.0394X0.0413*%
%ADD12R,0.0472X0.0472*%
%ADD13R,0.0315X0.0394*%
%ADD14R,0.0394X0.0591*%
%ADD15R,0.0591X0.0394*%
%ADD16R,0.0670X0.0670*%
%ADD17R,0.0591X0.0394*%
%ADD18R,0.0846X0.1280*%
%ADD19R,0.0846X0.0374*%
%ADD20R,0.0480X0.0220*%
%ADD21R,0.0220X0.0228*%
%ADD22R,0.0200X0.0250*%
%ADD23R,0.0250X0.0200*%
%ADD24R,0.0520X0.0600*%
%ADD25C,0.0310*%
%ADD26R,0.0532X0.0157*%
%ADD27R,0.0512X0.0571*%
%ADD28R,0.0748X0.0748*%
%ADD29R,0.0551X0.0630*%
%ADD30R,0.0560X0.0560*%
%ADD31R,0.0300X0.0400*%
%ADD32R,0.0400X0.0300*%
%ADD33R,0.0630X0.1070*%
%ADD34R,0.0197X0.0236*%
%ADD35R,0.0315X0.0315*%
%ADD36R,0.0630X0.0787*%
%ADD37C,0.0059*%
%ADD38C,0.0060*%
%ADD39C,0.0252*%
%ADD40C,0.0600*%
%ADD41C,0.0591*%
%ADD42R,0.0591X0.0591*%
%ADD43C,0.0340*%
%ADD44C,0.0157*%
G36*
X3116Y-6722D02*
X3091D01*
Y-6565D01*
X3091Y-6565D01*
X3089Y-6566D01*
X3087Y-6568D01*
X3084Y-6570D01*
X3081Y-6573D01*
X3077Y-6576D01*
X3072Y-6579D01*
X3067Y-6582D01*
X3067D01*
X3067Y-6582D01*
X3065Y-6584D01*
X3062Y-6585D01*
X3059Y-6587D01*
X3054Y-6589D01*
X3050Y-6591D01*
X3046Y-6593D01*
X3041Y-6595D01*
Y-6571D01*
X3042D01*
X3042Y-6570D01*
X3043Y-6570D01*
X3045Y-6569D01*
X3047Y-6568D01*
X3049Y-6567D01*
X3054Y-6564D01*
X3059Y-6561D01*
X3065Y-6557D01*
X3071Y-6552D01*
X3077Y-6547D01*
X3078Y-6547D01*
X3078Y-6547D01*
X3079Y-6546D01*
X3080Y-6545D01*
X3083Y-6542D01*
X3086Y-6539D01*
X3090Y-6534D01*
X3093Y-6530D01*
X3097Y-6525D01*
X3100Y-6520D01*
X3116D01*
Y-6722D01*
D02*
G37*
D10*
X-4636Y10315D02*
D03*
Y11476D02*
D03*
Y-6604D02*
D03*
Y-5443D02*
D03*
D11*
X-4016Y10896D02*
D03*
Y-6024D02*
D03*
D12*
X-1214Y9098D02*
D03*
Y8311D02*
D03*
X-426D02*
D03*
Y9098D02*
D03*
X361Y8311D02*
D03*
Y9098D02*
D03*
X-1214Y9886D02*
D03*
X-426D02*
D03*
X361D02*
D03*
D13*
X-3025Y7287D02*
D03*
X-2525D02*
D03*
X-2025D02*
D03*
X-1525D02*
D03*
X-1025D02*
D03*
X-533D02*
D03*
X-25D02*
D03*
X475D02*
D03*
X975D02*
D03*
X1475D02*
D03*
X2025D02*
D03*
X1975Y10909D02*
D03*
X-3025D02*
D03*
X-2525D02*
D03*
X-2025D02*
D03*
X-1525D02*
D03*
X-1025D02*
D03*
X-525D02*
D03*
X-25D02*
D03*
X475D02*
D03*
X975D02*
D03*
X1475D02*
D03*
D14*
X-1854Y-5387D02*
D03*
X1453D02*
D03*
X35D02*
D03*
X1925D02*
D03*
X-2300Y676D02*
D03*
X-1356D02*
D03*
X-909Y-5387D02*
D03*
X-1382D02*
D03*
X-437D02*
D03*
X1479Y676D02*
D03*
X-411D02*
D03*
X1007D02*
D03*
X-1828D02*
D03*
X508Y-5387D02*
D03*
X-883Y676D02*
D03*
X62D02*
D03*
X980Y-5387D02*
D03*
X534Y676D02*
D03*
D15*
X2838Y-1647D02*
D03*
Y-2120D02*
D03*
X-3225Y-759D02*
D03*
X2838Y-230D02*
D03*
Y-702D02*
D03*
Y-4009D02*
D03*
X-3225Y-1232D02*
D03*
Y-3122D02*
D03*
Y-2177D02*
D03*
X2838Y-3065D02*
D03*
Y-3537D02*
D03*
X-3225Y-2649D02*
D03*
Y-1704D02*
D03*
X2838Y-1175D02*
D03*
Y-2592D02*
D03*
X-3225Y-3594D02*
D03*
D16*
X2359Y-4659D02*
D03*
X2109Y241D02*
D03*
X-2741Y-59D02*
D03*
X-2441Y-4959D02*
D03*
D17*
X-3225Y-4539D02*
D03*
Y-4067D02*
D03*
D18*
X2362Y5128D02*
D03*
D19*
X79Y4222D02*
D03*
Y6033D02*
D03*
Y5128D02*
D03*
D20*
X-1880Y4862D02*
D03*
Y5236D02*
D03*
Y5616D02*
D03*
X-2912D02*
D03*
Y4862D02*
D03*
D21*
X-2908Y-6431D02*
D03*
Y-6053D02*
D03*
D22*
X2667Y-6447D02*
D03*
Y-6033D02*
D03*
D23*
X2047Y-6496D02*
D03*
X1634D02*
D03*
X236Y3445D02*
D03*
X650D02*
D03*
X1576Y3100D02*
D03*
X1163D02*
D03*
X-1378Y-6053D02*
D03*
X-1791D02*
D03*
D24*
X-2277Y3858D02*
D03*
X-3031D02*
D03*
D25*
X-4650Y-693D02*
D03*
X-4150Y-193D02*
D03*
Y-693D02*
D03*
X-4650Y-1193D02*
D03*
X-4150D02*
D03*
X-4650Y-193D02*
D03*
D26*
X-3642Y4764D02*
D03*
Y4508D02*
D03*
Y5020D02*
D03*
Y5276D02*
D03*
Y5531D02*
D03*
D27*
X-4695Y6368D02*
D03*
X-4695Y3671D02*
D03*
D28*
X-4695Y5493D02*
D03*
X-4695Y4509D02*
D03*
D29*
X-3730Y3760D02*
D03*
Y6280D02*
D03*
D30*
X-3683Y2776D02*
D03*
X-2224D02*
D03*
D31*
X-933Y3861D02*
D03*
X-1633D02*
D03*
D32*
X-952Y4437D02*
D03*
Y5137D02*
D03*
D33*
X-2461Y1713D02*
D03*
X-3572D02*
D03*
D34*
X-2766Y6575D02*
D03*
X-3120D02*
D03*
X-1752D02*
D03*
X-2106D02*
D03*
D35*
X-197Y-6506D02*
D03*
X-787D02*
D03*
X354Y-6506D02*
D03*
X945D02*
D03*
D36*
X-4321Y-2589D02*
D03*
Y-4715D02*
D03*
D37*
X-2669Y-2649D02*
X-2667Y-2648D01*
X-3225Y-2649D02*
X-2669D01*
X-3225Y-3122D02*
X-2689D01*
X475Y10909D02*
X482Y10917D01*
Y11289D01*
X975Y10909D02*
Y11290D01*
X236Y3159D02*
X325Y3071D01*
X236Y3159D02*
Y3445D01*
X620Y3110D02*
X650Y3140D01*
Y3445D01*
X1163Y3100D02*
Y3355D01*
X1053Y3465D02*
X1163Y3355D01*
X1585Y3109D02*
Y3406D01*
X-4026Y-1358D02*
X-3750D01*
X-4075Y-1309D02*
X-4026Y-1358D01*
X-4075Y-1309D02*
X-4075Y-1309D01*
X-4204Y-687D02*
X-3816D01*
X-437Y-5387D02*
Y-4787D01*
X-128Y-4478D01*
X59D01*
X-83Y9886D02*
X361D01*
X-426D02*
X-83D01*
X361Y9098D02*
Y9886D01*
Y8311D02*
Y9098D01*
X-1220Y8318D02*
Y10325D01*
X-581Y4193D02*
X-551Y4222D01*
X-581Y1791D02*
Y4193D01*
X-705Y1667D02*
X-581Y1791D01*
X2283Y-3533D02*
X2287Y-3537D01*
X2838D01*
X-952Y5137D02*
Y5529D01*
X-955Y5531D02*
X-952Y5529D01*
X-3815Y2703D02*
X-3742Y2776D01*
X-952Y2808D02*
Y4437D01*
X-3031Y4742D02*
X-2912Y4862D01*
X-3031Y3858D02*
Y4742D01*
X-3799Y3848D02*
Y4508D01*
X-3976Y3671D02*
X-3799Y3848D01*
X-1614Y3879D02*
Y4291D01*
X-2277Y3858D02*
X-1635D01*
X-1614Y3879D01*
X-4852Y5493D02*
X-4843Y5503D01*
X-3572Y1713D02*
Y2606D01*
X-4204Y-187D02*
X-3805D01*
X-3804Y-187D01*
X-3278Y-49D02*
X-2750D01*
X-3225Y-759D02*
X-2767D01*
X-2750Y-743D01*
X-909Y-5387D02*
Y-4878D01*
X-915Y-4872D02*
X-909Y-4878D01*
X-426Y8311D02*
Y9886D01*
X69Y6043D02*
Y6506D01*
Y6043D02*
X79Y6033D01*
X-3253Y-2205D02*
X-3225Y-2177D01*
X-3720Y-2175D02*
X-3283D01*
X-3720Y-1713D02*
X-3233D01*
X-3225Y-1704D01*
X-1850Y-5383D02*
Y-4862D01*
X-1854Y-5387D02*
X-1850Y-5383D01*
X475Y7287D02*
Y7694D01*
X472Y7697D02*
X475Y7694D01*
X-525Y10909D02*
Y11299D01*
X508Y-5387D02*
X512Y-5383D01*
Y-4852D01*
X-83Y9886D02*
X-30Y9833D01*
Y9567D02*
Y9833D01*
X980Y-5387D02*
X984Y-5383D01*
Y-4862D01*
X2359Y-4659D02*
X2366Y-4665D01*
X2963D01*
X2844Y-4016D02*
X2884Y-4056D01*
X-3711Y-4537D02*
X-3227D01*
X-3002Y-4951D02*
X-2449D01*
X-2441Y-4959D01*
X-4980Y-935D02*
X-4952D01*
X-4704Y-687D01*
X-4902Y-1535D02*
Y-1385D01*
X-4704Y-1187D01*
X2343Y-1181D02*
X2831D01*
X2838Y-1175D01*
X2343Y-1634D02*
X2824D01*
X2838Y-1647D01*
X-551Y5128D02*
X39D01*
X1447Y-5381D02*
Y-4862D01*
Y-5381D02*
X1453Y-5387D01*
X2838Y-3537D02*
Y-3065D01*
X1971Y-5433D02*
X2283D01*
X1925Y-5387D02*
X1971Y-5433D01*
X-3225Y-4536D02*
Y-4067D01*
X35Y-5941D02*
Y-5387D01*
Y-5941D02*
X39Y-5945D01*
X-2461Y1713D02*
Y2598D01*
X-2283Y2776D01*
X-1427D01*
X-1319Y2667D01*
X-1093D02*
X-952Y2808D01*
X-1319Y2667D02*
X-1093D01*
X-2411Y6575D02*
X-2106D01*
X-2766Y6575D02*
Y6880D01*
X-2766Y6575D02*
X-2766Y6575D01*
X-1526Y6909D02*
Y7287D01*
X-1525Y7287D01*
X-1319Y1667D02*
X-705D01*
X-2313Y5226D02*
X-1890D01*
X-1880Y5236D01*
Y5616D02*
X-1561D01*
X-1407Y5463D01*
Y4567D02*
Y5463D01*
Y4567D02*
X-1277Y4437D01*
X-952D01*
X-1880Y4862D02*
X-1880Y4862D01*
X-1880Y4862D02*
X-1880Y4862D01*
X-1880Y4587D02*
Y4862D01*
X-4419Y-5299D02*
Y-4695D01*
X-2904Y-6438D02*
X-2565D01*
X-2550Y-6453D01*
X-1814Y-6060D02*
X-1811Y-6063D01*
X-2912Y5907D02*
X-2776Y6043D01*
X-2912Y5616D02*
Y5907D01*
X354Y-6506D02*
Y-6191D01*
X374Y-6171D01*
X-207Y-6496D02*
Y-6171D01*
Y-6496D02*
X-197Y-6506D01*
X945Y-6506D02*
X1624D01*
X1634Y-6496D01*
X-787Y-6732D02*
Y-6506D01*
Y-6732D02*
X-727Y-6793D01*
X2590D01*
X2657Y-6726D01*
Y-6457D01*
X2667Y-6447D01*
X2047Y-6496D02*
Y-6181D01*
X2215Y-6014D01*
X2293D01*
X2648D02*
X2667Y-6033D01*
X2293Y-6014D02*
X2648D01*
X-4204Y-1187D02*
X-4098D01*
X-3283Y-2175D02*
X-3253Y-2205D01*
X39Y5128D02*
X59Y5108D01*
X-4643Y-6684D02*
X-3936D01*
X-4643Y-5523D02*
X-4419Y-5299D01*
X-3227Y-4537D02*
X-3225Y-4536D01*
X-2750Y-743D02*
Y-49D01*
X-4843Y6368D02*
Y6900D01*
Y5503D02*
Y6368D01*
X2333Y-4016D02*
X2844D01*
X-1398Y-6063D02*
X-1382Y-6047D01*
X975Y6653D02*
Y7287D01*
Y6653D02*
X1033Y6594D01*
X1289D01*
X-2776Y6043D02*
X-1821D01*
X-1752Y6112D01*
Y6575D01*
X-3225Y-1232D02*
X-2551D01*
X-2136Y-817D01*
X-1742D01*
X-3947Y-6673D02*
X-3937Y-6683D01*
X-3957Y-6673D02*
X-3947D01*
X-2975Y5679D02*
X-2912Y5616D01*
X-4321Y-3415D02*
Y-2589D01*
Y-3415D02*
X-4311Y-3425D01*
X-4695Y3671D02*
X-3976D01*
X-4852Y3829D02*
X-4695Y3671D01*
X-4852Y3829D02*
Y5493D01*
X-4695Y6368D02*
X-4606Y6280D01*
X-4843Y6368D02*
X-4695D01*
X-3248Y6703D02*
X-3120Y6575D01*
X-3583Y6703D02*
X-3248D01*
X-4606Y6280D02*
X-3888D01*
X-3730D02*
Y6555D01*
X-3583Y6703D01*
X-3022Y5226D02*
Y5246D01*
X-2912Y5356D01*
Y5616D01*
X-3652Y5541D02*
X-3642Y5531D01*
X-3514Y5679D02*
X-2975D01*
X-3652Y5541D02*
X-3514Y5679D01*
X-4567Y2693D02*
X-3679D01*
X-3742Y2776D02*
X-3572Y2606D01*
X1479Y219D02*
Y676D01*
X1368Y108D02*
X1479Y219D01*
X1368Y-335D02*
Y108D01*
X1004Y-226D02*
X1007Y-224D01*
Y676D01*
X2109Y241D02*
X2652D01*
X2812Y82D01*
Y-256D02*
Y82D01*
Y-256D02*
X2825Y-269D01*
Y-715D02*
Y-269D01*
X2822Y-719D02*
X2825Y-715D01*
X2313Y-719D02*
X2822D01*
X-4419Y-4695D02*
X-4262Y-4537D01*
X-3711D01*
X-551Y4222D02*
X79D01*
D38*
X1475Y10909D02*
Y11288D01*
X1476Y11289D01*
X-20Y10915D02*
Y11299D01*
X-25Y10909D02*
X-20Y10915D01*
X-2025Y10909D02*
Y11296D01*
X-2028Y11299D02*
X-2025Y11296D01*
X-1025Y6920D02*
Y7287D01*
X-533Y6920D02*
Y7287D01*
X2025Y6922D02*
Y7287D01*
X-3025Y10909D02*
X-3025Y10909D01*
X-2525D02*
Y11294D01*
X-1525Y10909D02*
Y11298D01*
X-1025Y10909D02*
Y11298D01*
X-4636Y9813D02*
Y10219D01*
X-4635Y11382D02*
X-3970D01*
X2362Y5128D02*
X2992D01*
X59Y5108D02*
X79Y5128D01*
D39*
X-4026Y-6053D02*
X-1791D01*
X-1382Y-6049D02*
X-1368Y-6063D01*
X-1382Y-6049D02*
Y-6047D01*
Y-5387D01*
X-4016Y10909D02*
X-3025D01*
D40*
X-1280Y2677D02*
D03*
D41*
Y1677D02*
D03*
X-4567Y2693D02*
D03*
D42*
Y1693D02*
D03*
D43*
X-4400Y-1693D02*
D03*
X-4800Y307D02*
D03*
X-4000D02*
D03*
D44*
X1821Y9931D02*
D03*
X845Y9715D02*
D03*
X482Y11289D02*
D03*
X984Y11299D02*
D03*
X2697Y11526D02*
D03*
X620Y3110D02*
D03*
X325Y3071D02*
D03*
X-108Y3110D02*
D03*
X-3750Y-1358D02*
D03*
X59Y-4478D02*
D03*
X-1004Y1171D02*
D03*
X1614Y4281D02*
D03*
X1585Y3406D02*
D03*
X2283Y-3533D02*
D03*
X1476Y11289D02*
D03*
X-20Y11299D02*
D03*
X-2028D02*
D03*
X-1024Y6919D02*
D03*
X-531D02*
D03*
X2028D02*
D03*
X-2520Y11299D02*
D03*
X-1526D02*
D03*
X-1024D02*
D03*
X-1220Y10325D02*
D03*
X-4636Y9813D02*
D03*
X-3967Y11378D02*
D03*
X2992Y5128D02*
D03*
X-955Y5531D02*
D03*
X-4350Y3671D02*
D03*
X-1614Y4291D02*
D03*
X-4843Y6900D02*
D03*
X-3804Y-187D02*
D03*
X-3278Y-49D02*
D03*
X-2028Y9596D02*
D03*
X-915Y-4872D02*
D03*
X-30Y9567D02*
D03*
X-1821Y-1240D02*
D03*
X-2077Y-49D02*
D03*
X69Y6506D02*
D03*
X-3720Y-2175D02*
D03*
Y-1713D02*
D03*
X-1850Y-4862D02*
D03*
X-2550Y-6453D02*
D03*
X2303Y6181D02*
D03*
X2785Y3652D02*
D03*
X2500Y1555D02*
D03*
X472Y7697D02*
D03*
X-525Y11299D02*
D03*
X512Y-4852D02*
D03*
X984Y-4862D02*
D03*
X1161Y-4341D02*
D03*
X1447Y-4862D02*
D03*
X2313Y-719D02*
D03*
X1171Y-3543D02*
D03*
X2963Y-4665D02*
D03*
X2333Y-4016D02*
D03*
X-3711Y-4537D02*
D03*
X-3002Y-4951D02*
D03*
X-1772Y-2175D02*
D03*
X-2667Y-2648D02*
D03*
X-2687Y-3120D02*
D03*
X-3816Y-687D02*
D03*
X-4902Y-1535D02*
D03*
X-4980Y-935D02*
D03*
X2343Y-1181D02*
D03*
Y-1634D02*
D03*
X1289Y6594D02*
D03*
X1309Y6171D02*
D03*
X-551Y5128D02*
D03*
Y4606D02*
D03*
X1053Y3465D02*
D03*
X2510Y1083D02*
D03*
X2992Y3848D02*
D03*
X2087Y2146D02*
D03*
X2283Y-5433D02*
D03*
X2963Y6181D02*
D03*
X630Y4606D02*
D03*
X39Y-5945D02*
D03*
X-4144Y876D02*
D03*
X-2411Y6575D02*
D03*
X-2766Y6880D02*
D03*
X-1388Y6575D02*
D03*
X-797Y5866D02*
D03*
X-1526Y6909D02*
D03*
X-2313Y5226D02*
D03*
X-1880Y4587D02*
D03*
X-1742Y-817D02*
D03*
X374Y-6171D02*
D03*
X-207D02*
D03*
X2293Y-6014D02*
D03*
X-3937Y6791D02*
D03*
X-3957Y-6673D02*
D03*
X-4075Y1644D02*
D03*
X-4311Y-3425D02*
D03*
X-3022Y5226D02*
D03*
X1368Y-335D02*
D03*
X1004Y-226D02*
D03*
X2067Y-504D02*
D03*
M02*
