G04 Layer_Color=16711935*
%FSLAX24Y24*%
%MOIN*%
G70*
G01*
G75*
%ADD77R,0.0280X0.0330*%
%ADD78R,0.0330X0.0280*%
%ADD79R,0.0600X0.0680*%
%ADD86R,0.0380X0.0480*%
%ADD87R,0.0480X0.0380*%
%ADD92C,0.0680*%
%ADD93C,0.0671*%
%ADD94R,0.0671X0.0671*%
%ADD95C,0.0420*%
%ADD96R,0.0474X0.0356*%
%ADD97R,0.0356X0.0474*%
%ADD98R,0.0356X0.0434*%
%ADD99R,0.0680X0.0600*%
D77*
X2569Y4596D02*
D03*
Y4183D02*
D03*
X2992Y4193D02*
D03*
Y4606D02*
D03*
X-2025Y9970D02*
D03*
Y10384D02*
D03*
X974Y6594D02*
D03*
Y6181D02*
D03*
X2028Y6594D02*
D03*
Y6181D02*
D03*
X2697Y11211D02*
D03*
Y10797D02*
D03*
X-532Y6181D02*
D03*
Y6594D02*
D03*
X-25Y9970D02*
D03*
Y10384D02*
D03*
X-1024Y6594D02*
D03*
Y6181D02*
D03*
X2648D02*
D03*
Y6594D02*
D03*
X-2569Y-817D02*
D03*
Y-404D02*
D03*
X-2077Y-817D02*
D03*
Y-404D02*
D03*
D78*
X1526Y-4341D02*
D03*
X1939D02*
D03*
X1526Y-3533D02*
D03*
X1939D02*
D03*
X1526Y-3947D02*
D03*
X1939D02*
D03*
X886Y10384D02*
D03*
X472D02*
D03*
X1821Y10276D02*
D03*
X1407D02*
D03*
X285Y4606D02*
D03*
X-128D02*
D03*
X285Y5020D02*
D03*
X-128D02*
D03*
X-2156Y-1230D02*
D03*
X-2569D02*
D03*
Y-1703D02*
D03*
X-2156D02*
D03*
X-2569Y-2175D02*
D03*
X-2156D02*
D03*
D79*
X-3923Y6063D02*
D03*
X-3169D02*
D03*
X-1598D02*
D03*
X-2352D02*
D03*
D86*
X2084Y3182D02*
D03*
X2784D02*
D03*
X432Y5662D02*
D03*
X-268D02*
D03*
D87*
X-4619Y5549D02*
D03*
Y6249D02*
D03*
D92*
X-1280Y2677D02*
D03*
D93*
Y1677D02*
D03*
X-4567Y2693D02*
D03*
D94*
Y1693D02*
D03*
D95*
X-4400Y-1693D02*
D03*
X-4800Y307D02*
D03*
X-4000D02*
D03*
D96*
X-196Y138D02*
D03*
Y610D02*
D03*
Y1083D02*
D03*
Y1555D02*
D03*
Y2028D02*
D03*
X2952D02*
D03*
Y1555D02*
D03*
Y1083D02*
D03*
Y610D02*
D03*
Y138D02*
D03*
D97*
X196Y2579D02*
D03*
X669D02*
D03*
X1141D02*
D03*
X1614D02*
D03*
X2086D02*
D03*
X2559D02*
D03*
D98*
X2087Y3799D02*
D03*
X1535D02*
D03*
D99*
X-3524Y886D02*
D03*
Y1640D02*
D03*
X-2392Y896D02*
D03*
Y1650D02*
D03*
M02*
