G04 Layer_Color=65535*
%FSLAX24Y24*%
%MOIN*%
G70*
G01*
G75*
%ADD37C,0.0059*%
%ADD56C,0.0079*%
%ADD57C,0.0157*%
%ADD58C,0.0059*%
%ADD59C,0.0060*%
%ADD60C,0.0039*%
%ADD61C,0.0080*%
%ADD62C,0.0010*%
%ADD63C,0.0039*%
%ADD64R,0.0079X0.0397*%
G36*
X-2307Y-5541D02*
X-2249Y-5580D01*
X-2210Y-5638D01*
X-2197Y-5707D01*
X-2210Y-5775D01*
X-2249Y-5834D01*
X-2307Y-5872D01*
X-2376Y-5886D01*
X-2445Y-5872D01*
X-2503Y-5834D01*
X-2542Y-5775D01*
X-2555Y-5707D01*
X-2542Y-5638D01*
X-2503Y-5580D01*
X-2445Y-5541D01*
X-2376Y-5527D01*
X-2307Y-5541D01*
D02*
G37*
G36*
X-2913Y2776D02*
X-3033Y2696D01*
Y2854D01*
X-2913Y2776D01*
D02*
G37*
D37*
X-468Y5816D02*
Y6255D01*
D56*
X2425Y9887D02*
G03*
X2425Y9759I0J-64D01*
G01*
X2425Y9421D02*
Y9759D01*
X-3425Y6909D02*
X2425D01*
X-3425D02*
Y11359D01*
X2425D01*
Y9871D02*
Y11359D01*
Y6909D02*
Y9421D01*
X-780Y1177D02*
Y3177D01*
X-1780D02*
X-780D01*
X-1780Y1177D02*
Y3177D01*
Y1177D02*
X-780D01*
X-5067Y1193D02*
Y3193D01*
Y1193D02*
X-4067D01*
Y3193D01*
X-5067D02*
X-4067D01*
X-5050Y557D02*
X-3750D01*
X-5050Y-1943D02*
Y557D01*
X-3750Y-1943D02*
Y557D01*
X-5050Y-1943D02*
X-3750D01*
D57*
X1979Y11559D02*
G03*
X1979Y11559I-4J0D01*
G01*
D58*
X-2753Y-5309D02*
X-2123D01*
X-3146Y-4915D02*
X-2753Y-5309D01*
X-3146Y-4915D02*
Y-4797D01*
X2759Y-5309D02*
Y-4285D01*
X2365Y-5309D02*
X2759D01*
Y85D02*
Y597D01*
X2562D02*
X2759D01*
X-3146D02*
X-2635D01*
X-3146Y282D02*
Y597D01*
D59*
X-2727Y4566D02*
X-2092D01*
X-2727Y5936D02*
X-2092D01*
X-2812Y5126D02*
Y5346D01*
X-2657Y3658D02*
Y4058D01*
X-3356Y6435D02*
Y6705D01*
X-2342Y6435D02*
Y6705D01*
X-1077Y-6726D02*
Y-6326D01*
X1234Y-6686D02*
Y-6286D01*
D60*
X-3504Y4173D02*
Y4331D01*
Y5709D02*
Y5846D01*
X-4350Y6555D02*
X-4114D01*
X-4331Y3484D02*
X-4114D01*
D61*
X-3073Y2933D02*
X-2835Y2776D01*
X-3073Y2616D02*
Y2933D01*
Y2616D02*
X-2835Y2776D01*
X-3223Y3046D02*
X-2733D01*
X-3223Y2496D02*
X-2703D01*
D62*
X812Y2417D02*
X902D01*
X172Y2407D02*
X462D01*
X722D02*
X742D01*
X772D02*
X1072D01*
X1212D02*
X1812D01*
X2042D02*
X2532D01*
X2802D02*
X2812D01*
X152Y2397D02*
X462D01*
X712D02*
X742D01*
X772D02*
X1102D01*
X1222D02*
X1812D01*
X2012D02*
X2532D01*
X2792D02*
X2812D01*
X112Y2387D02*
X462D01*
X692D02*
X742D01*
X772D02*
X1132D01*
X1242D02*
X1812D01*
X1992D02*
X2532D01*
X2762D02*
X2812D01*
X92Y2377D02*
X462D01*
X662D02*
X742D01*
X772D02*
X1162D01*
X1252D02*
X1812D01*
X1972D02*
X2532D01*
X2742D02*
X2812D01*
X62Y2367D02*
X472D01*
X642D02*
X742D01*
X772D02*
X1182D01*
X1262D02*
X1812D01*
X1952D02*
X2532D01*
X2712D02*
X2812D01*
X52Y2357D02*
X472D01*
X622D02*
X742D01*
X772D02*
X1202D01*
X1272D02*
X1812D01*
X1942D02*
X2532D01*
X2692D02*
X2812D01*
X42Y2347D02*
X472D01*
X612D02*
X742D01*
X772D02*
X1212D01*
X1282D02*
X1812D01*
X1932D02*
X2532D01*
X2682D02*
X2812D01*
X22Y2337D02*
X472D01*
X592D02*
X742D01*
X782D02*
X1222D01*
X1292D02*
X1812D01*
X1922D02*
X2532D01*
X2662D02*
X2812D01*
X2Y2327D02*
X192D01*
X562D02*
X722D01*
X2632D02*
X2802D01*
X-8Y2317D02*
X152D01*
X542D02*
X702D01*
X2612D02*
X2772D01*
X-28Y2307D02*
X122D01*
X512D02*
X672D01*
X2592D02*
X2752D01*
X-28Y2297D02*
X112D01*
X242D02*
X472D01*
X512D02*
X662D01*
X772D02*
X1002D01*
X1142D02*
X1272D01*
X1322D02*
X1812D01*
X1892D02*
X1992D01*
X2092D02*
X2532D01*
X2582D02*
X2742D01*
X-38Y2287D02*
X92D01*
X192D02*
X472D01*
X512D02*
X642D01*
X712D02*
X742D01*
X772D02*
X1052D01*
X1152D02*
X1282D01*
X1342D02*
X1812D01*
X1892D02*
X1982D01*
X2052D02*
X2532D01*
X2582D02*
X2712D01*
X2792D02*
X2812D01*
X-48Y2277D02*
X72D01*
X152D02*
X472D01*
X512D02*
X612D01*
X692D02*
X742D01*
X772D02*
X1092D01*
X1172D02*
X1292D01*
X1352D02*
X1812D01*
X1872D02*
X1972D01*
X2032D02*
X2532D01*
X2582D02*
X2692D01*
X2762D02*
X2812D01*
X-58Y2267D02*
X62D01*
X132D02*
X472D01*
X512D02*
X592D01*
X672D02*
X742D01*
X772D02*
X1112D01*
X1192D02*
X1302D01*
X1352D02*
X1812D01*
X1872D02*
X1962D01*
X2012D02*
X2532D01*
X2582D02*
X2662D01*
X2742D02*
X2812D01*
X-68Y2257D02*
X52D01*
X112D02*
X472D01*
X512D02*
X562D01*
X642D02*
X742D01*
X772D02*
X1132D01*
X1202D02*
X1302D01*
X1362D02*
X1812D01*
X1872D02*
X1952D01*
X2002D02*
X2532D01*
X2582D02*
X2642D01*
X2712D02*
X2812D01*
X-78Y2247D02*
X42D01*
X102D02*
X472D01*
X512D02*
X552D01*
X632D02*
X742D01*
X772D02*
X1142D01*
X1202D02*
X1312D01*
X1362D02*
X1812D01*
X1862D02*
X1952D01*
X2002D02*
X2532D01*
X2582D02*
X2622D01*
X2702D02*
X2812D01*
X-88Y2237D02*
X22D01*
X92D02*
X472D01*
X512D02*
X522D01*
X612D02*
X742D01*
X772D02*
X1152D01*
X1212D02*
X1322D01*
X1372D02*
X1812D01*
X1862D02*
X1952D01*
X1992D02*
X2532D01*
X2582D02*
X2602D01*
X2682D02*
X2812D01*
X-88Y2227D02*
X12D01*
X72D02*
X252D01*
X592D02*
X742D01*
X772D02*
X862D01*
X992D02*
X1172D01*
X1222D02*
X1322D01*
X1372D02*
X1452D01*
X1862D02*
X1942D01*
X1992D02*
X2532D01*
X2662D02*
X2812D01*
X-98Y2217D02*
X12D01*
X62D02*
X192D01*
X562D02*
X722D01*
X772D02*
X862D01*
X1042D02*
X1182D01*
X1242D02*
X1332D01*
X1382D02*
X1462D01*
X1862D02*
X1942D01*
X1982D02*
X2082D01*
X2642D02*
X2802D01*
X-108Y2207D02*
X2D01*
X52D02*
X172D01*
X542D02*
X692D01*
X772D02*
X862D01*
X1072D02*
X1192D01*
X1242D02*
X1342D01*
X1392D02*
X1462D01*
X1862D02*
X1942D01*
X1972D02*
X2062D01*
X2612D02*
X2772D01*
X-108Y2197D02*
X-8D01*
X42D02*
X162D01*
X532D02*
X682D01*
X772D02*
X862D01*
X1082D02*
X1202D01*
X1252D02*
X1342D01*
X1392D02*
X1472D01*
X1852D02*
X1932D01*
X1972D02*
X2062D01*
X2602D02*
X2762D01*
X-108Y2187D02*
X-8D01*
X32D02*
X142D01*
X512D02*
X662D01*
X772D02*
X862D01*
X1102D02*
X1212D01*
X1252D02*
X1352D01*
X1392D02*
X1472D01*
X1852D02*
X1932D01*
X1972D02*
X2052D01*
X2582D02*
X2742D01*
X-118Y2177D02*
X-28D01*
X22D02*
X122D01*
X512D02*
X642D01*
X722D02*
X742D01*
X772D02*
X862D01*
X1112D02*
X1222D01*
X1262D02*
X1352D01*
X1402D02*
X1472D01*
X1852D02*
X1932D01*
X1972D02*
X2052D01*
X2582D02*
X2712D01*
X2792D02*
X2812D01*
X-128Y2167D02*
X-28D01*
X12D02*
X112D01*
X512D02*
X612D01*
X702D02*
X742D01*
X772D02*
X862D01*
X1132D02*
X1222D01*
X1262D02*
X1352D01*
X1402D02*
X1482D01*
X1852D02*
X1932D01*
X1972D02*
X2052D01*
X2582D02*
X2692D01*
X2772D02*
X2812D01*
X-128Y2157D02*
X-38D01*
X12D02*
X102D01*
X512D02*
X592D01*
X672D02*
X742D01*
X772D02*
X862D01*
X1142D02*
X1232D01*
X1272D02*
X1362D01*
X1412D02*
X1492D01*
X1852D02*
X1932D01*
X1972D02*
X2052D01*
X2582D02*
X2662D01*
X2752D02*
X2812D01*
X-128Y2147D02*
X-38D01*
X2D02*
X102D01*
X512D02*
X572D01*
X662D02*
X742D01*
X772D02*
X862D01*
X1142D02*
X1242D01*
X1272D02*
X1362D01*
X1412D02*
X1492D01*
X1852D02*
X1932D01*
X1972D02*
X2052D01*
X2582D02*
X2652D01*
X2732D02*
X2812D01*
X-138Y2137D02*
X-38D01*
X2D02*
X92D01*
X512D02*
X552D01*
X642D02*
X742D01*
X772D02*
X862D01*
X1152D02*
X1242D01*
X1282D02*
X1362D01*
X1412D02*
X1492D01*
X1852D02*
X1932D01*
X1972D02*
X2052D01*
X2582D02*
X2622D01*
X2712D02*
X2812D01*
X-138Y2127D02*
X-48D01*
X-8D02*
X72D01*
X512D02*
X522D01*
X612D02*
X742D01*
X772D02*
X862D01*
X1162D02*
X1252D01*
X1292D02*
X1372D01*
X1412D02*
X1492D01*
X1852D02*
X1932D01*
X1972D02*
X2062D01*
X2572D02*
X2602D01*
X2692D02*
X2812D01*
X-138Y2117D02*
X-48D01*
X-8D02*
X72D01*
X592D02*
X742D01*
X772D02*
X862D01*
X1172D02*
X1252D01*
X1292D02*
X1372D01*
X1422D02*
X1502D01*
X1862D02*
X1942D01*
X1972D02*
X2062D01*
X2662D02*
X2812D01*
X-148Y2107D02*
X-58D01*
X-18D02*
X62D01*
X562D02*
X742D01*
X772D02*
X862D01*
X1172D02*
X1262D01*
X1292D02*
X1372D01*
X1422D02*
X1502D01*
X1862D02*
X1942D01*
X1982D02*
X2072D01*
X2642D02*
X2812D01*
X-148Y2097D02*
X-58D01*
X-18D02*
X62D01*
X552D02*
X742D01*
X772D02*
X862D01*
X1172D02*
X1262D01*
X1292D02*
X1382D01*
X1422D02*
X1502D01*
X1862D02*
X1942D01*
X1982D02*
X2092D01*
X2622D02*
X2812D01*
X-148Y2087D02*
X-58D01*
X-28D02*
X52D01*
X532D02*
X742D01*
X772D02*
X862D01*
X1182D02*
X1262D01*
X1302D02*
X1382D01*
X1422D02*
X1812D01*
X1862D02*
X1942D01*
X1992D02*
X2322D01*
X2602D02*
X2812D01*
X-148Y2077D02*
X-58D01*
X-28D02*
X52D01*
X512D02*
X742D01*
X772D02*
X862D01*
X1192D02*
X1262D01*
X1302D02*
X1382D01*
X1422D02*
X1812D01*
X1872D02*
X1952D01*
X1992D02*
X2362D01*
X2582D02*
X2812D01*
X-148Y2067D02*
X-68D01*
X-28D02*
X52D01*
X512D02*
X742D01*
X772D02*
X862D01*
X1192D02*
X1272D01*
X1302D02*
X1392D01*
X1422D02*
X1812D01*
X1872D02*
X1962D01*
X2002D02*
X2392D01*
X2572D02*
X2812D01*
X-158Y2057D02*
X-68D01*
X-28D02*
X52D01*
X512D02*
X742D01*
X772D02*
X862D01*
X1192D02*
X1272D01*
X1302D02*
X1392D01*
X1422D02*
X1812D01*
X1872D02*
X1962D01*
X2012D02*
X2412D01*
X2572D02*
X2812D01*
X-158Y2047D02*
X-68D01*
X-38D02*
X42D01*
X512D02*
X742D01*
X772D02*
X862D01*
X1192D02*
X1272D01*
X1302D02*
X1392D01*
X1432D02*
X1812D01*
X1882D02*
X1972D01*
X2022D02*
X2422D01*
X2572D02*
X2812D01*
X-158Y2037D02*
X-78D01*
X-38D02*
X42D01*
X512D02*
X742D01*
X772D02*
X862D01*
X1202D02*
X1272D01*
X1312D02*
X1392D01*
X1432D02*
X1812D01*
X1892D02*
X1982D01*
X2042D02*
X2432D01*
X2572D02*
X2812D01*
X-158Y2027D02*
X-78D01*
X-38D02*
X42D01*
X512D02*
X742D01*
X772D02*
X862D01*
X1202D02*
X1272D01*
X1312D02*
X1392D01*
X1432D02*
X1812D01*
X1892D02*
X1992D01*
X2062D02*
X2452D01*
X2572D02*
X2812D01*
X-158Y2017D02*
X-78D01*
X-38D02*
X42D01*
X512D02*
X742D01*
X772D02*
X862D01*
X1202D02*
X1272D01*
X1312D02*
X1392D01*
X1432D02*
X1512D01*
X2572D02*
X2812D01*
X-158Y2007D02*
X-78D01*
X-38D02*
X42D01*
X512D02*
X742D01*
X772D02*
X862D01*
X1202D02*
X1272D01*
X1312D02*
X1392D01*
X1432D02*
X1512D01*
X2572D02*
X2812D01*
X-158Y1997D02*
X-78D01*
X-38D02*
X42D01*
X512D02*
X742D01*
X772D02*
X862D01*
X1202D02*
X1272D01*
X1312D02*
X1392D01*
X1432D02*
X1512D01*
X2572D02*
X2812D01*
X-158Y1987D02*
X-78D01*
X-38D02*
X42D01*
X512D02*
X742D01*
X772D02*
X862D01*
X1202D02*
X1272D01*
X1312D02*
X1392D01*
X1432D02*
X1512D01*
X2572D02*
X2812D01*
X-158Y1977D02*
X-78D01*
X-38D02*
X42D01*
X512D02*
X742D01*
X772D02*
X862D01*
X1202D02*
X1272D01*
X1312D02*
X1392D01*
X1432D02*
X1812D01*
X1932D02*
X2312D01*
X2392D02*
X2492D01*
X2572D02*
X2812D01*
X-158Y1967D02*
X-78D01*
X-38D02*
X42D01*
X512D02*
X742D01*
X772D02*
X862D01*
X1202D02*
X1272D01*
X1312D02*
X1392D01*
X1432D02*
X1812D01*
X1942D02*
X2342D01*
X2402D02*
X2502D01*
X2572D02*
X2812D01*
X-158Y1957D02*
X-68D01*
X-38D02*
X42D01*
X512D02*
X742D01*
X772D02*
X862D01*
X1192D02*
X1272D01*
X1312D02*
X1392D01*
X1422D02*
X1812D01*
X1952D02*
X2352D01*
X2412D02*
X2502D01*
X2572D02*
X2812D01*
X-158Y1947D02*
X-68D01*
X-28D02*
X52D01*
X512D02*
X742D01*
X772D02*
X862D01*
X1192D02*
X1272D01*
X1302D02*
X1392D01*
X1422D02*
X1812D01*
X1972D02*
X2372D01*
X2422D02*
X2512D01*
X2572D02*
X2812D01*
X-158Y1937D02*
X-68D01*
X-28D02*
X52D01*
X512D02*
X742D01*
X772D02*
X862D01*
X1192D02*
X1272D01*
X1302D02*
X1392D01*
X1422D02*
X1812D01*
X1982D02*
X2372D01*
X2422D02*
X2512D01*
X2572D02*
X2812D01*
X-158Y1927D02*
X-58D01*
X-28D02*
X52D01*
X512D02*
X742D01*
X772D02*
X862D01*
X1192D02*
X1262D01*
X1302D02*
X1392D01*
X1422D02*
X1812D01*
X2012D02*
X2382D01*
X2432D02*
X2512D01*
X2572D02*
X2812D01*
X-148Y1917D02*
X-58D01*
X-28D02*
X62D01*
X512D02*
X742D01*
X772D02*
X862D01*
X1182D02*
X1262D01*
X1302D02*
X1382D01*
X1422D02*
X1812D01*
X2042D02*
X2392D01*
X2442D02*
X2522D01*
X2572D02*
X2812D01*
X-148Y1907D02*
X-58D01*
X-28D02*
X62D01*
X512D02*
X742D01*
X772D02*
X862D01*
X1172D02*
X1262D01*
X1302D02*
X1382D01*
X1422D02*
X1502D01*
X2282D02*
X2402D01*
X2442D02*
X2522D01*
X2572D02*
X2812D01*
X-148Y1897D02*
X-58D01*
X-18D02*
X72D01*
X512D02*
X742D01*
X772D02*
X862D01*
X1172D02*
X1252D01*
X1292D02*
X1372D01*
X1412D02*
X1502D01*
X2302D02*
X2402D01*
X2452D02*
X2522D01*
X2572D02*
X2812D01*
X-148Y1887D02*
X-48D01*
X-18D02*
X72D01*
X512D02*
X742D01*
X772D02*
X862D01*
X1172D02*
X1252D01*
X1292D02*
X1372D01*
X1412D02*
X1502D01*
X2312D02*
X2402D01*
X2452D02*
X2522D01*
X2572D02*
X2812D01*
X-138Y1877D02*
X-48D01*
X-8D02*
X82D01*
X512D02*
X742D01*
X772D02*
X862D01*
X1162D02*
X1252D01*
X1292D02*
X1372D01*
X1412D02*
X1492D01*
X2322D02*
X2412D01*
X2452D02*
X2532D01*
X2572D02*
X2812D01*
X-138Y1867D02*
X-48D01*
X-8D02*
X92D01*
X512D02*
X742D01*
X772D02*
X862D01*
X1152D02*
X1242D01*
X1282D02*
X1372D01*
X1412D02*
X1492D01*
X2322D02*
X2412D01*
X2452D02*
X2532D01*
X2572D02*
X2812D01*
X-138Y1857D02*
X-38D01*
X2D02*
X102D01*
X512D02*
X742D01*
X772D02*
X862D01*
X1142D02*
X1242D01*
X1272D02*
X1362D01*
X1412D02*
X1492D01*
X2332D02*
X2412D01*
X2452D02*
X2532D01*
X2572D02*
X2812D01*
X-128Y1847D02*
X-38D01*
X12D02*
X102D01*
X512D02*
X742D01*
X772D02*
X862D01*
X1132D02*
X1232D01*
X1272D02*
X1362D01*
X1402D02*
X1492D01*
X2332D02*
X2412D01*
X2452D02*
X2532D01*
X2572D02*
X2812D01*
X-128Y1837D02*
X-28D01*
X12D02*
X112D01*
X512D02*
X742D01*
X772D02*
X862D01*
X1122D02*
X1222D01*
X1272D02*
X1362D01*
X1402D02*
X1482D01*
X2332D02*
X2412D01*
X2452D02*
X2532D01*
X2572D02*
X2812D01*
X-128Y1827D02*
X-28D01*
X22D02*
X122D01*
X512D02*
X742D01*
X772D02*
X862D01*
X1112D02*
X1222D01*
X1262D02*
X1352D01*
X1402D02*
X1472D01*
X2332D02*
X2412D01*
X2452D02*
X2532D01*
X2572D02*
X2812D01*
X-118Y1817D02*
X-18D01*
X22D02*
X142D01*
X512D02*
X742D01*
X772D02*
X862D01*
X1102D02*
X1212D01*
X1262D02*
X1352D01*
X1392D02*
X1472D01*
X2322D02*
X2412D01*
X2452D02*
X2532D01*
X2572D02*
X2812D01*
X-108Y1807D02*
X-8D01*
X42D02*
X162D01*
X512D02*
X742D01*
X772D02*
X862D01*
X1082D02*
X1202D01*
X1252D02*
X1352D01*
X1392D02*
X1472D01*
X2322D02*
X2412D01*
X2452D02*
X2522D01*
X2572D02*
X2812D01*
X-108Y1797D02*
X2D01*
X52D02*
X182D01*
X512D02*
X742D01*
X772D02*
X862D01*
X1062D02*
X1192D01*
X1242D02*
X1342D01*
X1382D02*
X1462D01*
X2312D02*
X2402D01*
X2452D02*
X2522D01*
X2572D02*
X2812D01*
X-98Y1787D02*
X2D01*
X52D02*
X202D01*
X512D02*
X742D01*
X772D02*
X862D01*
X1042D02*
X1192D01*
X1242D02*
X1342D01*
X1382D02*
X1462D01*
X2302D02*
X2402D01*
X2452D02*
X2522D01*
X2572D02*
X2812D01*
X-98Y1777D02*
X12D01*
X62D02*
X462D01*
X512D02*
X742D01*
X772D02*
X872D01*
X972D02*
X1172D01*
X1232D02*
X1332D01*
X1372D02*
X1812D01*
X2272D02*
X2402D01*
X2442D02*
X2522D01*
X2572D02*
X2812D01*
X-88Y1767D02*
X22D01*
X82D02*
X472D01*
X512D02*
X742D01*
X772D02*
X1162D01*
X1222D02*
X1322D01*
X1362D02*
X1812D01*
X1852D02*
X2392D01*
X2442D02*
X2522D01*
X2572D02*
X2812D01*
X-78Y1757D02*
X42D01*
X92D02*
X472D01*
X512D02*
X742D01*
X772D02*
X1152D01*
X1212D02*
X1312D01*
X1362D02*
X1812D01*
X1852D02*
X2382D01*
X2432D02*
X2512D01*
X2572D02*
X2812D01*
X-78Y1747D02*
X52D01*
X112D02*
X472D01*
X512D02*
X742D01*
X772D02*
X1122D01*
X1202D02*
X1312D01*
X1352D02*
X1812D01*
X1852D02*
X2372D01*
X2422D02*
X2512D01*
X2572D02*
X2812D01*
X-68Y1737D02*
X52D01*
X122D02*
X472D01*
X512D02*
X742D01*
X772D02*
X1122D01*
X1192D02*
X1302D01*
X1352D02*
X1812D01*
X1852D02*
X2372D01*
X2422D02*
X2512D01*
X2572D02*
X2812D01*
X-58Y1727D02*
X72D01*
X142D02*
X472D01*
X512D02*
X742D01*
X772D02*
X1102D01*
X1172D02*
X1302D01*
X1342D02*
X1812D01*
X1852D02*
X2352D01*
X2412D02*
X2502D01*
X2572D02*
X2812D01*
X-48Y1717D02*
X92D01*
X172D02*
X472D01*
X512D02*
X742D01*
X772D02*
X1072D01*
X1162D02*
X1292D01*
X1332D02*
X1812D01*
X1852D02*
X2342D01*
X2402D02*
X2502D01*
X2572D02*
X2812D01*
X-38Y1707D02*
X102D01*
X212D02*
X472D01*
X512D02*
X742D01*
X772D02*
X1022D01*
X1142D02*
X1272D01*
X1322D02*
X1812D01*
X1852D02*
X2312D01*
X2392D02*
X2492D01*
X2572D02*
X2812D01*
X-28Y1697D02*
X122D01*
X512D02*
X742D01*
X2572D02*
X2812D01*
X-18Y1687D02*
X142D01*
X512D02*
X742D01*
X2572D02*
X2812D01*
X-8Y1677D02*
X172D01*
X512D02*
X742D01*
X2572D02*
X2812D01*
X12Y1667D02*
X242D01*
X512D02*
X742D01*
X2572D02*
X2812D01*
X22Y1657D02*
X462D01*
X512D02*
X742D01*
X772D02*
X1212D01*
X1292D02*
X1812D01*
X1852D02*
X2452D01*
X2572D02*
X2812D01*
X42Y1647D02*
X462D01*
X512D02*
X742D01*
X772D02*
X1202D01*
X1272D02*
X1812D01*
X1852D02*
X2442D01*
X2572D02*
X2812D01*
X52Y1637D02*
X462D01*
X512D02*
X742D01*
X772D02*
X1192D01*
X1272D02*
X1812D01*
X1852D02*
X2432D01*
X2572D02*
X2812D01*
X72Y1627D02*
X462D01*
X512D02*
X742D01*
X772D02*
X1172D01*
X1252D02*
X1812D01*
X1852D02*
X2422D01*
X2572D02*
X2812D01*
X102Y1617D02*
X462D01*
X512D02*
X742D01*
X772D02*
X1152D01*
X1242D02*
X1812D01*
X1852D02*
X2402D01*
X2572D02*
X2812D01*
X122Y1607D02*
X462D01*
X512D02*
X742D01*
X772D02*
X1122D01*
X1222D02*
X1812D01*
X1852D02*
X2382D01*
X2572D02*
X2812D01*
X162Y1597D02*
X462D01*
X512D02*
X742D01*
X772D02*
X1082D01*
X1212D02*
X1812D01*
X1852D02*
X2352D01*
X2572D02*
X2812D01*
X192Y1587D02*
X472D01*
X512D02*
X742D01*
X772D02*
X1052D01*
X1202D02*
X1812D01*
X1852D02*
X2322D01*
X2572D02*
X2812D01*
X-3732Y7855D02*
Y8125D01*
X-3742Y7825D02*
Y8155D01*
X-3752Y7785D02*
Y8195D01*
X-3762Y7765D02*
Y8215D01*
X-3772Y7735D02*
Y8245D01*
X-3782Y7715D02*
Y8265D01*
X-3792Y7695D02*
Y8285D01*
X-3802Y7685D02*
Y8295D01*
X-3812Y8085D02*
Y8325D01*
Y7665D02*
Y7895D01*
X-3822Y8115D02*
Y8335D01*
Y7645D02*
Y7865D01*
X-3832Y8165D02*
Y8335D01*
Y7635D02*
Y7815D01*
X-3842Y8185D02*
Y8325D01*
Y7645D02*
Y7805D01*
X-3852Y8215D02*
Y8315D01*
Y7645D02*
Y7765D01*
X-3862Y8225D02*
Y8315D01*
Y7915D02*
Y8065D01*
Y7655D02*
Y7755D01*
X-3872Y8255D02*
Y8305D01*
Y7855D02*
Y8125D01*
Y7665D02*
Y7725D01*
X-3882Y8265D02*
Y8295D01*
Y7835D02*
Y8155D01*
Y7805D02*
Y7815D01*
Y7675D02*
Y7715D01*
X-3892Y8295D02*
Y8305D01*
Y7795D02*
Y8185D01*
Y7665D02*
Y7695D01*
X-3902Y7785D02*
Y8195D01*
X-3912Y7755D02*
Y8225D01*
X-3922Y7745D02*
Y8235D01*
Y7725D02*
Y7735D01*
X-3932Y8065D02*
Y8255D01*
Y7715D02*
Y7915D01*
X-3942Y8105D02*
Y8255D01*
Y7715D02*
Y7885D01*
X-3952Y8135D02*
Y8255D01*
Y7715D02*
Y7845D01*
X-3962Y8155D02*
Y8235D01*
Y7725D02*
Y7825D01*
X-3972Y8185D02*
Y8235D01*
Y7735D02*
Y7795D01*
X-3982Y8195D02*
Y8225D01*
Y7735D02*
Y7785D01*
X-3992Y7915D02*
Y8065D01*
Y7745D02*
Y7765D01*
X-4002Y7885D02*
Y8095D01*
X-4012Y7845D02*
Y8125D01*
X-4022Y7835D02*
Y8145D01*
X-4032Y7805D02*
Y8165D01*
X-4042Y7785D02*
Y8185D01*
X-4052Y8065D02*
Y8175D01*
Y7795D02*
Y7915D01*
X-4062Y8085D02*
Y8175D01*
Y7795D02*
Y7885D01*
X-4072Y8125D02*
Y8165D01*
Y7805D02*
Y7865D01*
X-4082Y8135D02*
Y8155D01*
Y7815D02*
Y7845D01*
X-4092Y7805D02*
Y7815D01*
X-4122Y8935D02*
Y9025D01*
Y7925D02*
Y8045D01*
X-4132Y9115D02*
Y9235D01*
Y8895D02*
Y9055D01*
Y8625D02*
Y8795D01*
Y8285D02*
Y8435D01*
Y7885D02*
Y8085D01*
Y7355D02*
Y7725D01*
X-4142Y9105D02*
Y9235D01*
Y8885D02*
Y9075D01*
Y8625D02*
Y8795D01*
Y8285D02*
Y8435D01*
Y7865D02*
Y8105D01*
Y7355D02*
Y7725D01*
X-4152Y9105D02*
Y9235D01*
Y8875D02*
Y9095D01*
Y8615D02*
Y8795D01*
Y8285D02*
Y8435D01*
Y7845D02*
Y8125D01*
Y7355D02*
Y7725D01*
X-4162Y8865D02*
Y9235D01*
Y8615D02*
Y8785D01*
Y8285D02*
Y8435D01*
Y7835D02*
Y8135D01*
Y7355D02*
Y7725D01*
X-4172Y8855D02*
Y9225D01*
Y8605D02*
Y8775D01*
Y8285D02*
Y8435D01*
Y8155D02*
Y8165D01*
Y7825D02*
Y8145D01*
Y7355D02*
Y7725D01*
X-4182Y8845D02*
Y9225D01*
Y8605D02*
Y8775D01*
Y8285D02*
Y8435D01*
Y7815D02*
Y8155D01*
Y7355D02*
Y7725D01*
X-4192Y8845D02*
Y9225D01*
Y8595D02*
Y8765D01*
Y8285D02*
Y8435D01*
Y7805D02*
Y8175D01*
Y7355D02*
Y7725D01*
X-4202Y8835D02*
Y9225D01*
Y8595D02*
Y8755D01*
Y8285D02*
Y8435D01*
Y7795D02*
Y8175D01*
Y7355D02*
Y7725D01*
X-4212Y8835D02*
Y9225D01*
Y8585D02*
Y8755D01*
Y8285D02*
Y8435D01*
Y7785D02*
Y8185D01*
Y7355D02*
Y7725D01*
X-4222Y9035D02*
Y9225D01*
Y8835D02*
Y8995D01*
Y8575D02*
Y8755D01*
Y8285D02*
Y8435D01*
Y7785D02*
Y8195D01*
Y7355D02*
Y7725D01*
X-4232Y9065D02*
Y9225D01*
Y8835D02*
Y8975D01*
Y8575D02*
Y8745D01*
Y8285D02*
Y8435D01*
Y8035D02*
Y8195D01*
Y7775D02*
Y7935D01*
Y7355D02*
Y7725D01*
X-4242Y9075D02*
Y9225D01*
Y8835D02*
Y8965D01*
Y8575D02*
Y8735D01*
Y8285D02*
Y8435D01*
Y8055D02*
Y8195D01*
Y7775D02*
Y7925D01*
Y7355D02*
Y7725D01*
X-4252Y9075D02*
Y9225D01*
Y8835D02*
Y8965D01*
Y8565D02*
Y8735D01*
Y8285D02*
Y8435D01*
Y8055D02*
Y8205D01*
Y7775D02*
Y7915D01*
Y7355D02*
Y7725D01*
X-4262Y9085D02*
Y9225D01*
Y8835D02*
Y8965D01*
Y8555D02*
Y8725D01*
Y8285D02*
Y8435D01*
Y8065D02*
Y8205D01*
Y7765D02*
Y7915D01*
Y7355D02*
Y7505D01*
X-4272Y9095D02*
Y9225D01*
Y8835D02*
Y8965D01*
Y8555D02*
Y8715D01*
Y8285D02*
Y8435D01*
Y8065D02*
Y8215D01*
Y7765D02*
Y7905D01*
Y7355D02*
Y7505D01*
X-4282Y9095D02*
Y9225D01*
Y8835D02*
Y8975D01*
Y8545D02*
Y8715D01*
Y8285D02*
Y8435D01*
Y8075D02*
Y8215D01*
Y7755D02*
Y7895D01*
Y7355D02*
Y7505D01*
X-4292Y9095D02*
Y9225D01*
Y8835D02*
Y8985D01*
Y8535D02*
Y8715D01*
Y8285D02*
Y8435D01*
Y8075D02*
Y8215D01*
Y7755D02*
Y7895D01*
Y7355D02*
Y7505D01*
X-4302Y9095D02*
Y9225D01*
Y8845D02*
Y8995D01*
Y8535D02*
Y8705D01*
Y8285D02*
Y8435D01*
Y8075D02*
Y8215D01*
Y7755D02*
Y7895D01*
Y7355D02*
Y7505D01*
X-4312Y9095D02*
Y9225D01*
Y8845D02*
Y9035D01*
Y8535D02*
Y8695D01*
Y8285D02*
Y8435D01*
Y8075D02*
Y8215D01*
Y7755D02*
Y7895D01*
Y7355D02*
Y7505D01*
X-4322Y9095D02*
Y9225D01*
Y8855D02*
Y9065D01*
Y8525D02*
Y8695D01*
Y8285D02*
Y8435D01*
Y8075D02*
Y8215D01*
Y7755D02*
Y7895D01*
Y7355D02*
Y7505D01*
X-4332Y8855D02*
Y9225D01*
Y8285D02*
Y8685D01*
Y8075D02*
Y8215D01*
Y7755D02*
Y7895D01*
Y7355D02*
Y7505D01*
X-4342Y8875D02*
Y9225D01*
Y8285D02*
Y8675D01*
Y8075D02*
Y8215D01*
Y7755D02*
Y7895D01*
Y7355D02*
Y7505D01*
X-4352Y8885D02*
Y9225D01*
Y8865D02*
Y8875D01*
Y8285D02*
Y8675D01*
Y8075D02*
Y8215D01*
Y7755D02*
Y7895D01*
Y7355D02*
Y7505D01*
X-4362Y8895D02*
Y9225D01*
Y8285D02*
Y8695D01*
Y8075D02*
Y8215D01*
Y7755D02*
Y7895D01*
Y7355D02*
Y7505D01*
X-4372Y8915D02*
Y9225D01*
Y8285D02*
Y8705D01*
Y8075D02*
Y8215D01*
Y7755D02*
Y7895D01*
Y7355D02*
Y7505D01*
X-4382Y8945D02*
Y9225D01*
Y8285D02*
Y8725D01*
Y8075D02*
Y8215D01*
Y7755D02*
Y7895D01*
Y7355D02*
Y7505D01*
X-4392Y8965D02*
Y9225D01*
Y8285D02*
Y8735D01*
Y8075D02*
Y8215D01*
Y7755D02*
Y7895D01*
Y7355D02*
Y7505D01*
X-4402Y9025D02*
Y9225D01*
Y8285D02*
Y8745D01*
Y8075D02*
Y8215D01*
Y7755D02*
Y7895D01*
Y7355D02*
Y7505D01*
X-4412Y9085D02*
Y9225D01*
Y8285D02*
Y8755D01*
Y8075D02*
Y8215D01*
Y7765D02*
Y7905D01*
Y7355D02*
Y7505D01*
X-4422Y9095D02*
Y9225D01*
Y8285D02*
Y8755D01*
Y8065D02*
Y8205D01*
Y7765D02*
Y7905D01*
Y7355D02*
Y7505D01*
X-4432Y9095D02*
Y9225D01*
Y8855D02*
Y8985D01*
Y8285D02*
Y8765D01*
Y8055D02*
Y8205D01*
Y7775D02*
Y7915D01*
Y7355D02*
Y7505D01*
X-4442Y9095D02*
Y9225D01*
Y8855D02*
Y8985D01*
Y8285D02*
Y8775D01*
Y8055D02*
Y8195D01*
Y7775D02*
Y7925D01*
Y7355D02*
Y7505D01*
X-4452Y9095D02*
Y9225D01*
Y8855D02*
Y8985D01*
Y8605D02*
Y8775D01*
Y8285D02*
Y8435D01*
Y8035D02*
Y8195D01*
Y7775D02*
Y7935D01*
Y7355D02*
Y7505D01*
X-4462Y9095D02*
Y9225D01*
Y8855D02*
Y8995D01*
Y8615D02*
Y8775D01*
Y8285D02*
Y8435D01*
Y7785D02*
Y8195D01*
Y7355D02*
Y7505D01*
X-4472Y9085D02*
Y9225D01*
Y8855D02*
Y8995D01*
Y8625D02*
Y8785D01*
Y8285D02*
Y8435D01*
Y7785D02*
Y8185D01*
Y7355D02*
Y7505D01*
X-4482Y8855D02*
Y9215D01*
Y8635D02*
Y8785D01*
Y8285D02*
Y8435D01*
Y7795D02*
Y8175D01*
Y7355D02*
Y7505D01*
X-4492Y9225D02*
Y9235D01*
Y8865D02*
Y9215D01*
Y8635D02*
Y8785D01*
Y8285D02*
Y8435D01*
Y7805D02*
Y8175D01*
Y7355D02*
Y7505D01*
X-4502Y9305D02*
Y9355D01*
Y9275D02*
Y9295D01*
Y9235D02*
Y9255D01*
Y8875D02*
Y9215D01*
Y8635D02*
Y8785D01*
Y8285D02*
Y8435D01*
Y7815D02*
Y8155D01*
Y7355D02*
Y7505D01*
X-4512Y9305D02*
Y9355D01*
Y9275D02*
Y9295D01*
Y9235D02*
Y9255D01*
Y8875D02*
Y9205D01*
Y8635D02*
Y8785D01*
Y8285D02*
Y8435D01*
Y7825D02*
Y8155D01*
Y7355D02*
Y7505D01*
X-4522Y9275D02*
Y9355D01*
Y9235D02*
Y9255D01*
Y8885D02*
Y9195D01*
Y8635D02*
Y8785D01*
Y8285D02*
Y8435D01*
Y7835D02*
Y8135D01*
Y7355D02*
Y7505D01*
X-4532Y9275D02*
Y9355D01*
Y9235D02*
Y9255D01*
Y8895D02*
Y9185D01*
Y8635D02*
Y8785D01*
Y8285D02*
Y8435D01*
Y7845D02*
Y8125D01*
Y7355D02*
Y7505D01*
X-4542Y9325D02*
Y9355D01*
Y9275D02*
Y9315D01*
Y9235D02*
Y9255D01*
Y8915D02*
Y9175D01*
Y8635D02*
Y8785D01*
Y8285D02*
Y8435D01*
Y7865D02*
Y8105D01*
Y7355D02*
Y7505D01*
X-4552Y9325D02*
Y9355D01*
Y9275D02*
Y9315D01*
Y9235D02*
Y9255D01*
Y8925D02*
Y9155D01*
Y8625D02*
Y8785D01*
Y8285D02*
Y8435D01*
Y7885D02*
Y8085D01*
Y7355D02*
Y7505D01*
X-4562Y9335D02*
Y9355D01*
Y9205D02*
Y9305D01*
Y8965D02*
Y9115D01*
Y8625D02*
Y8785D01*
Y8285D02*
Y8435D01*
Y7925D02*
Y8045D01*
Y7355D02*
Y7505D01*
X-4572Y9335D02*
Y9355D01*
Y9205D02*
Y9305D01*
Y8615D02*
Y8775D01*
Y8285D02*
Y8435D01*
Y7355D02*
Y7505D01*
X-4582Y8575D02*
Y8775D01*
Y8285D02*
Y8435D01*
Y7355D02*
Y7505D01*
X-4592Y8285D02*
Y8775D01*
Y8155D02*
Y8165D01*
Y7355D02*
Y7505D01*
X-4602Y8285D02*
Y8775D01*
Y8125D02*
Y8155D01*
Y7815D02*
Y7835D01*
Y7355D02*
Y7505D01*
X-4612Y8285D02*
Y8765D01*
Y8115D02*
Y8175D01*
Y7805D02*
Y7845D01*
Y7355D02*
Y7505D01*
X-4622Y8285D02*
Y8755D01*
Y8085D02*
Y8175D01*
Y7795D02*
Y7885D01*
Y7355D02*
Y7505D01*
X-4632Y8285D02*
Y8755D01*
Y8065D02*
Y8175D01*
Y7795D02*
Y7905D01*
Y7355D02*
Y7505D01*
X-4642Y8285D02*
Y8745D01*
Y7795D02*
Y8175D01*
Y7355D02*
Y7505D01*
X-4652Y8285D02*
Y8735D01*
Y7805D02*
Y8165D01*
Y7785D02*
Y7795D01*
Y7355D02*
Y7505D01*
X-4662Y8285D02*
Y8725D01*
Y7825D02*
Y8135D01*
Y7355D02*
Y7505D01*
X-4672Y8285D02*
Y8715D01*
Y7845D02*
Y8125D01*
Y7355D02*
Y7505D01*
X-4682Y8285D02*
Y8685D01*
Y7875D02*
Y8085D01*
Y7355D02*
Y7505D01*
X-4692Y8285D02*
Y8665D01*
Y8205D02*
Y8225D01*
Y7905D02*
Y8055D01*
Y7355D02*
Y7505D01*
X-4702Y8185D02*
Y8235D01*
Y7745D02*
Y7775D01*
X-4712Y8175D02*
Y8235D01*
Y7725D02*
Y7795D01*
X-4722Y8145D02*
Y8245D01*
Y7735D02*
Y7815D01*
X-4732Y8125D02*
Y8265D01*
Y8105D02*
Y8115D01*
Y7715D02*
Y7835D01*
X-4742Y8095D02*
Y8255D01*
Y7715D02*
Y7875D01*
X-4752Y8065D02*
Y8245D01*
Y7715D02*
Y7905D01*
X-4762Y7735D02*
Y8225D01*
X-4772Y7745D02*
Y8215D01*
X-4782Y7775D02*
Y8195D01*
X-4792Y8275D02*
Y8295D01*
Y7785D02*
Y8175D01*
Y7695D02*
Y7705D01*
X-4802Y8255D02*
Y8305D01*
Y7825D02*
Y8145D01*
Y7675D02*
Y7705D01*
X-4812Y8245D02*
Y8315D01*
Y8225D02*
Y8235D01*
Y7845D02*
Y8125D01*
Y7665D02*
Y7725D01*
X-4822Y8225D02*
Y8315D01*
Y7905D02*
Y8065D01*
Y7655D02*
Y7745D01*
X-4832Y8205D02*
Y8325D01*
Y7655D02*
Y7765D01*
X-4842Y8175D02*
Y8335D01*
Y7645D02*
Y7785D01*
X-4852Y8155D02*
Y8335D01*
Y8125D02*
Y8135D01*
Y7635D02*
Y7815D01*
X-4862Y8105D02*
Y8325D01*
Y7635D02*
Y7855D01*
X-4872Y8075D02*
Y8315D01*
Y7935D02*
Y7945D01*
Y7655D02*
Y7885D01*
X-4882Y7675D02*
Y8295D01*
X-4892Y7685D02*
Y8275D01*
X-4902Y7715D02*
Y8255D01*
X-4912Y7725D02*
Y8235D01*
X-4922Y7755D02*
Y8205D01*
X-4932Y7775D02*
Y8185D01*
X-4942Y7815D02*
Y8145D01*
X-4952Y7845D02*
Y8115D01*
D63*
X-4836Y9892D02*
X-4705Y9696D01*
Y9892D02*
X-4836Y9696D01*
X-4639Y9860D02*
X-4606Y9892D01*
X-4541D01*
X-4508Y9860D01*
Y9827D01*
X-4541Y9794D01*
X-4573D01*
X-4541D01*
X-4508Y9761D01*
Y9728D01*
X-4541Y9696D01*
X-4606D01*
X-4639Y9728D01*
X-4442Y9860D02*
X-4409Y9892D01*
X-4344D01*
X-4311Y9860D01*
Y9728D01*
X-4344Y9696D01*
X-4409D01*
X-4442Y9728D01*
Y9860D01*
X-3625Y-6790D02*
X-3428Y-6659D01*
X-3625D02*
X-3428Y-6790D01*
Y-6462D02*
Y-6593D01*
X-3559Y-6462D01*
X-3592D01*
X-3625Y-6495D01*
Y-6561D01*
X-3592Y-6593D01*
Y-6397D02*
X-3625Y-6364D01*
Y-6298D01*
X-3592Y-6265D01*
X-3461D01*
X-3428Y-6298D01*
Y-6364D01*
X-3461Y-6397D01*
X-3592D01*
X2844Y10098D02*
X2680D01*
X2648Y10066D01*
Y10000D01*
X2680Y9967D01*
X2844D01*
X2812Y9902D02*
X2844Y9869D01*
Y9803D01*
X2812Y9770D01*
X2779D01*
X2746Y9803D01*
Y9836D01*
Y9803D01*
X2713Y9770D01*
X2680D01*
X2648Y9803D01*
Y9869D01*
X2680Y9902D01*
X2812Y9705D02*
X2844Y9672D01*
Y9606D01*
X2812Y9574D01*
X2680D01*
X2648Y9606D01*
Y9672D01*
X2680Y9705D01*
X2812D01*
X2904Y-5679D02*
Y-5515D01*
X2871Y-5482D01*
X2805D01*
X2772Y-5515D01*
Y-5679D01*
X2576Y-5482D02*
X2707D01*
X2576Y-5613D01*
Y-5646D01*
X2608Y-5679D01*
X2674D01*
X2707Y-5646D01*
X2510D02*
X2477Y-5679D01*
X2412D01*
X2379Y-5646D01*
Y-5515D01*
X2412Y-5482D01*
X2477D01*
X2510Y-5515D01*
Y-5646D01*
X2470Y3602D02*
Y3438D01*
X2503Y3406D01*
X2569D01*
X2602Y3438D01*
Y3602D01*
X2667Y3406D02*
X2733D01*
X2700D01*
Y3602D01*
X2667Y3570D01*
X2831Y3406D02*
X2897D01*
X2864D01*
Y3602D01*
X2831Y3570D01*
X-1476Y5482D02*
X-1312D01*
X-1280Y5515D01*
Y5581D01*
X-1312Y5613D01*
X-1476D01*
X-1280Y5679D02*
Y5745D01*
Y5712D01*
X-1476D01*
X-1444Y5679D01*
Y5843D02*
X-1476Y5876D01*
Y5941D01*
X-1444Y5974D01*
X-1312D01*
X-1280Y5941D01*
Y5876D01*
X-1312Y5843D01*
X-1444D01*
X-2444Y-6134D02*
X-2412Y-6102D01*
Y-6036D01*
X-2444Y-6003D01*
X-2477D01*
X-2510Y-6036D01*
Y-6102D01*
X-2543Y-6134D01*
X-2576D01*
X-2608Y-6102D01*
Y-6036D01*
X-2576Y-6003D01*
X-2608Y-6331D02*
Y-6200D01*
X-2477Y-6331D01*
X-2444D01*
X-2412Y-6298D01*
Y-6233D01*
X-2444Y-6200D01*
Y-6397D02*
X-2412Y-6430D01*
Y-6495D01*
X-2444Y-6528D01*
X-2576D01*
X-2608Y-6495D01*
Y-6430D01*
X-2576Y-6397D01*
X-2444D01*
X2421Y-6476D02*
X2224D01*
Y-6378D01*
X2257Y-6345D01*
X2323D01*
X2356Y-6378D01*
Y-6476D01*
Y-6411D02*
X2421Y-6345D01*
X2257Y-6280D02*
X2224Y-6247D01*
Y-6181D01*
X2257Y-6148D01*
X2290D01*
X2323Y-6181D01*
Y-6214D01*
Y-6181D01*
X2356Y-6148D01*
X2388D01*
X2421Y-6181D01*
Y-6247D01*
X2388Y-6280D01*
X2421Y-6083D02*
Y-6017D01*
Y-6050D01*
X2224D01*
X2257Y-6083D01*
X1545Y-6230D02*
Y-6034D01*
X1644D01*
X1676Y-6066D01*
Y-6132D01*
X1644Y-6165D01*
X1545D01*
X1611D02*
X1676Y-6230D01*
X1742Y-6066D02*
X1775Y-6034D01*
X1840D01*
X1873Y-6066D01*
Y-6099D01*
X1840Y-6132D01*
X1808D01*
X1840D01*
X1873Y-6165D01*
Y-6198D01*
X1840Y-6230D01*
X1775D01*
X1742Y-6198D01*
X1939Y-6066D02*
X1972Y-6034D01*
X2037D01*
X2070Y-6066D01*
Y-6198D01*
X2037Y-6230D01*
X1972D01*
X1939Y-6198D01*
Y-6066D01*
X-531Y3346D02*
Y3543D01*
X-433D01*
X-400Y3510D01*
Y3445D01*
X-433Y3412D01*
X-531D01*
X-466D02*
X-400Y3346D01*
X-204D02*
X-335D01*
X-204Y3478D01*
Y3510D01*
X-236Y3543D01*
X-302D01*
X-335Y3510D01*
X-7Y3543D02*
X-138D01*
Y3445D01*
X-72Y3478D01*
X-40D01*
X-7Y3445D01*
Y3379D01*
X-40Y3346D01*
X-105D01*
X-138Y3379D01*
X1054Y3317D02*
Y3514D01*
X1152D01*
X1185Y3481D01*
Y3415D01*
X1152Y3383D01*
X1054D01*
X1120D02*
X1185Y3317D01*
X1382D02*
X1251D01*
X1382Y3448D01*
Y3481D01*
X1349Y3514D01*
X1284D01*
X1251Y3481D01*
X1546Y3317D02*
Y3514D01*
X1448Y3415D01*
X1579D01*
X-2913Y3406D02*
Y3209D01*
X-3012D01*
X-3045Y3242D01*
Y3307D01*
X-3012Y3340D01*
X-2913D01*
X-2979D02*
X-3045Y3406D01*
X-3110D02*
X-3176D01*
X-3143D01*
Y3209D01*
X-3110Y3242D01*
X-3274Y3406D02*
X-3340D01*
X-3307D01*
Y3209D01*
X-3274Y3242D01*
X-1250Y3327D02*
Y3524D01*
X-1152D01*
X-1119Y3491D01*
Y3425D01*
X-1152Y3392D01*
X-1250D01*
X-1053Y3327D02*
X-988D01*
X-1020D01*
Y3524D01*
X-1053Y3491D01*
X-889Y3327D02*
X-824D01*
X-856D01*
Y3524D01*
X-889Y3491D01*
X-4867Y743D02*
Y940D01*
X-4769D01*
X-4736Y907D01*
Y841D01*
X-4769Y809D01*
X-4867D01*
X-4670Y743D02*
X-4605D01*
X-4637D01*
Y940D01*
X-4670Y907D01*
X-4506D02*
X-4473Y940D01*
X-4408D01*
X-4375Y907D01*
Y776D01*
X-4408Y743D01*
X-4473D01*
X-4506Y776D01*
Y907D01*
X-3899Y920D02*
X-3964D01*
X-3932D01*
Y756D01*
X-3964Y723D01*
X-3997D01*
X-4030Y756D01*
X-3702Y723D02*
X-3833D01*
X-3702Y854D01*
Y887D01*
X-3735Y920D01*
X-3800D01*
X-3833Y887D01*
X-3636D02*
X-3604Y920D01*
X-3538D01*
X-3505Y887D01*
Y756D01*
X-3538Y723D01*
X-3604D01*
X-3636Y756D01*
Y887D01*
X-4869Y7008D02*
X-4934D01*
X-4902D01*
Y6844D01*
X-4934Y6811D01*
X-4967D01*
X-5000Y6844D01*
X-4803Y6811D02*
X-4738D01*
X-4770D01*
Y7008D01*
X-4803Y6975D01*
X-4639D02*
X-4606Y7008D01*
X-4541D01*
X-4508Y6975D01*
Y6844D01*
X-4541Y6811D01*
X-4606D01*
X-4639Y6844D01*
Y6975D01*
X-2362Y3396D02*
Y3199D01*
X-2264D01*
X-2231Y3232D01*
Y3363D01*
X-2264Y3396D01*
X-2362D01*
X-2165Y3199D02*
X-2100D01*
X-2133D01*
Y3396D01*
X-2165Y3363D01*
X-2001D02*
X-1969Y3396D01*
X-1903D01*
X-1870Y3363D01*
Y3232D01*
X-1903Y3199D01*
X-1969D01*
X-2001Y3232D01*
Y3363D01*
X-1760Y-6339D02*
X-1793Y-6306D01*
X-1859D01*
X-1891Y-6339D01*
Y-6470D01*
X-1859Y-6503D01*
X-1793D01*
X-1760Y-6470D01*
X-1563Y-6503D02*
X-1695D01*
X-1563Y-6372D01*
Y-6339D01*
X-1596Y-6306D01*
X-1662D01*
X-1695Y-6339D01*
X-1498Y-6503D02*
X-1432D01*
X-1465D01*
Y-6306D01*
X-1498Y-6339D01*
X-1690Y4445D02*
X-1722Y4478D01*
X-1788D01*
X-1821Y4445D01*
Y4314D01*
X-1788Y4281D01*
X-1722D01*
X-1690Y4314D01*
X-1624Y4281D02*
X-1558D01*
X-1591D01*
Y4478D01*
X-1624Y4445D01*
X-1329Y4478D02*
X-1460D01*
Y4380D01*
X-1394Y4413D01*
X-1362D01*
X-1329Y4380D01*
Y4314D01*
X-1362Y4281D01*
X-1427D01*
X-1460Y4314D01*
X-1020Y5594D02*
X-1053Y5561D01*
Y5495D01*
X-1020Y5463D01*
X-889D01*
X-856Y5495D01*
Y5561D01*
X-889Y5594D01*
X-856Y5659D02*
Y5725D01*
Y5692D01*
X-1053D01*
X-1020Y5659D01*
X-856Y5922D02*
X-1053D01*
X-955Y5823D01*
Y5955D01*
X-3025Y889D02*
X-2992Y856D01*
X-2927D01*
X-2894Y889D01*
Y1020D01*
X-2927Y1053D01*
X-2992D01*
X-3025Y1020D01*
X-3090Y1053D02*
X-3156D01*
X-3123D01*
Y856D01*
X-3090Y889D01*
X-3254D02*
X-3287Y856D01*
X-3353D01*
X-3386Y889D01*
Y922D01*
X-3353Y955D01*
X-3320D01*
X-3353D01*
X-3386Y988D01*
Y1020D01*
X-3353Y1053D01*
X-3287D01*
X-3254Y1020D01*
X-1716Y6116D02*
X-1683Y6083D01*
X-1617D01*
X-1585Y6116D01*
Y6247D01*
X-1617Y6280D01*
X-1683D01*
X-1716Y6247D01*
X-1781Y6280D02*
Y6083D01*
X-1880D01*
X-1913Y6116D01*
Y6181D01*
X-1880Y6214D01*
X-1781D01*
X-1847D02*
X-1913Y6280D01*
X-1978D02*
X-2044D01*
X-2011D01*
Y6083D01*
X-1978Y6116D01*
X-2142D02*
X-2175Y6083D01*
X-2241D01*
X-2273Y6116D01*
Y6247D01*
X-2241Y6280D01*
X-2175D01*
X-2142Y6247D01*
Y6116D01*
X-3196Y6286D02*
X-3228Y6319D01*
X-3294D01*
X-3327Y6286D01*
Y6155D01*
X-3294Y6122D01*
X-3228D01*
X-3196Y6155D01*
X-3130Y6122D02*
Y6319D01*
X-3032D01*
X-2999Y6286D01*
Y6220D01*
X-3032Y6188D01*
X-3130D01*
X-3064D02*
X-2999Y6122D01*
X-2933D02*
X-2868D01*
X-2900D01*
Y6319D01*
X-2933Y6286D01*
X-2769Y6122D02*
X-2704D01*
X-2736D01*
Y6319D01*
X-2769Y6286D01*
X-784Y-5968D02*
X-817Y-5935D01*
X-883D01*
X-915Y-5968D01*
Y-6099D01*
X-883Y-6132D01*
X-817D01*
X-784Y-6099D01*
X-719Y-6132D02*
Y-5935D01*
X-620D01*
X-587Y-5968D01*
Y-6033D01*
X-620Y-6066D01*
X-719D01*
X-653D02*
X-587Y-6132D01*
X-391D02*
X-522D01*
X-391Y-6001D01*
Y-5968D01*
X-423Y-5935D01*
X-489D01*
X-522Y-5968D01*
X-325D02*
X-292Y-5935D01*
X-227D01*
X-194Y-5968D01*
Y-6099D01*
X-227Y-6132D01*
X-292D01*
X-325Y-6099D01*
Y-5968D01*
X486Y-6027D02*
X453Y-5994D01*
X387D01*
X354Y-6027D01*
Y-6158D01*
X387Y-6191D01*
X453D01*
X486Y-6158D01*
X551Y-6191D02*
Y-5994D01*
X650D01*
X682Y-6027D01*
Y-6093D01*
X650Y-6125D01*
X551D01*
X617D02*
X682Y-6191D01*
X879D02*
X748D01*
X879Y-6060D01*
Y-6027D01*
X846Y-5994D01*
X781D01*
X748Y-6027D01*
X945Y-6191D02*
X1010D01*
X977D01*
Y-5994D01*
X945Y-6027D01*
X-3786Y-5328D02*
X-3819Y-5295D01*
X-3885D01*
X-3917Y-5328D01*
Y-5361D01*
X-3885Y-5394D01*
X-3819D01*
X-3786Y-5427D01*
Y-5459D01*
X-3819Y-5492D01*
X-3885D01*
X-3917Y-5459D01*
X-3721Y-5295D02*
Y-5492D01*
X-3655Y-5427D01*
X-3589Y-5492D01*
Y-5295D01*
X-3393Y-5492D02*
X-3524D01*
X-3393Y-5361D01*
Y-5328D01*
X-3425Y-5295D01*
X-3491D01*
X-3524Y-5328D01*
X-3327D02*
X-3294Y-5295D01*
X-3229D01*
X-3196Y-5328D01*
Y-5459D01*
X-3229Y-5492D01*
X-3294D01*
X-3327Y-5459D01*
Y-5328D01*
D64*
X-2796Y2774D02*
D03*
M02*
