M48
;Layer_Color=9474304
;FILE_FORMAT=2:4
INCH,LZ
;TYPE=PLATED
T1F00S00C0.0079
T2F00S00C0.0300
T3F00S00C0.0354
%
T01
X-003957Y-006673
X-00255Y-006453
X-003002Y-004951
X-003711Y-004537
X-004311Y-003425
X-00372Y-002175
X-00372Y-001713
X-00375Y-001358
X-003816Y-000687
X-003804Y-000187
X-003278Y-000049
X-002077Y-000049
X-001742Y-000817
X-001821Y-00124
X-001772Y-002175
X-002667Y-002648
X-002687Y-00312
X-00185Y-004862
X-000915Y-004872
X000059Y-004478
X000512Y-004852
X000984Y-004862
X001447Y-004862
X001161Y-004341
X001171Y-003543
X002283Y-003533
X002333Y-004016
X002963Y-004665
X002283Y-005433
X002293Y-006014
X000374Y-006171
X000039Y-005945
X-000207Y-006171
X002343Y-001634
X002343Y-001181
X002313Y-000719
X002067Y-000504
X001368Y-000335
X001004Y-000226
X-00498Y-000935
X-004902Y-001535
X-004144Y000876
X-004075Y001644
X-00435Y003671
X-003022Y005226
X-002313Y005226
X-00188Y004587
X-001614Y004291
X-000551Y004606
X-000551Y005128
X-000955Y005531
X-000797Y005866
X-001024Y006919
X-000531Y006919
X-001526Y006909
X-001388Y006575
X-002411Y006575
X-002766Y00688
X-003937Y006791
X-004843Y0069
X-004636Y009813
X-003967Y011378
X-00252Y011299
X-002028Y011299
X-001526Y011299
X-001024Y011299
X-000525Y011299
X-00002Y011299
X000482Y011289
X000984Y011299
X001476Y011289
X002697Y011526
X001821Y009931
X000845Y009715
X-00003Y009567
X-00122Y010325
X-002028Y009596
X000472Y007697
X000069Y006506
X001289Y006594
X001309Y006171
X002303Y006181
X002963Y006181
X002992Y005128
X002992Y003848
X002785Y003652
X001585Y003406
X001053Y003465
X00062Y00311
X000325Y003071
X-000108Y00311
X00063Y004606
X001614Y004281
X002087Y002146
X0025Y001555
X00251Y001083
X-001004Y001171
X002028Y006919
T02
X-00128Y002677
T03
X-004567Y001693
X-004567Y002693
X-00128Y001677
M30
