G04 Layer_Color=32896*
%FSLAX24Y24*%
%MOIN*%
G70*
G01*
G75*
%ADD56C,0.0079*%
%ADD57C,0.0060*%
%ADD62C,0.0039*%
%ADD98R,0.0700X0.4490*%
G36*
X1202Y21094D02*
X1183D01*
Y21301D01*
X1202D01*
Y21094D01*
D02*
G37*
G36*
X1312Y21072D02*
X1319Y21071D01*
X1325Y21070D01*
X1330Y21069D01*
X1334Y21067D01*
X1337Y21066D01*
X1338Y21065D01*
X1339Y21065D01*
X1344Y21062D01*
X1349Y21059D01*
X1352Y21056D01*
X1356Y21053D01*
X1358Y21050D01*
X1360Y21047D01*
X1361Y21046D01*
X1362Y21045D01*
X1365Y21040D01*
X1367Y21036D01*
X1369Y21031D01*
X1371Y21027D01*
X1372Y21024D01*
X1373Y21021D01*
X1373Y21019D01*
Y21019D01*
X1374Y21013D01*
X1375Y21007D01*
X1376Y21002D01*
X1376Y20997D01*
X1377Y20992D01*
Y20989D01*
Y20987D01*
Y20986D01*
Y20986D01*
Y20986D01*
Y20981D01*
Y20977D01*
X1376Y20975D01*
Y20974D01*
Y20973D01*
Y20973D01*
X1376Y20968D01*
X1376Y20963D01*
Y20962D01*
X1375Y20960D01*
Y20960D01*
Y20959D01*
X1438D01*
Y21071D01*
X1465D01*
Y20929D01*
X1344D01*
X1346Y20936D01*
X1346Y20940D01*
X1347Y20943D01*
X1347Y20947D01*
X1348Y20949D01*
X1348Y20950D01*
Y20951D01*
X1349Y20961D01*
X1350Y20965D01*
Y20970D01*
X1350Y20973D01*
Y20976D01*
Y20977D01*
Y20978D01*
Y20983D01*
X1350Y20988D01*
X1349Y20992D01*
X1349Y20996D01*
X1348Y21000D01*
X1348Y21002D01*
X1348Y21004D01*
Y21004D01*
X1346Y21008D01*
X1345Y21012D01*
X1344Y21016D01*
X1342Y21019D01*
X1341Y21021D01*
X1340Y21023D01*
X1340Y21024D01*
X1339Y21024D01*
X1335Y21029D01*
X1330Y21033D01*
X1329Y21034D01*
X1327Y21035D01*
X1326Y21036D01*
X1326D01*
X1322Y21037D01*
X1319Y21038D01*
X1315Y21039D01*
X1312Y21040D01*
X1309D01*
X1307Y21040D01*
X1301D01*
X1296Y21039D01*
X1293Y21039D01*
X1289Y21038D01*
X1287Y21038D01*
X1285Y21037D01*
X1283Y21037D01*
X1283D01*
X1277Y21033D01*
X1274Y21031D01*
X1271Y21030D01*
X1270Y21028D01*
X1268Y21027D01*
X1267Y21026D01*
X1267Y21026D01*
X1264Y21023D01*
X1262Y21019D01*
X1260Y21016D01*
X1258Y21013D01*
X1257Y21011D01*
X1257Y21009D01*
X1256Y21007D01*
Y21007D01*
X1254Y20999D01*
X1254Y20996D01*
X1253Y20992D01*
X1253Y20990D01*
Y20987D01*
Y20986D01*
Y20986D01*
X1253Y20979D01*
X1254Y20973D01*
X1255Y20967D01*
X1256Y20962D01*
X1257Y20958D01*
X1258Y20954D01*
X1258Y20952D01*
X1258Y20952D01*
Y20951D01*
X1261Y20945D01*
X1263Y20939D01*
X1265Y20934D01*
X1268Y20930D01*
X1270Y20926D01*
X1271Y20923D01*
X1272Y20922D01*
X1273Y20921D01*
Y20919D01*
X1239D01*
X1237Y20924D01*
X1235Y20929D01*
X1234Y20933D01*
X1232Y20938D01*
X1231Y20943D01*
X1230Y20946D01*
X1230Y20948D01*
X1230Y20948D01*
Y20949D01*
X1228Y20955D01*
X1227Y20962D01*
X1227Y20968D01*
X1226Y20974D01*
Y20979D01*
X1226Y20983D01*
Y20984D01*
Y20985D01*
Y20986D01*
Y20986D01*
X1226Y20994D01*
X1227Y21000D01*
X1227Y21007D01*
X1229Y21012D01*
X1230Y21016D01*
X1231Y21019D01*
X1231Y21022D01*
X1231Y21022D01*
X1234Y21028D01*
X1236Y21033D01*
X1239Y21038D01*
X1242Y21042D01*
X1245Y21045D01*
X1246Y21048D01*
X1248Y21049D01*
X1248Y21050D01*
X1252Y21053D01*
X1257Y21057D01*
X1261Y21059D01*
X1265Y21062D01*
X1269Y21063D01*
X1271Y21065D01*
X1273Y21066D01*
X1274Y21066D01*
X1279Y21068D01*
X1285Y21070D01*
X1290Y21071D01*
X1295Y21071D01*
X1299Y21072D01*
X1302Y21072D01*
X1305D01*
X1312Y21072D01*
D02*
G37*
G36*
X1333Y21438D02*
X1337Y21446D01*
X1341Y21453D01*
X1345Y21459D01*
X1349Y21465D01*
X1353Y21469D01*
X1356Y21471D01*
X1358Y21473D01*
X1358Y21474D01*
X1359D01*
X1366Y21478D01*
X1373Y21481D01*
X1380Y21483D01*
X1386Y21485D01*
X1392Y21486D01*
X1395Y21486D01*
X1397D01*
X1399Y21487D01*
X1401D01*
X1408Y21486D01*
X1414Y21486D01*
X1419Y21485D01*
X1424Y21483D01*
X1428Y21482D01*
X1430Y21481D01*
X1432Y21480D01*
X1432Y21479D01*
X1437Y21477D01*
X1441Y21473D01*
X1444Y21470D01*
X1447Y21467D01*
X1449Y21464D01*
X1451Y21462D01*
X1452Y21460D01*
X1453Y21459D01*
X1455Y21455D01*
X1457Y21451D01*
X1459Y21446D01*
X1460Y21442D01*
X1461Y21439D01*
X1462Y21436D01*
X1463Y21434D01*
Y21434D01*
X1464Y21428D01*
X1464Y21422D01*
X1465Y21416D01*
X1465Y21411D01*
X1465Y21406D01*
Y21402D01*
Y21400D01*
Y21399D01*
Y21399D01*
Y21398D01*
Y21332D01*
X1230D01*
Y21364D01*
X1324D01*
Y21407D01*
X1230Y21486D01*
Y21527D01*
X1333Y21438D01*
D02*
G37*
G36*
X1879Y19872D02*
X1854D01*
Y19922D01*
X1712D01*
X1708Y19922D01*
X1704D01*
X1702Y19922D01*
X1699Y19921D01*
X1697D01*
X1696Y19921D01*
X1695D01*
X1689Y19919D01*
X1687Y19919D01*
X1684Y19918D01*
X1683Y19917D01*
X1681Y19916D01*
X1680Y19916D01*
X1680Y19915D01*
X1678Y19914D01*
X1676Y19912D01*
X1673Y19907D01*
X1672Y19905D01*
X1671Y19904D01*
X1671Y19903D01*
Y19903D01*
X1670Y19899D01*
X1669Y19895D01*
X1668Y19892D01*
X1668Y19888D01*
Y19885D01*
X1667Y19882D01*
Y19880D01*
Y19880D01*
X1668Y19872D01*
X1668Y19869D01*
X1668Y19866D01*
X1669Y19864D01*
X1669Y19862D01*
X1670Y19860D01*
Y19860D01*
X1671Y19853D01*
X1672Y19851D01*
X1673Y19848D01*
X1674Y19847D01*
X1674Y19845D01*
X1674Y19844D01*
Y19844D01*
Y19843D01*
X1645D01*
X1644Y19846D01*
X1644Y19849D01*
X1643Y19853D01*
X1643Y19856D01*
X1643Y19859D01*
X1642Y19861D01*
X1642Y19863D01*
Y19863D01*
X1642Y19868D01*
X1641Y19872D01*
X1641Y19875D01*
Y19878D01*
X1640Y19881D01*
Y19882D01*
Y19883D01*
Y19884D01*
X1641Y19889D01*
X1641Y19895D01*
X1643Y19905D01*
X1646Y19914D01*
X1647Y19918D01*
X1649Y19921D01*
X1650Y19924D01*
X1652Y19927D01*
X1653Y19929D01*
X1654Y19931D01*
X1655Y19933D01*
X1656Y19934D01*
X1657Y19934D01*
Y19935D01*
X1660Y19938D01*
X1664Y19941D01*
X1667Y19943D01*
X1671Y19946D01*
X1679Y19949D01*
X1687Y19951D01*
X1694Y19952D01*
X1697Y19953D01*
X1699Y19953D01*
X1702Y19954D01*
X1879D01*
Y19872D01*
D02*
G37*
G36*
X1465Y21657D02*
Y21615D01*
X1230Y21530D01*
Y21561D01*
X1296Y21584D01*
Y21687D01*
X1230Y21710D01*
Y21743D01*
X1465Y21657D01*
D02*
G37*
G36*
Y20223D02*
X1316D01*
X1311Y20223D01*
X1306Y20222D01*
X1302Y20222D01*
X1298Y20221D01*
X1296Y20220D01*
X1294Y20220D01*
X1294D01*
X1289Y20219D01*
X1286Y20217D01*
X1282Y20216D01*
X1279Y20215D01*
X1277Y20213D01*
X1274Y20212D01*
X1273Y20212D01*
X1273Y20211D01*
X1269Y20208D01*
X1266Y20205D01*
X1263Y20202D01*
X1262Y20199D01*
X1260Y20196D01*
X1259Y20194D01*
X1258Y20193D01*
X1258Y20192D01*
X1256Y20188D01*
X1255Y20183D01*
X1254Y20178D01*
X1253Y20173D01*
X1253Y20169D01*
X1253Y20167D01*
Y20164D01*
Y20164D01*
Y20164D01*
X1253Y20157D01*
X1253Y20152D01*
X1254Y20147D01*
X1255Y20143D01*
X1256Y20140D01*
X1257Y20137D01*
X1257Y20136D01*
X1258Y20135D01*
X1260Y20131D01*
X1262Y20127D01*
X1265Y20124D01*
X1267Y20121D01*
X1269Y20119D01*
X1271Y20117D01*
X1273Y20116D01*
X1273Y20116D01*
X1280Y20112D01*
X1283Y20110D01*
X1286Y20109D01*
X1289Y20108D01*
X1291Y20108D01*
X1293Y20107D01*
X1293D01*
X1297Y20106D01*
X1302Y20106D01*
X1307Y20105D01*
X1312Y20105D01*
X1317Y20105D01*
X1465D01*
Y20073D01*
X1325D01*
X1315Y20074D01*
X1306Y20074D01*
X1299Y20075D01*
X1292Y20076D01*
X1287Y20077D01*
X1285Y20078D01*
X1283Y20078D01*
X1281Y20078D01*
X1280D01*
X1280Y20079D01*
X1279D01*
X1273Y20081D01*
X1267Y20084D01*
X1262Y20087D01*
X1257Y20090D01*
X1254Y20093D01*
X1251Y20095D01*
X1249Y20097D01*
X1249Y20097D01*
X1245Y20102D01*
X1241Y20106D01*
X1238Y20111D01*
X1236Y20115D01*
X1234Y20119D01*
X1233Y20122D01*
X1232Y20124D01*
X1231Y20125D01*
X1230Y20131D01*
X1228Y20138D01*
X1227Y20144D01*
X1226Y20151D01*
X1226Y20156D01*
X1226Y20160D01*
Y20161D01*
Y20163D01*
Y20163D01*
Y20164D01*
X1226Y20171D01*
X1226Y20179D01*
X1227Y20185D01*
X1229Y20191D01*
X1229Y20195D01*
X1230Y20199D01*
X1231Y20201D01*
X1231Y20201D01*
X1233Y20207D01*
X1236Y20213D01*
X1239Y20217D01*
X1242Y20222D01*
X1245Y20225D01*
X1247Y20228D01*
X1248Y20230D01*
X1249Y20230D01*
X1253Y20235D01*
X1259Y20238D01*
X1264Y20242D01*
X1269Y20244D01*
X1273Y20246D01*
X1277Y20247D01*
X1278Y20248D01*
X1279Y20248D01*
X1279Y20248D01*
X1280D01*
X1287Y20250D01*
X1295Y20252D01*
X1302Y20253D01*
X1309Y20254D01*
X1315Y20254D01*
X1318Y20254D01*
X1465D01*
Y20223D01*
D02*
G37*
G36*
X1401Y20036D02*
X1408Y20035D01*
X1414Y20033D01*
X1419Y20032D01*
X1423Y20031D01*
X1426Y20029D01*
X1427Y20029D01*
X1428Y20028D01*
X1433Y20025D01*
X1437Y20022D01*
X1441Y20018D01*
X1444Y20015D01*
X1447Y20012D01*
X1449Y20010D01*
X1450Y20008D01*
X1451Y20007D01*
X1453Y20003D01*
X1456Y19999D01*
X1457Y19994D01*
X1459Y19990D01*
X1460Y19987D01*
X1461Y19984D01*
X1462Y19982D01*
Y19981D01*
X1463Y19975D01*
X1464Y19970D01*
X1465Y19963D01*
X1465Y19958D01*
X1465Y19953D01*
Y19949D01*
Y19948D01*
Y19947D01*
Y19946D01*
Y19946D01*
Y19882D01*
X1230D01*
Y19913D01*
X1318D01*
Y19944D01*
X1318Y19953D01*
X1319Y19962D01*
X1320Y19969D01*
X1321Y19975D01*
X1322Y19979D01*
X1323Y19983D01*
X1323Y19985D01*
X1324Y19986D01*
X1326Y19992D01*
X1329Y19998D01*
X1332Y20003D01*
X1335Y20007D01*
X1338Y20010D01*
X1340Y20013D01*
X1342Y20014D01*
X1342Y20015D01*
X1346Y20019D01*
X1350Y20022D01*
X1354Y20024D01*
X1357Y20026D01*
X1360Y20028D01*
X1363Y20029D01*
X1364Y20030D01*
X1365Y20030D01*
X1370Y20032D01*
X1375Y20034D01*
X1380Y20034D01*
X1385Y20035D01*
X1388Y20036D01*
X1392Y20036D01*
X1394D01*
X1401Y20036D01*
D02*
G37*
G36*
X1258Y20345D02*
X1465D01*
Y20314D01*
X1230D01*
Y20463D01*
X1258D01*
Y20345D01*
D02*
G37*
G36*
X1465Y20853D02*
X1258Y20780D01*
X1465Y20705D01*
Y20672D01*
X1230Y20758D01*
Y20800D01*
X1465Y20885D01*
Y20853D01*
D02*
G37*
G36*
X1202Y20462D02*
X1183D01*
Y20669D01*
X1202D01*
Y20462D01*
D02*
G37*
G36*
X1879Y20160D02*
X1730D01*
X1724Y20160D01*
X1719Y20160D01*
X1715Y20159D01*
X1712Y20158D01*
X1709Y20158D01*
X1707Y20157D01*
X1707D01*
X1703Y20156D01*
X1699Y20155D01*
X1695Y20153D01*
X1692Y20152D01*
X1690Y20151D01*
X1688Y20150D01*
X1687Y20149D01*
X1686Y20149D01*
X1683Y20146D01*
X1680Y20143D01*
X1677Y20140D01*
X1675Y20137D01*
X1673Y20134D01*
X1672Y20132D01*
X1671Y20130D01*
X1671Y20130D01*
X1669Y20125D01*
X1668Y20120D01*
X1667Y20116D01*
X1667Y20111D01*
X1666Y20107D01*
X1666Y20104D01*
Y20102D01*
Y20101D01*
Y20101D01*
X1666Y20095D01*
X1667Y20089D01*
X1667Y20085D01*
X1668Y20080D01*
X1670Y20077D01*
X1670Y20074D01*
X1671Y20073D01*
X1671Y20072D01*
X1673Y20068D01*
X1676Y20064D01*
X1678Y20061D01*
X1680Y20058D01*
X1683Y20056D01*
X1684Y20055D01*
X1686Y20054D01*
X1686Y20053D01*
X1693Y20049D01*
X1696Y20048D01*
X1700Y20047D01*
X1702Y20046D01*
X1704Y20045D01*
X1706Y20045D01*
X1706D01*
X1711Y20044D01*
X1716Y20043D01*
X1721Y20043D01*
X1726Y20042D01*
X1730Y20042D01*
X1879D01*
Y20011D01*
X1738D01*
X1729Y20011D01*
X1720Y20011D01*
X1712Y20013D01*
X1706Y20014D01*
X1700Y20014D01*
X1698Y20015D01*
X1696Y20015D01*
X1695Y20016D01*
X1694D01*
X1693Y20016D01*
X1693D01*
X1686Y20019D01*
X1680Y20021D01*
X1675Y20025D01*
X1671Y20027D01*
X1667Y20030D01*
X1664Y20033D01*
X1663Y20034D01*
X1662Y20035D01*
X1658Y20039D01*
X1655Y20043D01*
X1652Y20048D01*
X1649Y20053D01*
X1647Y20056D01*
X1646Y20059D01*
X1645Y20061D01*
X1645Y20062D01*
X1643Y20069D01*
X1642Y20075D01*
X1640Y20082D01*
X1640Y20088D01*
X1639Y20093D01*
X1639Y20097D01*
Y20099D01*
Y20100D01*
Y20101D01*
Y20101D01*
X1639Y20109D01*
X1640Y20116D01*
X1641Y20122D01*
X1642Y20128D01*
X1643Y20133D01*
X1644Y20136D01*
X1644Y20138D01*
X1644Y20139D01*
X1647Y20145D01*
X1650Y20150D01*
X1652Y20155D01*
X1655Y20159D01*
X1658Y20162D01*
X1660Y20165D01*
X1662Y20167D01*
X1662Y20167D01*
X1667Y20172D01*
X1672Y20176D01*
X1677Y20179D01*
X1682Y20181D01*
X1687Y20183D01*
X1690Y20185D01*
X1691Y20185D01*
X1692Y20185D01*
X1693Y20186D01*
X1693D01*
X1701Y20188D01*
X1708Y20189D01*
X1716Y20190D01*
X1723Y20191D01*
X1729Y20191D01*
X1731Y20192D01*
X1879D01*
Y20160D01*
D02*
G37*
G36*
X1773Y21356D02*
X1783Y21356D01*
X1793Y21355D01*
X1802Y21353D01*
X1810Y21352D01*
X1817Y21350D01*
X1824Y21348D01*
X1830Y21347D01*
X1836Y21345D01*
X1840Y21343D01*
X1844Y21341D01*
X1847Y21340D01*
X1850Y21339D01*
X1852Y21337D01*
X1853Y21337D01*
X1853Y21337D01*
X1858Y21333D01*
X1863Y21328D01*
X1867Y21324D01*
X1871Y21319D01*
X1874Y21314D01*
X1876Y21309D01*
X1878Y21303D01*
X1880Y21299D01*
X1881Y21294D01*
X1882Y21289D01*
X1882Y21285D01*
X1883Y21282D01*
Y21279D01*
X1884Y21277D01*
Y21275D01*
Y21275D01*
X1883Y21267D01*
X1882Y21260D01*
X1881Y21254D01*
X1879Y21248D01*
X1877Y21242D01*
X1874Y21237D01*
X1871Y21233D01*
X1869Y21228D01*
X1866Y21225D01*
X1863Y21222D01*
X1860Y21219D01*
X1858Y21217D01*
X1856Y21216D01*
X1855Y21214D01*
X1854Y21214D01*
X1853Y21213D01*
X1848Y21210D01*
X1841Y21207D01*
X1834Y21204D01*
X1826Y21202D01*
X1811Y21198D01*
X1796Y21196D01*
X1789Y21196D01*
X1782Y21195D01*
X1776Y21194D01*
X1771Y21194D01*
X1767Y21194D01*
X1761D01*
X1750Y21194D01*
X1739Y21194D01*
X1729Y21196D01*
X1720Y21197D01*
X1712Y21198D01*
X1704Y21200D01*
X1698Y21202D01*
X1691Y21204D01*
X1686Y21205D01*
X1682Y21207D01*
X1678Y21209D01*
X1675Y21210D01*
X1672Y21211D01*
X1670Y21212D01*
X1669Y21213D01*
X1669Y21213D01*
X1664Y21217D01*
X1659Y21221D01*
X1655Y21226D01*
X1652Y21231D01*
X1649Y21236D01*
X1646Y21241D01*
X1644Y21246D01*
X1643Y21251D01*
X1642Y21256D01*
X1640Y21260D01*
X1640Y21264D01*
X1639Y21268D01*
Y21271D01*
X1639Y21273D01*
Y21274D01*
Y21275D01*
X1639Y21282D01*
X1640Y21289D01*
X1642Y21296D01*
X1644Y21302D01*
X1646Y21308D01*
X1648Y21313D01*
X1651Y21317D01*
X1654Y21321D01*
X1656Y21325D01*
X1659Y21328D01*
X1662Y21331D01*
X1664Y21333D01*
X1666Y21334D01*
X1667Y21335D01*
X1668Y21336D01*
X1668Y21336D01*
X1674Y21340D01*
X1681Y21343D01*
X1688Y21346D01*
X1695Y21348D01*
X1711Y21352D01*
X1726Y21354D01*
X1733Y21355D01*
X1740Y21355D01*
X1746Y21356D01*
X1751Y21356D01*
X1755Y21356D01*
X1761D01*
X1773Y21356D01*
D02*
G37*
G36*
X1671Y21024D02*
X1681Y21036D01*
X1686Y21042D01*
X1690Y21047D01*
X1694Y21051D01*
X1697Y21055D01*
X1699Y21057D01*
X1699Y21058D01*
Y21058D01*
X1705Y21065D01*
X1711Y21071D01*
X1717Y21077D01*
X1722Y21082D01*
X1726Y21087D01*
X1729Y21090D01*
X1731Y21092D01*
X1732Y21093D01*
X1736Y21097D01*
X1740Y21101D01*
X1743Y21104D01*
X1746Y21107D01*
X1749Y21110D01*
X1751Y21111D01*
X1752Y21113D01*
X1753Y21113D01*
X1759Y21119D01*
X1763Y21121D01*
X1766Y21123D01*
X1768Y21125D01*
X1770Y21126D01*
X1771Y21127D01*
X1772Y21127D01*
X1780Y21132D01*
X1783Y21133D01*
X1787Y21135D01*
X1790Y21136D01*
X1792Y21137D01*
X1793Y21137D01*
X1794D01*
X1802Y21139D01*
X1807Y21140D01*
X1811Y21141D01*
X1814Y21141D01*
X1819D01*
X1824Y21141D01*
X1829Y21140D01*
X1834Y21139D01*
X1839Y21138D01*
X1847Y21134D01*
X1854Y21131D01*
X1857Y21129D01*
X1859Y21127D01*
X1861Y21125D01*
X1863Y21123D01*
X1864Y21122D01*
X1865Y21121D01*
X1866Y21121D01*
X1866Y21120D01*
X1869Y21116D01*
X1872Y21112D01*
X1876Y21103D01*
X1879Y21093D01*
X1881Y21084D01*
X1882Y21080D01*
X1883Y21076D01*
X1883Y21073D01*
Y21070D01*
X1884Y21067D01*
Y21065D01*
Y21064D01*
Y21064D01*
X1883Y21057D01*
X1883Y21051D01*
X1882Y21044D01*
X1881Y21039D01*
X1880Y21034D01*
X1880Y21031D01*
X1879Y21029D01*
Y21028D01*
X1879Y21028D01*
Y21027D01*
X1877Y21021D01*
X1875Y21015D01*
X1873Y21010D01*
X1872Y21005D01*
X1870Y21002D01*
X1870Y21000D01*
X1869Y20998D01*
X1869Y20998D01*
X1836D01*
Y20999D01*
X1839Y21005D01*
X1842Y21011D01*
X1845Y21017D01*
X1847Y21022D01*
X1849Y21026D01*
X1850Y21029D01*
X1850Y21031D01*
X1851Y21032D01*
X1853Y21038D01*
X1854Y21044D01*
X1855Y21049D01*
X1856Y21054D01*
X1856Y21058D01*
X1856Y21060D01*
Y21062D01*
Y21063D01*
X1856Y21071D01*
X1855Y21077D01*
X1853Y21083D01*
X1851Y21088D01*
X1849Y21091D01*
X1848Y21094D01*
X1846Y21096D01*
X1846Y21096D01*
X1842Y21100D01*
X1837Y21104D01*
X1832Y21106D01*
X1828Y21107D01*
X1824Y21108D01*
X1820Y21109D01*
X1817D01*
X1810Y21109D01*
X1803Y21107D01*
X1797Y21105D01*
X1791Y21103D01*
X1786Y21101D01*
X1783Y21099D01*
X1782Y21099D01*
X1781Y21098D01*
X1780Y21098D01*
X1780D01*
X1777Y21095D01*
X1773Y21092D01*
X1765Y21086D01*
X1758Y21079D01*
X1750Y21072D01*
X1743Y21066D01*
X1741Y21063D01*
X1738Y21061D01*
X1736Y21059D01*
X1735Y21058D01*
X1734Y21056D01*
X1733Y21056D01*
X1723Y21045D01*
X1718Y21040D01*
X1714Y21035D01*
X1710Y21031D01*
X1708Y21028D01*
X1706Y21026D01*
X1705Y21025D01*
Y21025D01*
X1700Y21019D01*
X1695Y21013D01*
X1690Y21007D01*
X1686Y21002D01*
X1682Y20998D01*
X1679Y20995D01*
X1678Y20993D01*
X1677Y20992D01*
Y20992D01*
X1644D01*
Y21151D01*
X1671D01*
Y21024D01*
D02*
G37*
G36*
X1773Y21767D02*
X1783Y21767D01*
X1793Y21766D01*
X1802Y21765D01*
X1810Y21763D01*
X1817Y21762D01*
X1824Y21760D01*
X1830Y21758D01*
X1836Y21756D01*
X1840Y21754D01*
X1844Y21753D01*
X1847Y21751D01*
X1850Y21750D01*
X1852Y21749D01*
X1853Y21748D01*
X1853Y21748D01*
X1858Y21744D01*
X1863Y21740D01*
X1867Y21735D01*
X1871Y21730D01*
X1874Y21725D01*
X1876Y21720D01*
X1878Y21715D01*
X1880Y21710D01*
X1881Y21705D01*
X1882Y21701D01*
X1882Y21697D01*
X1883Y21693D01*
Y21690D01*
X1884Y21688D01*
Y21687D01*
Y21686D01*
X1883Y21679D01*
X1882Y21672D01*
X1881Y21665D01*
X1879Y21659D01*
X1877Y21653D01*
X1874Y21648D01*
X1871Y21644D01*
X1869Y21640D01*
X1866Y21636D01*
X1863Y21633D01*
X1860Y21630D01*
X1858Y21628D01*
X1856Y21627D01*
X1855Y21626D01*
X1854Y21625D01*
X1853Y21625D01*
X1848Y21621D01*
X1841Y21618D01*
X1834Y21616D01*
X1826Y21613D01*
X1811Y21610D01*
X1796Y21608D01*
X1789Y21607D01*
X1782Y21606D01*
X1776Y21606D01*
X1771Y21605D01*
X1767Y21605D01*
X1761D01*
X1750Y21605D01*
X1739Y21606D01*
X1729Y21607D01*
X1720Y21608D01*
X1712Y21609D01*
X1704Y21611D01*
X1698Y21613D01*
X1691Y21615D01*
X1686Y21616D01*
X1682Y21618D01*
X1678Y21620D01*
X1675Y21621D01*
X1672Y21622D01*
X1670Y21624D01*
X1669Y21624D01*
X1669Y21624D01*
X1664Y21628D01*
X1659Y21633D01*
X1655Y21637D01*
X1652Y21642D01*
X1649Y21647D01*
X1646Y21653D01*
X1644Y21658D01*
X1643Y21663D01*
X1642Y21667D01*
X1640Y21672D01*
X1640Y21676D01*
X1639Y21679D01*
Y21682D01*
X1639Y21684D01*
Y21686D01*
Y21686D01*
X1639Y21694D01*
X1640Y21701D01*
X1642Y21707D01*
X1644Y21713D01*
X1646Y21719D01*
X1648Y21724D01*
X1651Y21729D01*
X1654Y21733D01*
X1656Y21736D01*
X1659Y21739D01*
X1662Y21742D01*
X1664Y21744D01*
X1666Y21746D01*
X1667Y21747D01*
X1668Y21747D01*
X1668Y21748D01*
X1674Y21751D01*
X1681Y21754D01*
X1688Y21757D01*
X1695Y21759D01*
X1711Y21763D01*
X1726Y21765D01*
X1733Y21766D01*
X1740Y21767D01*
X1746Y21767D01*
X1751Y21767D01*
X1755Y21768D01*
X1761D01*
X1773Y21767D01*
D02*
G37*
G36*
X1671Y21436D02*
X1681Y21448D01*
X1686Y21453D01*
X1690Y21458D01*
X1694Y21463D01*
X1697Y21466D01*
X1699Y21469D01*
X1699Y21469D01*
Y21469D01*
X1705Y21476D01*
X1711Y21482D01*
X1717Y21488D01*
X1722Y21494D01*
X1726Y21498D01*
X1729Y21501D01*
X1731Y21503D01*
X1732Y21504D01*
X1736Y21509D01*
X1740Y21512D01*
X1743Y21515D01*
X1746Y21519D01*
X1749Y21521D01*
X1751Y21523D01*
X1752Y21524D01*
X1753Y21524D01*
X1759Y21530D01*
X1763Y21533D01*
X1766Y21535D01*
X1768Y21536D01*
X1770Y21538D01*
X1771Y21538D01*
X1772Y21539D01*
X1780Y21543D01*
X1783Y21545D01*
X1787Y21546D01*
X1790Y21547D01*
X1792Y21548D01*
X1793Y21549D01*
X1794D01*
X1802Y21551D01*
X1807Y21551D01*
X1811Y21552D01*
X1814Y21552D01*
X1819D01*
X1824Y21552D01*
X1829Y21551D01*
X1834Y21550D01*
X1839Y21549D01*
X1847Y21546D01*
X1854Y21542D01*
X1857Y21540D01*
X1859Y21538D01*
X1861Y21536D01*
X1863Y21535D01*
X1864Y21533D01*
X1865Y21532D01*
X1866Y21532D01*
X1866Y21531D01*
X1869Y21527D01*
X1872Y21523D01*
X1876Y21514D01*
X1879Y21505D01*
X1881Y21496D01*
X1882Y21491D01*
X1883Y21487D01*
X1883Y21484D01*
Y21481D01*
X1884Y21479D01*
Y21477D01*
Y21475D01*
Y21475D01*
X1883Y21469D01*
X1883Y21462D01*
X1882Y21456D01*
X1881Y21450D01*
X1880Y21446D01*
X1880Y21442D01*
X1879Y21440D01*
Y21439D01*
X1879Y21439D01*
Y21439D01*
X1877Y21432D01*
X1875Y21426D01*
X1873Y21421D01*
X1872Y21417D01*
X1870Y21414D01*
X1870Y21411D01*
X1869Y21410D01*
X1869Y21409D01*
X1836D01*
Y21411D01*
X1839Y21416D01*
X1842Y21423D01*
X1845Y21428D01*
X1847Y21433D01*
X1849Y21437D01*
X1850Y21440D01*
X1850Y21442D01*
X1851Y21443D01*
X1853Y21449D01*
X1854Y21455D01*
X1855Y21460D01*
X1856Y21465D01*
X1856Y21469D01*
X1856Y21472D01*
Y21474D01*
Y21474D01*
X1856Y21482D01*
X1855Y21489D01*
X1853Y21494D01*
X1851Y21499D01*
X1849Y21503D01*
X1848Y21506D01*
X1846Y21507D01*
X1846Y21508D01*
X1842Y21512D01*
X1837Y21515D01*
X1832Y21517D01*
X1828Y21519D01*
X1824Y21519D01*
X1820Y21520D01*
X1817D01*
X1810Y21520D01*
X1803Y21518D01*
X1797Y21517D01*
X1791Y21515D01*
X1786Y21513D01*
X1783Y21511D01*
X1782Y21510D01*
X1781Y21509D01*
X1780Y21509D01*
X1780D01*
X1777Y21507D01*
X1773Y21504D01*
X1765Y21498D01*
X1758Y21491D01*
X1750Y21484D01*
X1743Y21478D01*
X1741Y21475D01*
X1738Y21472D01*
X1736Y21470D01*
X1735Y21469D01*
X1734Y21468D01*
X1733Y21467D01*
X1723Y21456D01*
X1718Y21451D01*
X1714Y21446D01*
X1710Y21442D01*
X1708Y21439D01*
X1706Y21437D01*
X1705Y21436D01*
Y21436D01*
X1700Y21430D01*
X1695Y21424D01*
X1690Y21419D01*
X1686Y21414D01*
X1682Y21410D01*
X1679Y21406D01*
X1678Y21404D01*
X1677Y21404D01*
Y21403D01*
X1644D01*
Y21562D01*
X1671D01*
Y21436D01*
D02*
G37*
G36*
X1771Y20834D02*
X1781Y20834D01*
X1790Y20832D01*
X1798Y20831D01*
X1801Y20830D01*
X1804Y20829D01*
X1807Y20829D01*
X1809Y20828D01*
X1811Y20828D01*
X1812Y20827D01*
X1813Y20827D01*
X1813D01*
X1821Y20824D01*
X1829Y20820D01*
X1835Y20817D01*
X1841Y20813D01*
X1845Y20810D01*
X1849Y20807D01*
X1851Y20806D01*
X1852Y20805D01*
X1857Y20799D01*
X1862Y20794D01*
X1866Y20788D01*
X1869Y20782D01*
X1872Y20778D01*
X1874Y20774D01*
X1874Y20772D01*
X1875Y20771D01*
X1875Y20771D01*
Y20770D01*
X1878Y20763D01*
X1880Y20755D01*
X1881Y20747D01*
X1882Y20740D01*
X1883Y20734D01*
Y20732D01*
X1884Y20730D01*
Y20728D01*
Y20726D01*
Y20726D01*
Y20725D01*
X1883Y20716D01*
X1882Y20708D01*
X1881Y20700D01*
X1880Y20694D01*
X1878Y20688D01*
X1877Y20686D01*
X1877Y20684D01*
X1876Y20682D01*
X1876Y20681D01*
X1875Y20680D01*
Y20680D01*
X1872Y20673D01*
X1868Y20666D01*
X1864Y20660D01*
X1860Y20655D01*
X1857Y20651D01*
X1854Y20648D01*
X1852Y20646D01*
X1852Y20645D01*
X1845Y20640D01*
X1838Y20636D01*
X1832Y20632D01*
X1826Y20629D01*
X1820Y20627D01*
X1818Y20625D01*
X1816Y20625D01*
X1814Y20624D01*
X1813Y20624D01*
X1813Y20623D01*
X1812D01*
X1804Y20621D01*
X1795Y20619D01*
X1786Y20618D01*
X1778Y20617D01*
X1774Y20617D01*
X1771Y20616D01*
X1768D01*
X1766Y20616D01*
X1761D01*
X1750Y20616D01*
X1741Y20617D01*
X1732Y20619D01*
X1724Y20620D01*
X1720Y20620D01*
X1718Y20621D01*
X1715Y20622D01*
X1713Y20623D01*
X1711Y20623D01*
X1710Y20623D01*
X1709Y20624D01*
X1709D01*
X1701Y20627D01*
X1693Y20630D01*
X1687Y20634D01*
X1681Y20637D01*
X1677Y20641D01*
X1674Y20643D01*
X1671Y20645D01*
X1671Y20645D01*
X1671D01*
X1665Y20651D01*
X1660Y20657D01*
X1656Y20663D01*
X1653Y20668D01*
X1651Y20673D01*
X1648Y20677D01*
X1648Y20678D01*
X1647Y20679D01*
X1647Y20680D01*
Y20680D01*
X1644Y20688D01*
X1642Y20696D01*
X1641Y20703D01*
X1640Y20710D01*
X1639Y20716D01*
Y20719D01*
X1639Y20721D01*
Y20723D01*
Y20724D01*
Y20725D01*
Y20725D01*
X1639Y20734D01*
X1640Y20743D01*
X1642Y20751D01*
X1643Y20757D01*
X1644Y20763D01*
X1645Y20765D01*
X1646Y20767D01*
X1646Y20769D01*
X1647Y20770D01*
X1647Y20770D01*
Y20770D01*
X1650Y20778D01*
X1654Y20784D01*
X1658Y20790D01*
X1662Y20795D01*
X1665Y20799D01*
X1668Y20802D01*
X1670Y20804D01*
X1671Y20805D01*
X1677Y20810D01*
X1683Y20814D01*
X1690Y20818D01*
X1695Y20821D01*
X1701Y20824D01*
X1705Y20825D01*
X1707Y20826D01*
X1708Y20826D01*
X1708Y20827D01*
X1709D01*
X1718Y20829D01*
X1727Y20832D01*
X1735Y20833D01*
X1744Y20834D01*
X1747Y20834D01*
X1751Y20834D01*
X1754D01*
X1756Y20835D01*
X1761D01*
X1771Y20834D01*
D02*
G37*
G36*
X1879Y20483D02*
X1855D01*
Y20514D01*
X1668D01*
Y20483D01*
X1644D01*
Y20576D01*
X1668D01*
Y20545D01*
X1855D01*
Y20576D01*
X1879D01*
Y20483D01*
D02*
G37*
G36*
Y20402D02*
X1687D01*
X1879Y20300D01*
Y20251D01*
X1644D01*
Y20280D01*
X1854D01*
X1644Y20392D01*
Y20431D01*
X1879D01*
Y20402D01*
D02*
G37*
%LPC*%
G36*
X1770Y21736D02*
X1753D01*
X1745Y21735D01*
X1738Y21735D01*
X1731Y21735D01*
X1726Y21734D01*
X1723Y21734D01*
X1722D01*
X1720Y21734D01*
X1720D01*
X1714Y21733D01*
X1708Y21732D01*
X1703Y21730D01*
X1698Y21729D01*
X1695Y21728D01*
X1692Y21727D01*
X1690Y21726D01*
X1690Y21726D01*
X1685Y21724D01*
X1682Y21721D01*
X1678Y21719D01*
X1676Y21716D01*
X1674Y21714D01*
X1672Y21712D01*
X1671Y21711D01*
X1671Y21711D01*
X1669Y21707D01*
X1668Y21703D01*
X1667Y21699D01*
X1666Y21695D01*
X1666Y21691D01*
X1665Y21689D01*
Y21687D01*
Y21686D01*
X1666Y21681D01*
X1666Y21676D01*
X1667Y21671D01*
X1668Y21668D01*
X1670Y21665D01*
X1670Y21663D01*
X1671Y21661D01*
X1671Y21661D01*
X1674Y21657D01*
X1677Y21655D01*
X1680Y21652D01*
X1683Y21650D01*
X1686Y21648D01*
X1688Y21647D01*
X1690Y21646D01*
X1690Y21646D01*
X1695Y21644D01*
X1700Y21642D01*
X1705Y21641D01*
X1710Y21640D01*
X1714Y21639D01*
X1717Y21639D01*
X1719Y21638D01*
X1720D01*
X1726Y21638D01*
X1733Y21638D01*
X1740Y21637D01*
X1747D01*
X1752Y21637D01*
X1769D01*
X1777Y21637D01*
X1784Y21638D01*
X1790Y21638D01*
X1795D01*
X1799Y21638D01*
X1800Y21639D01*
X1802D01*
X1809Y21640D01*
X1815Y21641D01*
X1820Y21642D01*
X1825Y21643D01*
X1828Y21644D01*
X1830Y21645D01*
X1832Y21646D01*
X1833Y21646D01*
X1837Y21648D01*
X1841Y21651D01*
X1844Y21653D01*
X1846Y21656D01*
X1849Y21658D01*
X1850Y21660D01*
X1851Y21661D01*
X1851Y21661D01*
X1853Y21665D01*
X1855Y21669D01*
X1856Y21673D01*
X1857Y21677D01*
X1857Y21681D01*
X1857Y21684D01*
Y21685D01*
Y21686D01*
X1857Y21692D01*
X1856Y21696D01*
X1856Y21700D01*
X1854Y21704D01*
X1853Y21707D01*
X1852Y21709D01*
X1852Y21710D01*
X1851Y21711D01*
X1849Y21714D01*
X1846Y21717D01*
X1842Y21720D01*
X1840Y21722D01*
X1837Y21724D01*
X1835Y21725D01*
X1833Y21725D01*
X1833Y21726D01*
X1828Y21728D01*
X1823Y21730D01*
X1818Y21731D01*
X1813Y21732D01*
X1809Y21733D01*
X1806Y21733D01*
X1804Y21734D01*
X1803D01*
X1796Y21734D01*
X1789Y21735D01*
X1782Y21735D01*
X1775D01*
X1770Y21736D01*
D02*
G37*
G36*
X1396Y20003D02*
X1393D01*
X1386Y20003D01*
X1383Y20002D01*
X1380Y20002D01*
X1378Y20001D01*
X1376Y20001D01*
X1375Y20000D01*
X1375D01*
X1372Y19999D01*
X1369Y19997D01*
X1366Y19995D01*
X1364Y19994D01*
X1362Y19992D01*
X1360Y19991D01*
X1359Y19990D01*
X1359Y19990D01*
X1356Y19987D01*
X1354Y19983D01*
X1351Y19977D01*
X1350Y19975D01*
X1349Y19973D01*
X1348Y19971D01*
Y19970D01*
X1347Y19966D01*
X1346Y19961D01*
X1346Y19955D01*
X1345Y19950D01*
Y19946D01*
X1345Y19943D01*
Y19941D01*
Y19940D01*
Y19940D01*
Y19939D01*
Y19913D01*
X1439D01*
Y19944D01*
Y19950D01*
X1438Y19954D01*
X1438Y19958D01*
X1437Y19962D01*
X1437Y19965D01*
X1437Y19967D01*
X1436Y19968D01*
Y19969D01*
X1434Y19975D01*
X1433Y19978D01*
X1432Y19981D01*
X1431Y19983D01*
X1430Y19985D01*
X1429Y19986D01*
X1429Y19986D01*
X1427Y19989D01*
X1424Y19992D01*
X1422Y19994D01*
X1420Y19996D01*
X1418Y19997D01*
X1416Y19998D01*
X1415Y19999D01*
X1415Y19999D01*
X1411Y20001D01*
X1408Y20002D01*
X1404Y20002D01*
X1401Y20003D01*
X1398D01*
X1396Y20003D01*
D02*
G37*
G36*
X1323Y21677D02*
Y21594D01*
X1438Y21635D01*
X1323Y21677D01*
D02*
G37*
G36*
X1765Y20802D02*
X1761D01*
X1753Y20802D01*
X1745Y20802D01*
X1737Y20801D01*
X1730Y20799D01*
X1724Y20798D01*
X1718Y20796D01*
X1713Y20794D01*
X1708Y20792D01*
X1704Y20790D01*
X1700Y20788D01*
X1697Y20786D01*
X1695Y20785D01*
X1693Y20783D01*
X1691Y20782D01*
X1691Y20782D01*
X1690Y20781D01*
X1686Y20777D01*
X1682Y20773D01*
X1679Y20769D01*
X1676Y20764D01*
X1674Y20759D01*
X1672Y20754D01*
X1669Y20746D01*
X1668Y20741D01*
X1667Y20738D01*
X1667Y20734D01*
X1666Y20731D01*
X1666Y20728D01*
Y20727D01*
Y20726D01*
Y20725D01*
X1666Y20719D01*
X1667Y20713D01*
X1668Y20707D01*
X1670Y20702D01*
X1672Y20697D01*
X1674Y20692D01*
X1676Y20688D01*
X1678Y20684D01*
X1680Y20681D01*
X1683Y20678D01*
X1684Y20675D01*
X1687Y20673D01*
X1688Y20671D01*
X1689Y20670D01*
X1690Y20670D01*
X1690Y20669D01*
X1695Y20666D01*
X1700Y20662D01*
X1706Y20660D01*
X1712Y20657D01*
X1718Y20655D01*
X1723Y20654D01*
X1735Y20651D01*
X1740Y20650D01*
X1745Y20650D01*
X1750Y20649D01*
X1753Y20649D01*
X1757Y20648D01*
X1761D01*
X1769Y20649D01*
X1777Y20649D01*
X1785Y20650D01*
X1791Y20652D01*
X1798Y20653D01*
X1804Y20655D01*
X1809Y20657D01*
X1813Y20659D01*
X1818Y20660D01*
X1821Y20662D01*
X1824Y20664D01*
X1827Y20666D01*
X1829Y20667D01*
X1830Y20668D01*
X1831Y20668D01*
X1832Y20669D01*
X1836Y20673D01*
X1840Y20677D01*
X1843Y20682D01*
X1846Y20686D01*
X1849Y20691D01*
X1850Y20696D01*
X1852Y20700D01*
X1853Y20705D01*
X1854Y20709D01*
X1855Y20713D01*
X1856Y20716D01*
X1856Y20719D01*
X1857Y20722D01*
Y20724D01*
Y20725D01*
Y20725D01*
X1856Y20732D01*
X1856Y20738D01*
X1854Y20744D01*
X1853Y20749D01*
X1851Y20754D01*
X1849Y20759D01*
X1846Y20763D01*
X1844Y20767D01*
X1842Y20770D01*
X1840Y20773D01*
X1837Y20776D01*
X1836Y20778D01*
X1834Y20779D01*
X1833Y20781D01*
X1832Y20781D01*
X1832Y20782D01*
X1827Y20785D01*
X1821Y20789D01*
X1816Y20791D01*
X1810Y20794D01*
X1804Y20796D01*
X1798Y20797D01*
X1787Y20800D01*
X1782Y20801D01*
X1777Y20801D01*
X1772Y20802D01*
X1769Y20802D01*
X1765Y20802D01*
D02*
G37*
G36*
X1403Y21454D02*
X1394D01*
X1390Y21454D01*
X1386Y21453D01*
X1384Y21453D01*
X1381Y21452D01*
X1379Y21451D01*
X1378Y21451D01*
X1377D01*
X1374Y21449D01*
X1371Y21448D01*
X1369Y21446D01*
X1366Y21444D01*
X1365Y21443D01*
X1363Y21441D01*
X1362Y21441D01*
X1362Y21440D01*
X1360Y21437D01*
X1358Y21434D01*
X1356Y21431D01*
X1355Y21428D01*
X1354Y21425D01*
X1353Y21423D01*
X1353Y21422D01*
Y21421D01*
X1352Y21417D01*
X1351Y21413D01*
X1351Y21408D01*
X1350Y21404D01*
X1350Y21401D01*
Y21398D01*
Y21396D01*
Y21395D01*
Y21364D01*
X1439D01*
Y21400D01*
Y21405D01*
X1438Y21409D01*
X1438Y21413D01*
Y21416D01*
X1437Y21419D01*
X1437Y21421D01*
X1437Y21422D01*
Y21422D01*
X1435Y21429D01*
X1434Y21432D01*
X1433Y21434D01*
X1432Y21436D01*
X1431Y21438D01*
X1431Y21438D01*
X1430Y21439D01*
X1428Y21442D01*
X1426Y21444D01*
X1424Y21446D01*
X1421Y21448D01*
X1420Y21449D01*
X1418Y21450D01*
X1417Y21451D01*
X1417D01*
X1411Y21453D01*
X1405Y21454D01*
X1403Y21454D01*
D02*
G37*
G36*
X1770Y21324D02*
X1753D01*
X1745Y21324D01*
X1738Y21324D01*
X1731Y21323D01*
X1726Y21323D01*
X1723Y21323D01*
X1722D01*
X1720Y21322D01*
X1720D01*
X1714Y21321D01*
X1708Y21320D01*
X1703Y21319D01*
X1698Y21318D01*
X1695Y21316D01*
X1692Y21316D01*
X1690Y21315D01*
X1690Y21315D01*
X1685Y21312D01*
X1682Y21310D01*
X1678Y21308D01*
X1676Y21305D01*
X1674Y21303D01*
X1672Y21301D01*
X1671Y21300D01*
X1671Y21300D01*
X1669Y21296D01*
X1668Y21292D01*
X1667Y21288D01*
X1666Y21284D01*
X1666Y21280D01*
X1665Y21277D01*
Y21276D01*
Y21275D01*
X1666Y21269D01*
X1666Y21264D01*
X1667Y21260D01*
X1668Y21256D01*
X1670Y21253D01*
X1670Y21251D01*
X1671Y21250D01*
X1671Y21249D01*
X1674Y21246D01*
X1677Y21243D01*
X1680Y21241D01*
X1683Y21238D01*
X1686Y21237D01*
X1688Y21236D01*
X1690Y21235D01*
X1690Y21235D01*
X1695Y21233D01*
X1700Y21231D01*
X1705Y21230D01*
X1710Y21229D01*
X1714Y21228D01*
X1717Y21228D01*
X1719Y21227D01*
X1720D01*
X1726Y21227D01*
X1733Y21226D01*
X1740Y21226D01*
X1747D01*
X1752Y21226D01*
X1769D01*
X1777Y21226D01*
X1784Y21226D01*
X1790Y21227D01*
X1795D01*
X1799Y21227D01*
X1800Y21228D01*
X1802D01*
X1809Y21228D01*
X1815Y21229D01*
X1820Y21231D01*
X1825Y21232D01*
X1828Y21233D01*
X1830Y21234D01*
X1832Y21234D01*
X1833Y21235D01*
X1837Y21237D01*
X1841Y21240D01*
X1844Y21242D01*
X1846Y21245D01*
X1849Y21247D01*
X1850Y21249D01*
X1851Y21250D01*
X1851Y21250D01*
X1853Y21254D01*
X1855Y21258D01*
X1856Y21262D01*
X1857Y21266D01*
X1857Y21270D01*
X1857Y21272D01*
Y21274D01*
Y21275D01*
X1857Y21280D01*
X1856Y21285D01*
X1856Y21289D01*
X1854Y21293D01*
X1853Y21296D01*
X1852Y21297D01*
X1852Y21299D01*
X1851Y21299D01*
X1849Y21303D01*
X1846Y21306D01*
X1842Y21308D01*
X1840Y21311D01*
X1837Y21312D01*
X1835Y21313D01*
X1833Y21314D01*
X1833Y21315D01*
X1828Y21317D01*
X1823Y21318D01*
X1818Y21320D01*
X1813Y21321D01*
X1809Y21321D01*
X1806Y21322D01*
X1804Y21322D01*
X1803D01*
X1796Y21323D01*
X1789Y21324D01*
X1782Y21324D01*
X1775D01*
X1770Y21324D01*
D02*
G37*
%LPD*%
D56*
X2815Y284D02*
G03*
X2736Y363I-79J0D01*
G01*
D02*
G03*
X2658Y284I0J-79D01*
G01*
X1909Y1347D02*
Y3237D01*
Y8552D02*
Y9024D01*
X2736D01*
X5886D02*
X6713D01*
Y8552D02*
Y9024D01*
Y1347D02*
Y4103D01*
Y284D02*
Y363D01*
X2815Y284D02*
X6713D01*
X1909D02*
X2658D01*
X1909D02*
Y363D01*
D57*
X4828Y15745D02*
Y16088D01*
X3346Y16119D02*
Y16519D01*
X1781Y16119D02*
Y16519D01*
D62*
X6119Y13367D02*
Y13839D01*
Y13367D02*
X7069D01*
Y13839D01*
X6119D02*
X7069D01*
X813Y4569D02*
X780Y4536D01*
X715D01*
X682Y4569D01*
Y4700D01*
X715Y4733D01*
X780D01*
X813Y4700D01*
X1010Y4536D02*
X879D01*
Y4635D01*
X944Y4602D01*
X977D01*
X1010Y4635D01*
Y4700D01*
X977Y4733D01*
X911D01*
X879Y4700D01*
X1075Y4733D02*
X1141D01*
X1108D01*
Y4536D01*
X1075Y4569D01*
X1466Y423D02*
X1302D01*
X1270Y456D01*
Y522D01*
X1302Y554D01*
X1466D01*
Y751D02*
Y620D01*
X1368D01*
X1401Y686D01*
Y718D01*
X1368Y751D01*
X1302D01*
X1270Y718D01*
Y653D01*
X1302Y620D01*
X1434Y817D02*
X1466Y850D01*
Y915D01*
X1434Y948D01*
X1302D01*
X1270Y915D01*
Y850D01*
X1302Y817D01*
X1434D01*
X604Y15361D02*
X571Y15394D01*
Y15459D01*
X604Y15492D01*
X735D01*
X768Y15459D01*
Y15394D01*
X735Y15361D01*
X768Y15295D02*
Y15230D01*
Y15263D01*
X571D01*
X604Y15295D01*
Y15131D02*
X571Y15099D01*
Y15033D01*
X604Y15000D01*
X735D01*
X768Y15033D01*
Y15099D01*
X735Y15131D01*
X604D01*
X6224Y15840D02*
X6191Y15807D01*
X6125D01*
X6093Y15840D01*
Y15971D01*
X6125Y16004D01*
X6191D01*
X6224Y15971D01*
X6289Y16004D02*
X6355D01*
X6322D01*
Y15807D01*
X6289Y15840D01*
X6584Y15807D02*
X6519Y15840D01*
X6453Y15906D01*
Y15971D01*
X6486Y16004D01*
X6552D01*
X6584Y15971D01*
Y15938D01*
X6552Y15906D01*
X6453D01*
X6028Y14798D02*
X5995Y14765D01*
X5930D01*
X5897Y14798D01*
Y14929D01*
X5930Y14962D01*
X5995D01*
X6028Y14929D01*
X6094Y14962D02*
X6159D01*
X6126D01*
Y14765D01*
X6094Y14798D01*
X6258Y14765D02*
X6389D01*
Y14798D01*
X6258Y14929D01*
Y14962D01*
X6028Y15212D02*
X5995Y15179D01*
X5930D01*
X5897Y15212D01*
Y15343D01*
X5930Y15376D01*
X5995D01*
X6028Y15343D01*
X6094Y15376D02*
X6159D01*
X6126D01*
Y15179D01*
X6094Y15212D01*
X6258D02*
X6290Y15179D01*
X6356D01*
X6389Y15212D01*
Y15244D01*
X6356Y15277D01*
X6389Y15310D01*
Y15343D01*
X6356Y15376D01*
X6290D01*
X6258Y15343D01*
Y15310D01*
X6290Y15277D01*
X6258Y15244D01*
Y15212D01*
X6290Y15277D02*
X6356D01*
X656Y6657D02*
X689Y6624D01*
Y6558D01*
X656Y6526D01*
X525D01*
X492Y6558D01*
Y6624D01*
X525Y6657D01*
X492Y6854D02*
Y6722D01*
X623Y6854D01*
X656D01*
X689Y6821D01*
Y6755D01*
X656Y6722D01*
Y6919D02*
X689Y6952D01*
Y7018D01*
X656Y7050D01*
X525D01*
X492Y7018D01*
Y6952D01*
X525Y6919D01*
X656D01*
X8008Y17287D02*
X8041Y17254D01*
Y17188D01*
X8008Y17156D01*
X7877D01*
X7844Y17188D01*
Y17254D01*
X7877Y17287D01*
X8008Y17352D02*
X8041Y17385D01*
Y17451D01*
X8008Y17483D01*
X7976D01*
X7943Y17451D01*
Y17418D01*
Y17451D01*
X7910Y17483D01*
X7877D01*
X7844Y17451D01*
Y17385D01*
X7877Y17352D01*
X8008Y17549D02*
X8041Y17582D01*
Y17647D01*
X8008Y17680D01*
X7877D01*
X7844Y17647D01*
Y17582D01*
X7877Y17549D01*
X8008D01*
X5637Y13205D02*
X5669Y13238D01*
X5735D01*
X5768Y13205D01*
Y13074D01*
X5735Y13041D01*
X5669D01*
X5637Y13074D01*
X5440Y13238D02*
X5571D01*
Y13140D01*
X5505Y13173D01*
X5473D01*
X5440Y13140D01*
Y13074D01*
X5473Y13041D01*
X5538D01*
X5571Y13074D01*
X5374Y13205D02*
X5341Y13238D01*
X5276D01*
X5243Y13205D01*
Y13074D01*
X5276Y13041D01*
X5341D01*
X5374Y13074D01*
Y13205D01*
X3120Y15866D02*
Y15669D01*
X3218D01*
X3251Y15702D01*
Y15768D01*
X3218Y15801D01*
X3120D01*
X3186D02*
X3251Y15866D01*
X3317D02*
X3382D01*
X3350D01*
Y15669D01*
X3317Y15702D01*
X3481D02*
X3514Y15669D01*
X3579D01*
X3612Y15702D01*
Y15833D01*
X3579Y15866D01*
X3514D01*
X3481Y15833D01*
Y15702D01*
X2037Y15640D02*
Y15837D01*
X1939D01*
X1906Y15804D01*
Y15738D01*
X1939Y15705D01*
X2037D01*
X1972D02*
X1906Y15640D01*
X1841D02*
X1775D01*
X1808D01*
Y15837D01*
X1841Y15804D01*
X1545Y15640D02*
X1677D01*
X1545Y15771D01*
Y15804D01*
X1578Y15837D01*
X1644D01*
X1677Y15804D01*
X1841Y11289D02*
Y11486D01*
X1742D01*
X1709Y11453D01*
Y11388D01*
X1742Y11355D01*
X1841D01*
X1775D02*
X1709Y11289D01*
X1513D02*
X1644D01*
X1513Y11421D01*
Y11453D01*
X1545Y11486D01*
X1611D01*
X1644Y11453D01*
X1447D02*
X1414Y11486D01*
X1349D01*
X1316Y11453D01*
Y11322D01*
X1349Y11289D01*
X1414D01*
X1447Y11322D01*
Y11453D01*
X1506Y6713D02*
Y6909D01*
X1408D01*
X1375Y6877D01*
Y6811D01*
X1408Y6778D01*
X1506D01*
X1440D02*
X1375Y6713D01*
X1178D02*
X1309D01*
X1178Y6844D01*
Y6877D01*
X1211Y6909D01*
X1276D01*
X1309Y6877D01*
X1112Y6713D02*
X1047D01*
X1080D01*
Y6909D01*
X1112Y6877D01*
X1870Y10915D02*
Y11112D01*
X1772D01*
X1739Y11079D01*
Y11014D01*
X1772Y10981D01*
X1870D01*
X1804D02*
X1739Y10915D01*
X1542D02*
X1673D01*
X1542Y11047D01*
Y11079D01*
X1575Y11112D01*
X1640D01*
X1673Y11079D01*
X1345Y10915D02*
X1477D01*
X1345Y11047D01*
Y11079D01*
X1378Y11112D01*
X1444D01*
X1477Y11079D01*
X1575Y7815D02*
Y8012D01*
X1476D01*
X1444Y7979D01*
Y7913D01*
X1476Y7881D01*
X1575D01*
X1509D02*
X1444Y7815D01*
X1247D02*
X1378D01*
X1247Y7946D01*
Y7979D01*
X1280Y8012D01*
X1345D01*
X1378Y7979D01*
X1181D02*
X1148Y8012D01*
X1083D01*
X1050Y7979D01*
Y7946D01*
X1083Y7913D01*
X1116D01*
X1083D01*
X1050Y7881D01*
Y7848D01*
X1083Y7815D01*
X1148D01*
X1181Y7848D01*
X8346Y12992D02*
X8150D01*
Y12894D01*
X8182Y12861D01*
X8248D01*
X8281Y12894D01*
Y12992D01*
Y12927D02*
X8346Y12861D01*
Y12664D02*
Y12795D01*
X8215Y12664D01*
X8182D01*
X8150Y12697D01*
Y12763D01*
X8182Y12795D01*
X8346Y12500D02*
X8150D01*
X8248Y12599D01*
Y12467D01*
X7904Y12982D02*
X7707D01*
Y12884D01*
X7740Y12851D01*
X7805D01*
X7838Y12884D01*
Y12982D01*
Y12917D02*
X7904Y12851D01*
Y12654D02*
Y12786D01*
X7772Y12654D01*
X7740D01*
X7707Y12687D01*
Y12753D01*
X7740Y12786D01*
X7707Y12458D02*
Y12589D01*
X7805D01*
X7772Y12523D01*
Y12490D01*
X7805Y12458D01*
X7871D01*
X7904Y12490D01*
Y12556D01*
X7871Y12589D01*
X6211Y20197D02*
Y20394D01*
X6112D01*
X6079Y20361D01*
Y20295D01*
X6112Y20262D01*
X6211D01*
X6145D02*
X6079Y20197D01*
X5883D02*
X6014D01*
X5883Y20328D01*
Y20361D01*
X5915Y20394D01*
X5981D01*
X6014Y20361D01*
X5686Y20394D02*
X5751Y20361D01*
X5817Y20295D01*
Y20230D01*
X5784Y20197D01*
X5719D01*
X5686Y20230D01*
Y20262D01*
X5719Y20295D01*
X5817D01*
X7175Y20030D02*
Y20226D01*
X7077D01*
X7044Y20194D01*
Y20128D01*
X7077Y20095D01*
X7175D01*
X7110D02*
X7044Y20030D01*
X6847D02*
X6978D01*
X6847Y20161D01*
Y20194D01*
X6880Y20226D01*
X6946D01*
X6978Y20194D01*
X6782Y20226D02*
X6650D01*
Y20194D01*
X6782Y20062D01*
Y20030D01*
X4902Y17756D02*
X4705D01*
Y17658D01*
X4738Y17625D01*
X4803D01*
X4836Y17658D01*
Y17756D01*
Y17690D02*
X4902Y17625D01*
X4738Y17559D02*
X4705Y17526D01*
Y17461D01*
X4738Y17428D01*
X4770D01*
X4803Y17461D01*
Y17494D01*
Y17461D01*
X4836Y17428D01*
X4869D01*
X4902Y17461D01*
Y17526D01*
X4869Y17559D01*
X4902Y17231D02*
Y17362D01*
X4770Y17231D01*
X4738D01*
X4705Y17264D01*
Y17330D01*
X4738Y17362D01*
X7252Y17156D02*
X7449D01*
Y17254D01*
X7416Y17287D01*
X7351D01*
X7318Y17254D01*
Y17156D01*
Y17221D02*
X7252Y17287D01*
X7416Y17352D02*
X7449Y17385D01*
Y17451D01*
X7416Y17483D01*
X7384D01*
X7351Y17451D01*
Y17418D01*
Y17451D01*
X7318Y17483D01*
X7285D01*
X7252Y17451D01*
Y17385D01*
X7285Y17352D01*
X7416Y17549D02*
X7449Y17582D01*
Y17647D01*
X7416Y17680D01*
X7384D01*
X7351Y17647D01*
Y17615D01*
Y17647D01*
X7318Y17680D01*
X7285D01*
X7252Y17647D01*
Y17582D01*
X7285Y17549D01*
X5787Y16339D02*
X5984D01*
Y16437D01*
X5951Y16470D01*
X5886D01*
X5853Y16437D01*
Y16339D01*
Y16404D02*
X5787Y16470D01*
X5951Y16535D02*
X5984Y16568D01*
Y16634D01*
X5951Y16667D01*
X5919D01*
X5886Y16634D01*
Y16601D01*
Y16634D01*
X5853Y16667D01*
X5820D01*
X5787Y16634D01*
Y16568D01*
X5820Y16535D01*
X5787Y16831D02*
X5984D01*
X5886Y16732D01*
Y16863D01*
X4783Y20217D02*
X4980D01*
Y20315D01*
X4947Y20348D01*
X4882D01*
X4849Y20315D01*
Y20217D01*
Y20282D02*
X4783Y20348D01*
X4947Y20413D02*
X4980Y20446D01*
Y20512D01*
X4947Y20545D01*
X4915D01*
X4882Y20512D01*
Y20479D01*
Y20512D01*
X4849Y20545D01*
X4816D01*
X4783Y20512D01*
Y20446D01*
X4816Y20413D01*
X4980Y20741D02*
Y20610D01*
X4882D01*
X4915Y20676D01*
Y20708D01*
X4882Y20741D01*
X4816D01*
X4783Y20708D01*
Y20643D01*
X4816Y20610D01*
X4193Y17215D02*
X4390D01*
Y17313D01*
X4357Y17346D01*
X4291D01*
X4259Y17313D01*
Y17215D01*
Y17280D02*
X4193Y17346D01*
X4357Y17411D02*
X4390Y17444D01*
Y17510D01*
X4357Y17543D01*
X4324D01*
X4291Y17510D01*
Y17477D01*
Y17510D01*
X4259Y17543D01*
X4226D01*
X4193Y17510D01*
Y17444D01*
X4226Y17411D01*
X4390Y17608D02*
Y17739D01*
X4357D01*
X4226Y17608D01*
X4193D01*
X8297Y21004D02*
X8494D01*
Y21102D01*
X8461Y21135D01*
X8396D01*
X8363Y21102D01*
Y21004D01*
Y21070D02*
X8297Y21135D01*
X8461Y21201D02*
X8494Y21234D01*
Y21299D01*
X8461Y21332D01*
X8428D01*
X8396Y21299D01*
Y21266D01*
Y21299D01*
X8363Y21332D01*
X8330D01*
X8297Y21299D01*
Y21234D01*
X8330Y21201D01*
X8461Y21398D02*
X8494Y21430D01*
Y21496D01*
X8461Y21529D01*
X8428D01*
X8396Y21496D01*
X8363Y21529D01*
X8330D01*
X8297Y21496D01*
Y21430D01*
X8330Y21398D01*
X8363D01*
X8396Y21430D01*
X8428Y21398D01*
X8461D01*
X8396Y21430D02*
Y21496D01*
X2963Y20679D02*
X2766D01*
Y20581D01*
X2799Y20548D01*
X2864D01*
X2897Y20581D01*
Y20679D01*
Y20614D02*
X2963Y20548D01*
X2799Y20482D02*
X2766Y20450D01*
Y20384D01*
X2799Y20351D01*
X2831D01*
X2864Y20384D01*
Y20417D01*
Y20384D01*
X2897Y20351D01*
X2930D01*
X2963Y20384D01*
Y20450D01*
X2930Y20482D01*
Y20286D02*
X2963Y20253D01*
Y20187D01*
X2930Y20154D01*
X2799D01*
X2766Y20187D01*
Y20253D01*
X2799Y20286D01*
X2831D01*
X2864Y20253D01*
Y20154D01*
X1604Y6220D02*
X1408D01*
Y6122D01*
X1440Y6089D01*
X1506D01*
X1539Y6122D01*
Y6220D01*
Y6155D02*
X1604Y6089D01*
X1408Y5893D02*
Y6024D01*
X1506D01*
X1473Y5958D01*
Y5925D01*
X1506Y5893D01*
X1572D01*
X1604Y5925D01*
Y5991D01*
X1572Y6024D01*
X1440Y5827D02*
X1408Y5794D01*
Y5729D01*
X1440Y5696D01*
X1572D01*
X1604Y5729D01*
Y5794D01*
X1572Y5827D01*
X1440D01*
X5758Y13474D02*
Y13671D01*
X5659D01*
X5627Y13638D01*
Y13573D01*
X5659Y13540D01*
X5758D01*
X5692D02*
X5627Y13474D01*
X5430Y13671D02*
X5561D01*
Y13573D01*
X5495Y13606D01*
X5463D01*
X5430Y13573D01*
Y13507D01*
X5463Y13474D01*
X5528D01*
X5561Y13507D01*
X5364Y13474D02*
X5299D01*
X5332D01*
Y13671D01*
X5364Y13638D01*
D98*
X683Y19655D02*
D03*
M02*
