M48
;Layer_Color=9474304
;FILE_FORMAT=2:4
INCH,LZ
;TYPE=PLATED
T1F00S00C0.0079
T2F00S00C0.0354
%
T01
X000364Y005305
X000591Y00686
X001516Y006516
X001496Y008041
X001604Y008543
X001575Y008898
X00152Y010069
X002047Y010207
X002913Y009557
X002657Y007608
X002638Y007136
X002707Y005846
X003474Y005394
X004409Y005384
X004862Y005404
X005374Y005472
X005837Y005404
X00565Y006053
X005965Y006299
X007648Y006693
X008287Y005591
X007608Y004823
X007372Y008514
X007598Y009114
X007648Y009537
X006683Y010187
X006181Y010226
X004409Y008248
X000423Y00872
X000344Y009321
X002785Y003799
X001762Y010591
X004705Y011526
X005364Y012746
X005856Y013051
X007411Y012972
X007411Y012677
X007451Y013809
X008041Y014419
X008317Y015384
X008287Y016437
X007628Y016437
X006634Y016427
X006614Y01685
X007352Y017175
X005797Y017953
X005394Y016762
X004793Y017175
X004301Y017175
X003799Y017165
X003937Y016831
X002913Y016831
X002559Y017136
X001388Y017047
X000482Y017156
X000689Y020069
X001358Y021634
X002805Y021555
X003297Y021555
X003799Y021555
X004301Y021555
X0048Y021555
X005305Y021555
X005807Y021545
X006309Y021555
X006801Y021545
X008022Y021781
X007146Y020187
X00617Y01997
X005295Y019823
X004104Y020591
X003297Y019852
X003012Y015482
X002303Y015482
X003445Y014843
X003711Y014547
X004774Y014862
X004774Y015384
X00437Y015787
X004528Y016122
X005955Y014862
X007352Y011535
X00752Y011063
X000974Y013927
T02
X000758Y011949
X000758Y012949
M30
