G04 Layer_Physical_Order=3*
G04 Layer_Color=32768*
%FSLAX24Y24*%
%MOIN*%
G70*
G01*
G75*
%ADD44C,0.0400*%
%ADD45R,0.8362X0.4321*%
%ADD46C,0.0750*%
%ADD47C,0.0754*%
%ADD48C,0.0479*%
D44*
X0Y0D02*
Y22115D01*
X8770D01*
Y0D02*
Y22115D01*
X0Y0D02*
X8770D01*
D45*
X4382Y2328D02*
D03*
D46*
X1325Y10563D02*
D03*
X525D02*
D03*
X925Y8563D02*
D03*
D47*
X758Y11949D02*
D03*
Y12949D02*
D03*
D48*
X4409Y8248D02*
D03*
X5374Y5472D02*
D03*
X1496Y8041D02*
D03*
X364Y5305D02*
D03*
X5650Y6053D02*
D03*
X5965Y6299D02*
D03*
X5837Y5404D02*
D03*
X2785Y3799D02*
D03*
X591Y6860D02*
D03*
X6181Y10226D02*
D03*
X6683Y10187D02*
D03*
X7520Y11063D02*
D03*
X7352Y11535D02*
D03*
X7598Y9114D02*
D03*
X7648Y9537D02*
D03*
X4705Y11526D02*
D03*
X4104Y20591D02*
D03*
X4862Y5404D02*
D03*
X7648Y6693D02*
D03*
X7411Y12972D02*
D03*
X7451Y13809D02*
D03*
X2913Y9557D02*
D03*
X2303Y15482D02*
D03*
X1388Y17047D02*
D03*
X3445Y14843D02*
D03*
X3012Y15482D02*
D03*
X3799Y17165D02*
D03*
X4528Y16122D02*
D03*
X3937Y16831D02*
D03*
X2559Y17136D02*
D03*
X2913Y16831D02*
D03*
X5955Y14862D02*
D03*
X8287Y16437D02*
D03*
X7608Y4823D02*
D03*
X6614Y16850D02*
D03*
X344Y9321D02*
D03*
X423Y8720D02*
D03*
X2638Y7136D02*
D03*
X2657Y7608D02*
D03*
X2707Y5846D02*
D03*
X8287Y5591D02*
D03*
X4800Y21555D02*
D03*
X5797Y17953D02*
D03*
X3474Y5394D02*
D03*
X1604Y8543D02*
D03*
X5394Y16762D02*
D03*
X5295Y19823D02*
D03*
X4409Y5384D02*
D03*
X2047Y10207D02*
D03*
X1520Y10069D02*
D03*
X482Y17156D02*
D03*
X3711Y14547D02*
D03*
X974Y13927D02*
D03*
X4370Y15787D02*
D03*
X1358Y21634D02*
D03*
X689Y20069D02*
D03*
X4301Y21555D02*
D03*
X3799D02*
D03*
X2805D02*
D03*
X7352Y17175D02*
D03*
X4793D02*
D03*
X4301D02*
D03*
X3297Y21555D02*
D03*
X5305D02*
D03*
X6801Y21545D02*
D03*
X8022Y21781D02*
D03*
X6309Y21555D02*
D03*
X5807Y21545D02*
D03*
X6170Y19970D02*
D03*
X7146Y20187D02*
D03*
X8041Y14419D02*
D03*
X7411Y12677D02*
D03*
X5856Y13051D02*
D03*
X7372Y8514D02*
D03*
M02*
