G04 Layer_Physical_Order=6*
G04 Layer_Color=16711680*
%FSLAX24Y24*%
%MOIN*%
G70*
G01*
G75*
%ADD12R,0.0250X0.0200*%
%ADD17R,0.0400X0.0300*%
%ADD18R,0.0300X0.0400*%
%ADD25R,0.0520X0.0600*%
%ADD37C,0.0059*%
%ADD39C,0.0060*%
%ADD40C,0.0340*%
%ADD41R,0.0591X0.0591*%
%ADD42C,0.0591*%
%ADD43C,0.0157*%
%ADD51R,0.0200X0.0250*%
%ADD52R,0.0591X0.0276*%
%ADD53R,0.0276X0.0591*%
%ADD54R,0.0276X0.0354*%
G36*
X8617Y153D02*
X153D01*
Y3780D01*
X945D01*
X1197Y3528D01*
X1200Y3513D01*
X1239Y3454D01*
X1298Y3414D01*
X1318Y3410D01*
Y3583D01*
X1368D01*
Y3633D01*
X1540D01*
X1536Y3652D01*
X1497Y3712D01*
X1470Y3730D01*
X1485Y3780D01*
X1652D01*
Y3554D01*
X2443D01*
Y3699D01*
Y4132D01*
Y4557D01*
X3001D01*
Y4076D01*
X3521D01*
Y4557D01*
X6180D01*
Y4420D01*
X6970D01*
Y4557D01*
X8617D01*
Y153D01*
D02*
G37*
%LPC*%
G36*
X2000Y1301D02*
X1655D01*
Y1113D01*
X2000D01*
Y1301D01*
D02*
G37*
G36*
X6970Y1013D02*
X6180D01*
Y825D01*
Y680D01*
X6970D01*
Y825D01*
Y1013D01*
D02*
G37*
G36*
X2446Y1301D02*
X2100D01*
Y1113D01*
X2446D01*
Y1301D01*
D02*
G37*
G36*
X6970D02*
X6625D01*
Y1113D01*
X6970D01*
Y1301D01*
D02*
G37*
G36*
X6525D02*
X6180D01*
Y1113D01*
X6525D01*
Y1301D01*
D02*
G37*
G36*
X2446Y580D02*
X2100D01*
Y392D01*
X2446D01*
Y580D01*
D02*
G37*
G36*
X2000D02*
X1655D01*
Y392D01*
X2000D01*
Y580D01*
D02*
G37*
G36*
X6525D02*
X6180D01*
Y392D01*
X6525D01*
Y580D01*
D02*
G37*
G36*
X2446Y1013D02*
X1655D01*
Y825D01*
Y680D01*
X2446D01*
Y825D01*
Y1013D01*
D02*
G37*
G36*
X6970Y580D02*
X6625D01*
Y392D01*
X6970D01*
Y580D01*
D02*
G37*
G36*
X6541Y3026D02*
X6531Y3016D01*
X6501Y3016D01*
X5231D01*
Y2006D01*
X6551D01*
Y2974D01*
X6551Y3016D01*
X6541Y3026D01*
D02*
G37*
G36*
X2735Y3972D02*
X2716Y3968D01*
X2657Y3928D01*
X2617Y3869D01*
X2613Y3849D01*
X2735D01*
Y3972D01*
D02*
G37*
G36*
X5241Y4316D02*
X4721D01*
Y3836D01*
X5241D01*
Y4316D01*
D02*
G37*
G36*
X2835Y3972D02*
Y3849D01*
X2958D01*
X2954Y3869D01*
X2914Y3928D01*
X2855Y3968D01*
X2835Y3972D01*
D02*
G37*
G36*
X6970Y4320D02*
X6625D01*
Y4132D01*
X6970D01*
Y4320D01*
D02*
G37*
G36*
X6525D02*
X6180D01*
Y4132D01*
X6525D01*
Y4320D01*
D02*
G37*
G36*
X2443Y3454D02*
X2097D01*
Y3266D01*
X2443D01*
Y3454D01*
D02*
G37*
G36*
X1997D02*
X1652D01*
Y3266D01*
X1997D01*
Y3454D01*
D02*
G37*
G36*
X1540Y3533D02*
X1418D01*
Y3410D01*
X1438Y3414D01*
X1497Y3454D01*
X1536Y3513D01*
X1540Y3533D01*
D02*
G37*
G36*
X2958Y3749D02*
X2835D01*
Y3627D01*
X2855Y3631D01*
X2914Y3670D01*
X2954Y3729D01*
X2958Y3749D01*
D02*
G37*
G36*
X2735D02*
X2613D01*
X2617Y3729D01*
X2657Y3670D01*
X2716Y3631D01*
X2735Y3627D01*
Y3749D01*
D02*
G37*
%LPD*%
D12*
X1083Y4990D02*
D03*
X669D02*
D03*
X2175Y10994D02*
D03*
X2589D02*
D03*
X1516Y7530D02*
D03*
X1102D02*
D03*
X1516Y7146D02*
D03*
X1102D02*
D03*
X2185Y11358D02*
D03*
X2598D02*
D03*
X5197Y15276D02*
D03*
X5610D02*
D03*
X5197Y14862D02*
D03*
X5610D02*
D03*
X6732Y20531D02*
D03*
X7146D02*
D03*
X5797Y20640D02*
D03*
X6211D02*
D03*
D17*
X706Y16505D02*
D03*
Y15805D02*
D03*
D18*
X5057Y15918D02*
D03*
X5757D02*
D03*
X6241Y13049D02*
D03*
X6941D02*
D03*
D25*
X2972Y16319D02*
D03*
X3726D02*
D03*
X2156D02*
D03*
X1401D02*
D03*
D37*
X4311Y8346D02*
Y8878D01*
Y8346D02*
X4409Y8248D01*
X1102Y7530D02*
Y7923D01*
X1220Y8041D01*
X1496D01*
X600Y5059D02*
Y5394D01*
X364Y5305D02*
X512D01*
X600Y5394D01*
Y5709D01*
X4979Y5681D02*
X6575D01*
X4862Y5404D02*
Y5564D01*
X4979Y5681D01*
X6575Y5669D02*
Y5681D01*
X5610Y8878D02*
Y10758D01*
X6575Y8268D02*
Y9124D01*
X8238Y8307D02*
Y13366D01*
X7766Y7835D02*
X8238Y8307D01*
X6575Y7835D02*
X7766D01*
X1083Y4193D02*
Y4990D01*
Y4193D02*
X1339Y3937D01*
X2047D01*
X600Y5059D02*
X669Y4990D01*
X1083Y4990D02*
X1083Y4990D01*
X1083Y4990D02*
Y5709D01*
X7579Y14656D02*
X8150D01*
X7451Y14528D02*
X7579Y14656D01*
X7451Y13809D02*
Y14528D01*
X8150Y14656D02*
X8250Y14556D01*
Y13791D02*
Y14556D01*
X8238Y13780D02*
X8250Y13791D01*
X7815Y14193D02*
X8041Y14419D01*
X7815Y13780D02*
Y14193D01*
X2175Y10679D02*
Y10994D01*
X2087Y10591D02*
X2175Y10679D01*
X1762Y10591D02*
X2087D01*
X2589Y9882D02*
X2913Y9557D01*
X2589Y9882D02*
Y10994D01*
X2598Y11004D02*
Y11358D01*
X2175Y10994D02*
Y11348D01*
X600Y6122D02*
Y6850D01*
X768Y7254D02*
Y7850D01*
Y7254D02*
X876Y7146D01*
X1102D01*
X1516D02*
Y7530D01*
X1461Y8543D02*
X1604D01*
X768Y7850D02*
X1461Y8543D01*
X1516Y6516D02*
Y7146D01*
X1132Y6516D02*
X1516D01*
X1083Y6467D02*
X1132Y6516D01*
X1083Y6122D02*
Y6467D01*
X7194Y11063D02*
X7520D01*
X5916D02*
X7194D01*
X5610Y10758D02*
X5916Y11063D01*
X6870Y11388D02*
Y12978D01*
X6941Y13049D01*
X6870Y11388D02*
X7194Y11063D01*
X7815Y10364D02*
Y13366D01*
X6575Y9124D02*
X7815Y10364D01*
X5856Y13051D02*
X6239D01*
X706Y15642D02*
X866Y15482D01*
X2303D01*
X5610Y14862D02*
Y15276D01*
X1388Y17047D02*
X1401Y17034D01*
Y16319D02*
Y17034D01*
X706Y15642D02*
Y15805D01*
X8022Y21467D02*
X8022Y21467D01*
X6801Y21239D02*
Y21545D01*
Y21239D02*
X6987Y21053D01*
X8022D01*
X4350Y16122D02*
X4528D01*
X4301Y16171D02*
X4350Y16122D01*
X4301Y16171D02*
Y16437D01*
X3799Y16831D02*
X3937D01*
X3726Y16758D02*
X3799Y16831D01*
X3726Y16319D02*
Y16758D01*
X2156Y16319D02*
Y16988D01*
X2303Y17136D01*
X2559D01*
X2913Y16378D02*
X2972Y16319D01*
X2913Y16378D02*
Y16831D01*
X7352Y16850D02*
X7972D01*
X8287Y16437D02*
X8287Y16437D01*
X7972Y16437D02*
X8287D01*
X4774Y14862D02*
X5197D01*
X5610Y15532D02*
X5757Y15678D01*
X5610Y15276D02*
Y15532D01*
X6309Y16427D02*
X6634D01*
X6299Y16437D02*
X6309Y16427D01*
X6299Y16437D02*
X6299Y16437D01*
X6614Y16850D02*
X6614Y16850D01*
X6299Y16850D02*
X6614D01*
X7628Y16437D02*
X7628Y16437D01*
X7352Y16437D02*
X7628D01*
X5057Y15662D02*
Y15918D01*
X5757Y15678D02*
Y15918D01*
X5197Y14862D02*
Y15276D01*
X706Y16505D02*
Y17109D01*
X659Y17156D02*
X706Y17109D01*
X482Y17156D02*
X659D01*
X5295Y19823D02*
X5300Y19828D01*
Y20226D01*
X3297Y19852D02*
X3300Y19855D01*
Y20226D01*
X8022Y21467D02*
Y21781D01*
X7146Y20187D02*
Y20531D01*
X6309Y21368D02*
Y21555D01*
Y21368D02*
X6732Y20945D01*
Y20531D02*
Y20945D01*
X5807Y20650D02*
Y21545D01*
X5797Y20640D02*
X5807Y20650D01*
X6211Y20011D02*
Y20640D01*
X6170Y19970D02*
X6211Y20011D01*
X6870Y12943D02*
Y13602D01*
X5057Y15662D02*
X5197Y15522D01*
Y15276D02*
Y15522D01*
Y13691D02*
Y14862D01*
Y13691D02*
X5285Y13602D01*
X6319D01*
X5610Y14862D02*
X5611Y14862D01*
X5610Y14862D02*
X5955D01*
X7352Y16850D02*
Y17175D01*
X7352Y17175D02*
X7352Y17175D01*
X4301Y16850D02*
Y17175D01*
X4301Y17175D02*
X4301Y17175D01*
X4793Y16850D02*
Y17175D01*
X4793Y17175D01*
X4301Y16437D02*
X4793D01*
X4793Y16437D01*
D39*
X3297Y20643D02*
X3300Y20640D01*
X3297Y20643D02*
Y21555D01*
X5300Y21550D02*
X5305Y21555D01*
X5300Y20640D02*
Y21550D01*
D40*
X1325Y10563D02*
D03*
X525D02*
D03*
X925Y8563D02*
D03*
D41*
X758Y11949D02*
D03*
D42*
Y12949D02*
D03*
D43*
X4409Y8248D02*
D03*
X5374Y5472D02*
D03*
X1496Y8041D02*
D03*
X364Y5305D02*
D03*
X5650Y6053D02*
D03*
X5965Y6299D02*
D03*
X5837Y5404D02*
D03*
X2785Y3799D02*
D03*
X591Y6860D02*
D03*
X6181Y10226D02*
D03*
X6683Y10187D02*
D03*
X7520Y11063D02*
D03*
X7352Y11535D02*
D03*
X7598Y9114D02*
D03*
X7648Y9537D02*
D03*
X1516Y6516D02*
D03*
X5364Y12746D02*
D03*
X4705Y11526D02*
D03*
X4104Y20591D02*
D03*
X4862Y5404D02*
D03*
X7648Y6693D02*
D03*
X7411Y12972D02*
D03*
X7451Y13809D02*
D03*
X1762Y10591D02*
D03*
X2913Y9557D02*
D03*
X2303Y15482D02*
D03*
X1388Y17047D02*
D03*
X3445Y14843D02*
D03*
X3012Y15482D02*
D03*
X3799Y17165D02*
D03*
X4528Y16122D02*
D03*
X3937Y16831D02*
D03*
X2559Y17136D02*
D03*
X2913Y16831D02*
D03*
X5955Y14862D02*
D03*
X8287Y16437D02*
D03*
X7608Y4823D02*
D03*
X4774Y14862D02*
D03*
Y15384D02*
D03*
X6634Y16427D02*
D03*
X6614Y16850D02*
D03*
X344Y9321D02*
D03*
X423Y8720D02*
D03*
X2638Y7136D02*
D03*
X2657Y7608D02*
D03*
X2707Y5846D02*
D03*
X8287Y5591D02*
D03*
X4800Y21555D02*
D03*
X5797Y17953D02*
D03*
X7628Y16437D02*
D03*
X3474Y5394D02*
D03*
X1604Y8543D02*
D03*
X5394Y16762D02*
D03*
X5295Y19823D02*
D03*
X4409Y5384D02*
D03*
X3297Y19852D02*
D03*
X2047Y10207D02*
D03*
X1520Y10069D02*
D03*
X482Y17156D02*
D03*
X3711Y14547D02*
D03*
X974Y13927D02*
D03*
X4370Y15787D02*
D03*
X8317Y15384D02*
D03*
X1358Y21634D02*
D03*
X689Y20069D02*
D03*
X4301Y21555D02*
D03*
X3799D02*
D03*
X2805D02*
D03*
X7352Y17175D02*
D03*
X4793D02*
D03*
X4301D02*
D03*
X3297Y21555D02*
D03*
X5305D02*
D03*
X6801Y21545D02*
D03*
X1575Y8898D02*
D03*
X8022Y21781D02*
D03*
X6309Y21555D02*
D03*
X5807Y21545D02*
D03*
X6170Y19970D02*
D03*
X7146Y20187D02*
D03*
X8041Y14419D02*
D03*
X7411Y12677D02*
D03*
X5856Y13051D02*
D03*
X7372Y8514D02*
D03*
D51*
X7815Y13366D02*
D03*
Y13780D02*
D03*
X8238Y13366D02*
D03*
Y13780D02*
D03*
X600Y6122D02*
D03*
Y5709D02*
D03*
X7972Y16850D02*
D03*
Y16437D02*
D03*
X4301D02*
D03*
Y16850D02*
D03*
X5300Y20640D02*
D03*
Y20226D02*
D03*
X4793Y16850D02*
D03*
Y16437D02*
D03*
X8022Y21053D02*
D03*
Y21467D02*
D03*
X7352Y16437D02*
D03*
Y16850D02*
D03*
X6299Y16437D02*
D03*
Y16850D02*
D03*
X3300Y20640D02*
D03*
Y20226D02*
D03*
X1083Y6122D02*
D03*
Y5709D02*
D03*
D52*
X2047Y3504D02*
D03*
X6575Y4370D02*
D03*
X2047Y5669D02*
D03*
Y5236D02*
D03*
Y8268D02*
D03*
Y7835D02*
D03*
Y4803D02*
D03*
Y6535D02*
D03*
Y3937D02*
D03*
X6575Y4803D02*
D03*
X2047Y4370D02*
D03*
Y6968D02*
D03*
Y6102D02*
D03*
X6575Y7402D02*
D03*
Y5669D02*
D03*
Y5236D02*
D03*
X2047Y7402D02*
D03*
X6575Y6968D02*
D03*
Y6535D02*
D03*
Y6102D02*
D03*
Y7835D02*
D03*
Y8268D02*
D03*
Y1063D02*
D03*
Y630D02*
D03*
X2050Y1063D02*
D03*
Y630D02*
D03*
D53*
X5610Y8878D02*
D03*
X5177D02*
D03*
X3445D02*
D03*
X4744D02*
D03*
X4311D02*
D03*
X3878D02*
D03*
X3012D02*
D03*
D54*
X6319Y13602D02*
D03*
X6870D02*
D03*
M02*
