G04 Layer_Physical_Order=5*
G04 Layer_Color=128*
%FSLAX24Y24*%
%MOIN*%
G70*
G01*
G75*
%ADD44C,0.0400*%
%ADD46C,0.0750*%
%ADD47C,0.0754*%
%ADD48C,0.0479*%
%ADD49R,0.5495X0.3189*%
%ADD50R,0.8386X0.3189*%
D44*
X0Y0D02*
Y22115D01*
X8770D01*
Y0D02*
Y22115D01*
X0Y0D02*
X8770D01*
D46*
X1325Y10563D02*
D03*
X525D02*
D03*
X925Y8563D02*
D03*
D47*
X758Y11949D02*
D03*
D48*
X4409Y8248D02*
D03*
X5374Y5472D02*
D03*
X1496Y8041D02*
D03*
X5650Y6053D02*
D03*
X5965Y6299D02*
D03*
X5837Y5404D02*
D03*
X591Y6860D02*
D03*
X6181Y10226D02*
D03*
X6683Y10187D02*
D03*
X7520Y11063D02*
D03*
X7352Y11535D02*
D03*
X7598Y9114D02*
D03*
X1516Y6516D02*
D03*
X5364Y12746D02*
D03*
X4862Y5404D02*
D03*
X7648Y6693D02*
D03*
X7411Y12972D02*
D03*
X7451Y13809D02*
D03*
X1762Y10591D02*
D03*
X2913Y9557D02*
D03*
X2303Y15482D02*
D03*
X1388Y17047D02*
D03*
X3445Y14843D02*
D03*
X3799Y17165D02*
D03*
X4528Y16122D02*
D03*
X3937Y16831D02*
D03*
X2559Y17136D02*
D03*
X2913Y16831D02*
D03*
X7608Y4823D02*
D03*
X4774Y14862D02*
D03*
Y15384D02*
D03*
X6634Y16427D02*
D03*
X6614Y16850D02*
D03*
X344Y9321D02*
D03*
X423Y8720D02*
D03*
X2638Y7136D02*
D03*
X2657Y7608D02*
D03*
X4800Y21555D02*
D03*
X5797Y17953D02*
D03*
X7628Y16437D02*
D03*
X1604Y8543D02*
D03*
X3297Y19852D02*
D03*
X8317Y15384D02*
D03*
X7352Y17175D02*
D03*
X4793D02*
D03*
X4301D02*
D03*
X3297Y21555D02*
D03*
X5305D02*
D03*
X6801Y21545D02*
D03*
X1575Y8898D02*
D03*
X8022Y21781D02*
D03*
X6309Y21555D02*
D03*
X5807Y21545D02*
D03*
X6170Y19970D02*
D03*
X7146Y20187D02*
D03*
X8041Y14419D02*
D03*
X7411Y12677D02*
D03*
X7372Y8514D02*
D03*
D49*
X5869Y2989D02*
D03*
D50*
X4380Y1762D02*
D03*
M02*
