G04 Layer_Color=16711935*
%FSLAX24Y24*%
%MOIN*%
G70*
G01*
G75*
%ADD57C,0.0060*%
%ADD99C,0.0100*%
D57*
X-1175Y9998D02*
Y9598D01*
X-875D01*
X-975Y9798D01*
Y9898D01*
X-875Y9998D01*
X-675D01*
X-575Y9898D01*
Y9698D01*
X-675Y9598D01*
X-1175Y10598D02*
X-1075Y10398D01*
X-875Y10198D01*
X-675D01*
X-575Y10298D01*
Y10498D01*
X-675Y10598D01*
X-775D01*
X-875Y10498D01*
Y10198D01*
X-575Y10798D02*
X-675D01*
Y10898D01*
X-575D01*
Y10798D01*
Y11298D02*
Y11497D01*
Y11398D01*
X-1175D01*
X-1075Y11298D01*
X-1175Y11797D02*
Y12197D01*
X-1075D01*
X-675Y11797D01*
X-575D01*
X3275Y23305D02*
X2875D01*
X3275Y23705D01*
Y23805D01*
X3175Y23905D01*
X2975D01*
X2875Y23805D01*
X3875Y23305D02*
X3475D01*
X3875Y23705D01*
Y23805D01*
X3775Y23905D01*
X3575D01*
X3475Y23805D01*
X4075Y23305D02*
Y23405D01*
X4175D01*
Y23305D01*
X4075D01*
X4975D02*
X4575D01*
X4975Y23705D01*
Y23805D01*
X4875Y23905D01*
X4675D01*
X4575Y23805D01*
X5175Y23905D02*
X5574D01*
Y23805D01*
X5175Y23405D01*
Y23305D01*
D99*
X0Y0D02*
Y22115D01*
Y0D02*
X8770D01*
X-1035Y22115D02*
X-150D01*
X-1035Y0D02*
X-150D01*
X-935Y12357D02*
Y22115D01*
Y0D02*
Y9438D01*
X-1135Y21515D02*
X-935Y22115D01*
X-735Y21515D01*
X-935Y0D02*
X-735Y600D01*
X-1135D02*
X-935Y0D01*
X8770Y22265D02*
Y23765D01*
X0Y22165D02*
Y23765D01*
X5734Y23665D02*
X8770D01*
X0D02*
X2715D01*
X8170Y23865D02*
X8770Y23665D01*
X8170Y23465D02*
X8770Y23665D01*
X0D02*
X600Y23465D01*
X0Y23665D02*
X600Y23865D01*
X8770Y0D02*
Y22115D01*
X0D02*
X8770D01*
M02*
