G04 Layer_Color=65535*
%FSLAX24Y24*%
%MOIN*%
G70*
G01*
G75*
%ADD37C,0.0059*%
%ADD55C,0.0157*%
%ADD56C,0.0079*%
%ADD57C,0.0060*%
%ADD58C,0.0010*%
%ADD59C,0.0080*%
%ADD60C,0.0039*%
%ADD61C,0.0059*%
%ADD62C,0.0039*%
%ADD63R,0.0079X0.0397*%
G36*
X4468Y1068D02*
X4472Y1068D01*
X4475Y1067D01*
X4480Y1066D01*
X4484Y1065D01*
X4489Y1064D01*
X4494Y1062D01*
X4499Y1060D01*
X4504Y1057D01*
X4509Y1054D01*
X4514Y1050D01*
X4518Y1046D01*
X4522Y1040D01*
X4523Y1040D01*
X4523Y1039D01*
X4524Y1038D01*
X4526Y1035D01*
X4527Y1033D01*
X4529Y1030D01*
X4531Y1026D01*
X4534Y1022D01*
X4535Y1018D01*
X4538Y1013D01*
X4541Y1002D01*
X4542Y996D01*
X4543Y990D01*
X4544Y984D01*
X4545Y978D01*
Y977D01*
Y976D01*
Y974D01*
X4544Y971D01*
X4544Y968D01*
X4543Y964D01*
X4543Y960D01*
X4542Y955D01*
X4539Y945D01*
X4537Y939D01*
X4535Y934D01*
X4532Y928D01*
X4528Y923D01*
X4525Y918D01*
X4521Y913D01*
X4520Y912D01*
X4520Y912D01*
X4518Y910D01*
X4516Y909D01*
X4514Y907D01*
X4511Y905D01*
X4508Y902D01*
X4505Y900D01*
X4500Y897D01*
X4496Y895D01*
X4491Y893D01*
X4486Y891D01*
X4481Y889D01*
X4475Y888D01*
X4469Y887D01*
X4462Y887D01*
X4461D01*
X4459Y887D01*
X4456D01*
X4453Y888D01*
X4450Y888D01*
X4446Y889D01*
X4441Y890D01*
X4436Y892D01*
X4432Y893D01*
X4427Y896D01*
X4422Y898D01*
X4417Y901D01*
X4412Y905D01*
X4407Y909D01*
X4403Y913D01*
X4403Y914D01*
X4402Y914D01*
X4401Y916D01*
X4399Y918D01*
X4397Y921D01*
X4396Y924D01*
X4393Y928D01*
X4392Y932D01*
X4389Y936D01*
X4387Y941D01*
X4385Y946D01*
X4384Y952D01*
X4382Y958D01*
X4381Y964D01*
X4380Y971D01*
X4380Y978D01*
Y978D01*
Y979D01*
Y981D01*
X4380Y984D01*
X4381Y987D01*
X4381Y990D01*
X4382Y994D01*
X4383Y999D01*
X4385Y1008D01*
X4387Y1014D01*
X4389Y1019D01*
X4392Y1024D01*
X4395Y1030D01*
X4399Y1035D01*
X4403Y1040D01*
X4403Y1041D01*
X4404Y1042D01*
X4405Y1043D01*
X4407Y1045D01*
X4409Y1047D01*
X4412Y1050D01*
X4415Y1052D01*
X4419Y1055D01*
X4423Y1057D01*
X4427Y1060D01*
X4432Y1062D01*
X4437Y1064D01*
X4443Y1066D01*
X4449Y1068D01*
X4456Y1068D01*
X4462Y1069D01*
X4466D01*
X4468Y1068D01*
D02*
G37*
G36*
X4936Y759D02*
X4921Y755D01*
Y755D01*
X4920Y756D01*
X4919Y758D01*
X4919Y760D01*
X4918Y763D01*
X4917Y766D01*
X4914Y773D01*
X4911Y781D01*
X4907Y788D01*
X4903Y795D01*
X4900Y799D01*
X4898Y801D01*
X4897Y802D01*
X4896Y803D01*
X4893Y806D01*
X4889Y808D01*
X4885Y810D01*
X4880Y812D01*
X4874Y814D01*
X4867Y815D01*
X4867D01*
X4866Y814D01*
X4864D01*
X4860Y813D01*
X4855Y811D01*
X4852Y810D01*
X4849Y807D01*
X4846Y805D01*
X4843Y802D01*
X4839Y799D01*
X4836Y795D01*
X4832Y790D01*
X4829Y785D01*
X4829Y785D01*
X4828Y784D01*
X4828Y782D01*
X4826Y780D01*
X4825Y776D01*
X4824Y773D01*
X4822Y768D01*
X4820Y763D01*
X4819Y757D01*
X4817Y750D01*
X4815Y743D01*
X4814Y734D01*
X4813Y725D01*
X4812Y716D01*
X4812Y705D01*
X4811Y694D01*
Y693D01*
Y692D01*
Y690D01*
X4812Y687D01*
Y683D01*
X4812Y679D01*
X4812Y674D01*
X4813Y668D01*
X4814Y663D01*
X4815Y656D01*
X4817Y643D01*
X4820Y630D01*
X4825Y616D01*
Y616D01*
X4826Y614D01*
X4826Y613D01*
X4827Y610D01*
X4829Y608D01*
X4831Y605D01*
X4835Y598D01*
X4842Y591D01*
X4845Y588D01*
X4849Y586D01*
X4854Y583D01*
X4858Y581D01*
X4863Y580D01*
X4869Y580D01*
X4871D01*
X4874Y580D01*
X4878Y581D01*
X4881Y581D01*
X4885Y582D01*
X4889Y584D01*
X4893Y586D01*
X4893Y586D01*
X4894Y587D01*
X4895Y588D01*
X4897Y590D01*
X4899Y593D01*
X4900Y596D01*
X4902Y600D01*
X4903Y604D01*
Y654D01*
Y655D01*
Y656D01*
Y657D01*
X4902Y659D01*
X4901Y662D01*
X4900Y664D01*
X4899Y665D01*
X4898Y666D01*
X4897Y667D01*
X4893Y668D01*
X4891Y669D01*
X4875D01*
Y685D01*
X4959D01*
Y669D01*
X4945D01*
X4944Y668D01*
X4941Y667D01*
X4938Y665D01*
X4938Y664D01*
X4937Y663D01*
X4935Y660D01*
X4935Y656D01*
Y577D01*
X4934D01*
X4933Y577D01*
X4932Y578D01*
X4930Y578D01*
X4927Y579D01*
X4925D01*
X4924Y579D01*
X4924D01*
X4923Y580D01*
X4922Y580D01*
X4919D01*
X4917Y580D01*
X4915Y579D01*
X4915D01*
X4914Y579D01*
X4913Y578D01*
X4911Y577D01*
X4911Y576D01*
X4909Y575D01*
X4907Y574D01*
X4905Y572D01*
X4902Y570D01*
X4898Y568D01*
X4894Y566D01*
X4890Y565D01*
X4890D01*
X4888Y565D01*
X4886Y564D01*
X4884Y564D01*
X4880Y563D01*
X4876Y562D01*
X4872Y562D01*
X4865D01*
X4863Y562D01*
X4860Y563D01*
X4856Y563D01*
X4851Y564D01*
X4846Y565D01*
X4841Y567D01*
X4835Y569D01*
X4830Y572D01*
X4824Y576D01*
X4818Y580D01*
X4812Y584D01*
X4807Y590D01*
X4802Y596D01*
X4798Y603D01*
X4797Y604D01*
X4797Y605D01*
X4796Y607D01*
X4795Y610D01*
X4793Y614D01*
X4791Y619D01*
X4789Y624D01*
X4787Y630D01*
X4785Y637D01*
X4783Y644D01*
X4781Y651D01*
X4779Y659D01*
X4778Y667D01*
X4777Y676D01*
X4776Y685D01*
X4776Y694D01*
Y695D01*
Y696D01*
Y699D01*
X4776Y703D01*
X4777Y708D01*
X4777Y714D01*
X4778Y720D01*
X4779Y727D01*
X4780Y735D01*
X4782Y743D01*
X4784Y751D01*
X4787Y759D01*
X4790Y767D01*
X4793Y776D01*
X4797Y784D01*
X4801Y792D01*
X4802Y792D01*
X4803Y794D01*
X4804Y795D01*
X4806Y798D01*
X4809Y801D01*
X4812Y805D01*
X4815Y808D01*
X4819Y812D01*
X4824Y816D01*
X4829Y820D01*
X4834Y823D01*
X4840Y826D01*
X4846Y829D01*
X4853Y831D01*
X4860Y833D01*
X4867Y833D01*
X4869D01*
X4871Y833D01*
X4874Y832D01*
X4877Y832D01*
X4881Y831D01*
X4885Y830D01*
X4889Y828D01*
X4890D01*
X4891Y827D01*
X4893Y827D01*
X4895Y826D01*
X4898Y825D01*
X4900Y824D01*
X4902Y824D01*
X4904Y824D01*
X4905D01*
X4906Y824D01*
X4908Y824D01*
X4911Y826D01*
X4911Y826D01*
X4912Y826D01*
X4914Y827D01*
X4915Y828D01*
X4917Y830D01*
X4919Y831D01*
X4922Y833D01*
X4936Y759D01*
D02*
G37*
G36*
X3928Y1457D02*
X3889D01*
X3887Y1456D01*
X3885Y1456D01*
X3882Y1454D01*
X3882Y1454D01*
X3881Y1453D01*
X3880Y1451D01*
X3880Y1449D01*
Y1233D01*
Y1232D01*
X3880Y1231D01*
X3881Y1228D01*
X3882Y1227D01*
X3883Y1226D01*
X3884Y1226D01*
X3886Y1225D01*
X3889Y1225D01*
X3928D01*
Y1208D01*
X3800D01*
Y1225D01*
X3839D01*
X3842Y1225D01*
X3844Y1225D01*
X3845Y1226D01*
X3846Y1227D01*
X3846Y1227D01*
X3847Y1228D01*
X3847Y1230D01*
X3848Y1233D01*
Y1449D01*
Y1449D01*
Y1449D01*
X3847Y1451D01*
X3847Y1453D01*
X3846Y1455D01*
X3846Y1455D01*
X3845Y1456D01*
X3842Y1456D01*
X3841Y1457D01*
X3800D01*
Y1473D01*
X3928D01*
Y1457D01*
D02*
G37*
G36*
X4700Y1154D02*
X4703D01*
X4709Y1154D01*
X4716Y1152D01*
X4723Y1150D01*
X4729Y1148D01*
X4735Y1145D01*
X4736Y1144D01*
X4737Y1143D01*
X4739Y1141D01*
X4742Y1138D01*
X4745Y1134D01*
X4747Y1130D01*
X4748Y1126D01*
X4749Y1121D01*
Y1121D01*
Y1120D01*
X4749Y1118D01*
Y1117D01*
X4747Y1112D01*
X4747Y1110D01*
X4745Y1108D01*
Y1107D01*
X4744Y1107D01*
X4743Y1106D01*
X4742Y1105D01*
X4740Y1104D01*
X4737Y1103D01*
X4734Y1102D01*
X4730Y1102D01*
X4729D01*
X4728Y1102D01*
X4726D01*
X4721Y1104D01*
X4720Y1104D01*
X4717Y1106D01*
X4717Y1106D01*
X4717Y1107D01*
X4716Y1108D01*
X4715Y1109D01*
X4714Y1111D01*
X4713Y1113D01*
X4713Y1116D01*
X4712Y1119D01*
Y1120D01*
Y1121D01*
X4713Y1122D01*
X4713Y1125D01*
Y1125D01*
X4713Y1126D01*
X4714Y1127D01*
Y1129D01*
Y1129D01*
Y1129D01*
X4713Y1131D01*
X4712Y1133D01*
X4710Y1135D01*
X4710Y1135D01*
X4709Y1136D01*
X4707Y1137D01*
X4705Y1137D01*
X4701Y1138D01*
X4697Y1138D01*
X4690D01*
X4686Y1138D01*
X4683Y1137D01*
X4678Y1135D01*
X4674Y1134D01*
X4670Y1131D01*
X4666Y1128D01*
X4665Y1127D01*
X4664Y1126D01*
X4662Y1123D01*
X4661Y1119D01*
X4659Y1115D01*
X4657Y1109D01*
X4656Y1101D01*
X4656Y1092D01*
Y1066D01*
X4719D01*
Y1049D01*
X4656D01*
Y914D01*
Y914D01*
X4656Y912D01*
X4657Y910D01*
X4658Y908D01*
X4658Y908D01*
X4660Y907D01*
X4662Y906D01*
X4665Y906D01*
X4705D01*
Y890D01*
X4587D01*
Y906D01*
X4618D01*
X4620Y906D01*
X4623Y907D01*
X4624Y907D01*
X4625Y908D01*
X4625Y908D01*
X4626Y910D01*
X4626Y912D01*
X4627Y914D01*
Y1049D01*
X4580D01*
Y1066D01*
X4627D01*
Y1088D01*
Y1088D01*
Y1089D01*
Y1091D01*
X4627Y1093D01*
X4627Y1096D01*
X4628Y1099D01*
X4629Y1106D01*
X4632Y1114D01*
X4634Y1119D01*
X4636Y1123D01*
X4638Y1127D01*
X4641Y1131D01*
X4644Y1134D01*
X4648Y1138D01*
X4648Y1138D01*
X4649Y1138D01*
X4650Y1139D01*
X4651Y1140D01*
X4653Y1142D01*
X4656Y1143D01*
X4661Y1146D01*
X4668Y1149D01*
X4676Y1152D01*
X4684Y1154D01*
X4689Y1155D01*
X4698D01*
X4700Y1154D01*
D02*
G37*
G36*
X5132Y765D02*
X5118Y760D01*
Y761D01*
X5117Y762D01*
X5116Y764D01*
X5115Y766D01*
X5114Y768D01*
X5112Y771D01*
X5109Y778D01*
X5105Y786D01*
X5100Y793D01*
X5097Y796D01*
X5095Y799D01*
X5092Y802D01*
X5090Y804D01*
X5089Y804D01*
X5087Y806D01*
X5084Y807D01*
X5080Y810D01*
X5076Y811D01*
X5069Y813D01*
X5063Y814D01*
X5055Y815D01*
X5053D01*
X5051Y814D01*
X5049D01*
X5046Y814D01*
X5041Y813D01*
X5035Y811D01*
X5029Y808D01*
X5024Y805D01*
X5021Y803D01*
X5019Y800D01*
X5019Y799D01*
X5018Y798D01*
X5016Y795D01*
X5014Y791D01*
X5013Y786D01*
X5011Y781D01*
X5010Y775D01*
X5010Y769D01*
Y768D01*
Y767D01*
X5010Y764D01*
X5011Y760D01*
X5012Y756D01*
X5013Y752D01*
X5016Y748D01*
X5018Y745D01*
X5019Y744D01*
X5021Y743D01*
X5022Y742D01*
X5024Y741D01*
X5026Y740D01*
X5028Y738D01*
X5032Y736D01*
X5035Y734D01*
X5040Y732D01*
X5044Y729D01*
X5050Y726D01*
X5056Y723D01*
X5063Y720D01*
X5070Y717D01*
X5071D01*
X5072Y716D01*
X5074Y715D01*
X5077Y714D01*
X5080Y712D01*
X5083Y711D01*
X5091Y707D01*
X5100Y701D01*
X5109Y695D01*
X5117Y689D01*
X5121Y685D01*
X5124Y681D01*
X5124Y681D01*
X5125Y681D01*
X5125Y680D01*
X5127Y678D01*
X5128Y676D01*
X5129Y674D01*
X5132Y668D01*
X5135Y661D01*
X5138Y654D01*
X5140Y645D01*
X5141Y640D01*
Y635D01*
Y635D01*
Y634D01*
Y632D01*
X5140Y630D01*
X5140Y628D01*
X5140Y625D01*
X5138Y618D01*
X5136Y610D01*
X5132Y602D01*
X5130Y597D01*
X5127Y593D01*
X5124Y589D01*
X5121Y584D01*
X5120Y584D01*
X5120Y583D01*
X5119Y582D01*
X5117Y581D01*
X5115Y579D01*
X5112Y577D01*
X5109Y575D01*
X5106Y573D01*
X5102Y571D01*
X5098Y569D01*
X5093Y567D01*
X5088Y566D01*
X5082Y564D01*
X5076Y563D01*
X5070Y562D01*
X5063Y562D01*
X5060D01*
X5057Y562D01*
X5053Y563D01*
X5049Y563D01*
X5044Y564D01*
X5039Y565D01*
X5034Y567D01*
X5033Y568D01*
X5032Y568D01*
X5030Y569D01*
X5027Y570D01*
X5021Y572D01*
X5017Y572D01*
X5015Y572D01*
X5014D01*
X5013Y572D01*
X5010Y571D01*
X5008Y570D01*
X5007D01*
X5007Y569D01*
X5006Y569D01*
X5004Y568D01*
X5002Y567D01*
X5000Y565D01*
X4996Y564D01*
X4992Y562D01*
X4979Y642D01*
X4995Y646D01*
Y646D01*
X4995Y645D01*
X4996Y643D01*
X4997Y640D01*
X4998Y637D01*
X4999Y633D01*
X5003Y625D01*
X5007Y616D01*
X5012Y607D01*
X5014Y603D01*
X5018Y600D01*
X5021Y596D01*
X5024Y593D01*
X5024D01*
X5025Y593D01*
X5026Y592D01*
X5027Y591D01*
X5031Y589D01*
X5036Y587D01*
X5042Y584D01*
X5049Y582D01*
X5056Y581D01*
X5064Y580D01*
X5066D01*
X5068Y580D01*
X5072Y581D01*
X5078Y582D01*
X5083Y583D01*
X5089Y586D01*
X5095Y589D01*
X5100Y594D01*
X5100Y594D01*
X5101Y596D01*
X5103Y600D01*
X5106Y604D01*
X5108Y610D01*
X5110Y617D01*
X5111Y625D01*
X5112Y635D01*
Y636D01*
X5111Y637D01*
X5111Y640D01*
X5110Y644D01*
X5108Y648D01*
X5106Y652D01*
X5103Y657D01*
X5098Y662D01*
X5097Y663D01*
X5096Y664D01*
X5092Y667D01*
X5090Y669D01*
X5088Y671D01*
X5085Y673D01*
X5081Y675D01*
X5077Y677D01*
X5073Y680D01*
X5069Y683D01*
X5064Y685D01*
X5059Y688D01*
X5053Y691D01*
X5053Y691D01*
X5051Y692D01*
X5049Y692D01*
X5047Y694D01*
X5044Y695D01*
X5040Y697D01*
X5036Y699D01*
X5032Y701D01*
X5022Y705D01*
X5013Y711D01*
X5005Y716D01*
X5001Y719D01*
X4998Y721D01*
Y721D01*
X4997Y722D01*
X4996Y724D01*
X4993Y727D01*
X4990Y732D01*
X4987Y739D01*
X4985Y746D01*
X4983Y755D01*
X4982Y760D01*
X4982Y766D01*
Y766D01*
Y767D01*
Y768D01*
X4982Y770D01*
X4983Y772D01*
X4983Y775D01*
X4985Y780D01*
X4987Y788D01*
X4990Y795D01*
X4993Y799D01*
X4996Y803D01*
X4998Y807D01*
X5002Y811D01*
X5002Y812D01*
X5003Y812D01*
X5004Y813D01*
X5006Y815D01*
X5008Y816D01*
X5010Y818D01*
X5013Y820D01*
X5017Y822D01*
X5020Y824D01*
X5025Y826D01*
X5029Y828D01*
X5034Y830D01*
X5040Y831D01*
X5046Y832D01*
X5052Y833D01*
X5058Y833D01*
X5061D01*
X5064Y833D01*
X5068Y832D01*
X5072Y831D01*
X5077Y831D01*
X5082Y829D01*
X5088Y827D01*
X5088Y827D01*
X5090Y827D01*
X5092Y826D01*
X5095Y825D01*
X5101Y823D01*
X5104Y823D01*
X5107Y822D01*
X5107D01*
X5108Y823D01*
X5111Y823D01*
X5112Y824D01*
X5113Y824D01*
X5114Y825D01*
X5115Y826D01*
X5117Y827D01*
X5119Y829D01*
X5121Y831D01*
X5124Y833D01*
X5132Y765D01*
D02*
G37*
G36*
X4767Y813D02*
X4750D01*
X4748Y813D01*
X4745Y812D01*
X4743Y811D01*
X4743Y811D01*
X4742Y810D01*
X4741Y808D01*
X4741Y805D01*
Y565D01*
X4725D01*
X4614Y782D01*
Y590D01*
Y589D01*
X4615Y587D01*
X4615Y585D01*
X4617Y583D01*
X4617Y583D01*
X4618Y582D01*
X4621Y582D01*
X4624Y581D01*
X4640D01*
Y565D01*
X4572D01*
Y581D01*
X4589D01*
X4591Y582D01*
X4593Y582D01*
X4595Y583D01*
X4595Y584D01*
X4596Y585D01*
X4597Y587D01*
X4597Y590D01*
Y805D01*
Y806D01*
Y806D01*
X4597Y808D01*
X4597Y810D01*
X4595Y811D01*
X4595Y812D01*
X4594Y812D01*
X4591Y813D01*
X4590Y813D01*
X4575D01*
Y830D01*
X4625D01*
X4724Y640D01*
Y805D01*
Y806D01*
Y806D01*
X4723Y808D01*
X4723Y810D01*
X4722Y811D01*
X4721Y812D01*
X4720Y812D01*
X4718Y813D01*
X4716Y813D01*
X4698D01*
Y830D01*
X4767D01*
Y813D01*
D02*
G37*
G36*
X4536D02*
X4497D01*
X4495Y813D01*
X4493Y812D01*
X4491Y811D01*
X4490Y811D01*
X4490Y810D01*
X4488Y808D01*
X4488Y805D01*
Y590D01*
Y589D01*
X4488Y587D01*
X4489Y585D01*
X4491Y583D01*
X4491Y583D01*
X4492Y582D01*
X4495Y582D01*
X4498Y581D01*
X4536D01*
Y565D01*
X4408D01*
Y581D01*
X4448D01*
X4450Y582D01*
X4452Y582D01*
X4454Y582D01*
X4454Y583D01*
X4455Y584D01*
X4455Y585D01*
X4456Y587D01*
X4456Y590D01*
Y805D01*
Y806D01*
Y806D01*
X4456Y808D01*
X4455Y810D01*
X4454Y811D01*
X4454Y812D01*
X4453Y812D01*
X4450Y813D01*
X4449Y813D01*
X4408D01*
Y830D01*
X4536D01*
Y813D01*
D02*
G37*
G36*
X4165Y766D02*
X4151Y764D01*
Y764D01*
X4150Y765D01*
X4150Y767D01*
X4149Y769D01*
X4148Y772D01*
X4147Y775D01*
X4144Y782D01*
X4140Y788D01*
X4137Y795D01*
X4136Y798D01*
X4134Y800D01*
X4133Y803D01*
X4132Y804D01*
X4131Y805D01*
X4131Y806D01*
X4129Y807D01*
X4127Y808D01*
X4123Y810D01*
X4119Y811D01*
X4114Y811D01*
X4107Y812D01*
X4095D01*
X4094Y811D01*
X4093D01*
Y811D01*
Y811D01*
Y810D01*
X4093Y808D01*
Y806D01*
Y803D01*
Y799D01*
Y590D01*
Y589D01*
X4093Y587D01*
X4094Y585D01*
X4095Y583D01*
X4096Y583D01*
X4097Y582D01*
X4099Y582D01*
X4102Y581D01*
X4120D01*
Y565D01*
X4033D01*
Y581D01*
X4052D01*
X4054Y582D01*
X4057Y582D01*
X4059Y583D01*
X4059Y584D01*
X4060Y585D01*
X4060Y587D01*
X4061Y590D01*
Y801D01*
Y801D01*
Y802D01*
Y804D01*
Y806D01*
Y808D01*
Y810D01*
X4060Y811D01*
Y811D01*
X4060D01*
X4059Y812D01*
X4048D01*
X4045Y811D01*
X4041Y811D01*
X4036Y810D01*
X4032Y809D01*
X4028Y807D01*
X4024Y805D01*
X4024Y804D01*
X4023Y803D01*
X4021Y801D01*
X4020Y799D01*
X4019Y797D01*
X4018Y795D01*
X4016Y792D01*
X4015Y788D01*
X4013Y785D01*
X4011Y780D01*
X4009Y775D01*
X4007Y770D01*
X4004Y764D01*
X3988Y766D01*
X4003Y830D01*
X4152D01*
X4165Y766D01*
D02*
G37*
G36*
X4367Y813D02*
X4356D01*
X4354Y813D01*
X4352Y812D01*
X4349Y811D01*
X4349Y811D01*
X4348Y810D01*
X4347Y808D01*
X4347Y805D01*
Y590D01*
Y589D01*
X4347Y587D01*
X4348Y585D01*
X4349Y583D01*
X4350Y583D01*
X4351Y582D01*
X4353Y582D01*
X4357Y581D01*
X4368D01*
Y565D01*
X4294D01*
Y581D01*
X4306D01*
X4309Y582D01*
X4311Y582D01*
X4312Y582D01*
X4313Y583D01*
X4313Y584D01*
X4314Y585D01*
X4314Y587D01*
X4315Y590D01*
Y696D01*
X4234D01*
Y590D01*
Y589D01*
X4234Y587D01*
X4235Y585D01*
X4236Y583D01*
X4237Y583D01*
X4238Y582D01*
X4240Y582D01*
X4243Y581D01*
X4255D01*
Y565D01*
X4181D01*
Y581D01*
X4193D01*
X4195Y582D01*
X4198Y582D01*
X4200Y583D01*
X4200Y584D01*
X4201Y585D01*
X4202Y587D01*
X4202Y590D01*
Y805D01*
Y806D01*
Y806D01*
X4202Y808D01*
X4201Y810D01*
X4200Y811D01*
X4199Y812D01*
X4198Y812D01*
X4196Y813D01*
X4193Y813D01*
X4182D01*
Y830D01*
X4254D01*
Y813D01*
X4243D01*
X4241Y813D01*
X4238Y812D01*
X4236Y811D01*
X4236Y811D01*
X4235Y810D01*
X4234Y808D01*
X4234Y805D01*
Y712D01*
X4315D01*
Y805D01*
Y806D01*
Y806D01*
X4314Y808D01*
X4314Y810D01*
X4313Y811D01*
X4313Y812D01*
X4312Y812D01*
X4309Y813D01*
X4308Y813D01*
X4295D01*
Y830D01*
X4367D01*
Y813D01*
D02*
G37*
G36*
X4659Y1473D02*
X4662D01*
X4665Y1473D01*
X4669Y1472D01*
X4673Y1471D01*
X4682Y1469D01*
X4692Y1466D01*
X4701Y1462D01*
X4705Y1460D01*
X4709Y1457D01*
X4709D01*
X4710Y1456D01*
X4711Y1455D01*
X4712Y1454D01*
X4714Y1452D01*
X4716Y1450D01*
X4717Y1448D01*
X4719Y1445D01*
X4721Y1442D01*
X4723Y1438D01*
X4725Y1434D01*
X4726Y1430D01*
X4728Y1425D01*
X4729Y1421D01*
X4729Y1415D01*
X4729Y1409D01*
Y1409D01*
Y1408D01*
Y1406D01*
X4729Y1404D01*
Y1401D01*
X4728Y1398D01*
X4727Y1391D01*
X4725Y1383D01*
X4722Y1375D01*
X4720Y1371D01*
X4717Y1367D01*
X4715Y1363D01*
X4712Y1360D01*
X4711Y1359D01*
X4711Y1359D01*
X4709Y1357D01*
X4705Y1354D01*
X4701Y1351D01*
X4695Y1347D01*
X4689Y1344D01*
X4682Y1341D01*
X4675Y1340D01*
X4720Y1233D01*
Y1233D01*
X4720Y1232D01*
X4721Y1230D01*
X4723Y1228D01*
X4725Y1226D01*
X4725Y1226D01*
X4727Y1225D01*
X4729Y1225D01*
X4731Y1225D01*
X4744D01*
Y1208D01*
X4696D01*
X4646Y1338D01*
X4618D01*
Y1233D01*
Y1232D01*
X4618Y1231D01*
X4619Y1228D01*
X4620Y1227D01*
X4621Y1226D01*
X4622Y1226D01*
X4624Y1225D01*
X4627Y1225D01*
X4641D01*
Y1208D01*
X4563D01*
Y1225D01*
X4577D01*
X4579Y1225D01*
X4582Y1225D01*
X4583Y1226D01*
X4584Y1227D01*
X4584Y1227D01*
X4585Y1228D01*
X4586Y1230D01*
X4586Y1233D01*
Y1449D01*
Y1449D01*
Y1449D01*
X4586Y1451D01*
X4585Y1453D01*
X4584Y1455D01*
X4583Y1455D01*
X4582Y1456D01*
X4580Y1456D01*
X4578Y1457D01*
X4563D01*
Y1473D01*
X4657D01*
X4659Y1473D01*
D02*
G37*
G36*
X4538Y1416D02*
X4525Y1411D01*
Y1412D01*
X4524Y1413D01*
X4523Y1414D01*
X4523Y1415D01*
X4520Y1419D01*
X4517Y1425D01*
X4513Y1430D01*
X4508Y1436D01*
X4504Y1442D01*
X4499Y1446D01*
X4498Y1446D01*
X4497Y1448D01*
X4494Y1449D01*
X4491Y1451D01*
X4487Y1453D01*
X4482Y1455D01*
X4477Y1456D01*
X4471Y1457D01*
X4428D01*
X4427Y1456D01*
X4424Y1456D01*
X4422Y1454D01*
X4421Y1454D01*
X4421Y1453D01*
X4420Y1451D01*
X4420Y1449D01*
Y1359D01*
X4462D01*
X4464Y1359D01*
X4467Y1359D01*
X4470Y1360D01*
X4473Y1361D01*
X4476Y1363D01*
X4478Y1365D01*
X4478Y1365D01*
X4479Y1366D01*
X4480Y1368D01*
X4481Y1370D01*
X4482Y1373D01*
X4483Y1376D01*
X4483Y1381D01*
X4484Y1385D01*
Y1398D01*
X4501D01*
Y1302D01*
X4484D01*
Y1312D01*
Y1312D01*
Y1314D01*
X4483Y1317D01*
X4483Y1320D01*
X4482Y1324D01*
X4481Y1327D01*
X4480Y1331D01*
X4478Y1334D01*
X4478Y1335D01*
X4477Y1335D01*
X4475Y1337D01*
X4474Y1338D01*
X4471Y1340D01*
X4468Y1341D01*
X4464Y1342D01*
X4459Y1342D01*
X4420D01*
Y1233D01*
Y1232D01*
X4420Y1231D01*
X4421Y1228D01*
X4422Y1227D01*
X4422Y1226D01*
X4424Y1226D01*
X4426Y1225D01*
X4429Y1225D01*
X4470D01*
X4472Y1225D01*
X4476Y1225D01*
X4480Y1226D01*
X4486Y1228D01*
X4492Y1230D01*
X4498Y1233D01*
X4504Y1237D01*
X4505Y1237D01*
X4507Y1239D01*
X4509Y1242D01*
X4513Y1247D01*
X4517Y1252D01*
X4519Y1255D01*
X4521Y1259D01*
X4523Y1263D01*
X4525Y1268D01*
X4527Y1273D01*
X4529Y1278D01*
X4543Y1273D01*
X4526Y1208D01*
X4365D01*
Y1225D01*
X4379D01*
X4381Y1225D01*
X4384Y1225D01*
X4385Y1226D01*
X4385Y1227D01*
X4386Y1227D01*
X4387Y1228D01*
X4387Y1230D01*
X4387Y1233D01*
Y1449D01*
Y1449D01*
Y1449D01*
X4387Y1451D01*
X4387Y1453D01*
X4385Y1455D01*
X4385Y1455D01*
X4384Y1456D01*
X4381Y1456D01*
X4380Y1457D01*
X4366D01*
Y1473D01*
X4521D01*
X4538Y1416D01*
D02*
G37*
G36*
X5329Y1409D02*
X5315Y1407D01*
Y1407D01*
X5314Y1409D01*
X5314Y1410D01*
X5313Y1413D01*
X5312Y1415D01*
X5311Y1418D01*
X5308Y1425D01*
X5305Y1432D01*
X5301Y1438D01*
X5300Y1441D01*
X5298Y1444D01*
X5297Y1446D01*
X5296Y1448D01*
X5295Y1448D01*
X5295Y1449D01*
X5293Y1450D01*
X5291Y1451D01*
X5287Y1453D01*
X5283Y1454D01*
X5278Y1455D01*
X5271Y1455D01*
X5259D01*
X5258Y1455D01*
X5257D01*
Y1454D01*
Y1454D01*
Y1453D01*
X5257Y1451D01*
Y1449D01*
Y1446D01*
Y1442D01*
Y1233D01*
Y1232D01*
X5257Y1231D01*
X5258Y1228D01*
X5259Y1227D01*
X5260Y1226D01*
X5261Y1226D01*
X5263Y1225D01*
X5266Y1225D01*
X5284D01*
Y1208D01*
X5198D01*
Y1225D01*
X5216D01*
X5218Y1225D01*
X5221Y1225D01*
X5223Y1227D01*
X5223Y1227D01*
X5224Y1228D01*
X5224Y1230D01*
X5225Y1233D01*
Y1444D01*
Y1445D01*
Y1446D01*
Y1447D01*
Y1449D01*
Y1451D01*
Y1453D01*
X5224Y1454D01*
Y1455D01*
X5224D01*
X5223Y1455D01*
X5212D01*
X5209Y1455D01*
X5205Y1454D01*
X5200Y1453D01*
X5196Y1452D01*
X5192Y1450D01*
X5188Y1448D01*
X5188Y1448D01*
X5187Y1447D01*
X5186Y1444D01*
X5184Y1443D01*
X5183Y1441D01*
X5182Y1438D01*
X5180Y1435D01*
X5179Y1432D01*
X5177Y1428D01*
X5175Y1424D01*
X5173Y1419D01*
X5171Y1413D01*
X5168Y1407D01*
X5152Y1409D01*
X5167Y1473D01*
X5317D01*
X5329Y1409D01*
D02*
G37*
G36*
X5129Y1416D02*
X5116Y1411D01*
Y1412D01*
X5115Y1413D01*
X5114Y1414D01*
X5113Y1415D01*
X5111Y1419D01*
X5108Y1425D01*
X5104Y1430D01*
X5099Y1436D01*
X5095Y1442D01*
X5090Y1446D01*
X5089Y1446D01*
X5088Y1448D01*
X5085Y1449D01*
X5081Y1451D01*
X5077Y1453D01*
X5073Y1455D01*
X5068Y1456D01*
X5062Y1457D01*
X5019D01*
X5017Y1456D01*
X5015Y1456D01*
X5013Y1454D01*
X5012Y1454D01*
X5012Y1453D01*
X5011Y1451D01*
X5010Y1449D01*
Y1359D01*
X5052D01*
X5054Y1359D01*
X5057Y1359D01*
X5060Y1360D01*
X5064Y1361D01*
X5066Y1363D01*
X5069Y1365D01*
X5069Y1365D01*
X5070Y1366D01*
X5070Y1368D01*
X5072Y1370D01*
X5073Y1373D01*
X5074Y1376D01*
X5074Y1381D01*
X5074Y1385D01*
Y1398D01*
X5092D01*
Y1302D01*
X5074D01*
Y1312D01*
Y1312D01*
Y1314D01*
X5074Y1317D01*
X5074Y1320D01*
X5073Y1324D01*
X5072Y1327D01*
X5070Y1331D01*
X5069Y1334D01*
X5068Y1335D01*
X5068Y1335D01*
X5066Y1337D01*
X5064Y1338D01*
X5062Y1340D01*
X5058Y1341D01*
X5054Y1342D01*
X5050Y1342D01*
X5010D01*
Y1233D01*
Y1232D01*
X5011Y1231D01*
X5012Y1228D01*
X5013Y1227D01*
X5013Y1226D01*
X5014Y1226D01*
X5017Y1225D01*
X5020Y1225D01*
X5061D01*
X5062Y1225D01*
X5066Y1225D01*
X5071Y1226D01*
X5077Y1228D01*
X5083Y1230D01*
X5089Y1233D01*
X5095Y1237D01*
X5096Y1237D01*
X5097Y1239D01*
X5100Y1242D01*
X5104Y1247D01*
X5108Y1252D01*
X5109Y1255D01*
X5112Y1259D01*
X5114Y1263D01*
X5116Y1268D01*
X5118Y1273D01*
X5120Y1278D01*
X5134Y1273D01*
X5116Y1208D01*
X4955D01*
Y1225D01*
X4970D01*
X4972Y1225D01*
X4974Y1225D01*
X4975Y1226D01*
X4976Y1227D01*
X4977Y1227D01*
X4977Y1228D01*
X4978Y1230D01*
X4978Y1233D01*
Y1449D01*
Y1449D01*
Y1449D01*
X4978Y1451D01*
X4977Y1453D01*
X4976Y1455D01*
X4976Y1455D01*
X4975Y1456D01*
X4972Y1456D01*
X4971Y1457D01*
X4957D01*
Y1473D01*
X5112D01*
X5129Y1416D01*
D02*
G37*
G36*
X2411Y13032D02*
X2292Y12952D01*
Y13110D01*
X2411Y13032D01*
D02*
G37*
G36*
X3017Y4715D02*
X3076Y4676D01*
X3115Y4618D01*
X3128Y4549D01*
X3115Y4481D01*
X3076Y4422D01*
X3017Y4383D01*
X2949Y4370D01*
X2880Y4383D01*
X2822Y4422D01*
X2783Y4481D01*
X2769Y4549D01*
X2783Y4618D01*
X2822Y4676D01*
X2880Y4715D01*
X2949Y4729D01*
X3017Y4715D01*
D02*
G37*
G36*
X4946Y1457D02*
X4929D01*
X4927Y1456D01*
X4925Y1456D01*
X4923Y1454D01*
X4922Y1454D01*
X4922Y1453D01*
X4921Y1451D01*
X4920Y1449D01*
Y1208D01*
X4905D01*
X4794Y1425D01*
Y1233D01*
Y1232D01*
X4794Y1231D01*
X4795Y1228D01*
X4796Y1227D01*
X4796Y1226D01*
X4798Y1226D01*
X4800Y1225D01*
X4803Y1225D01*
X4819D01*
Y1208D01*
X4751D01*
Y1225D01*
X4768D01*
X4770Y1225D01*
X4773Y1225D01*
X4775Y1227D01*
X4775Y1227D01*
X4776Y1228D01*
X4776Y1230D01*
X4777Y1233D01*
Y1449D01*
Y1449D01*
Y1449D01*
X4776Y1451D01*
X4776Y1453D01*
X4775Y1455D01*
X4775Y1455D01*
X4773Y1456D01*
X4771Y1456D01*
X4769Y1457D01*
X4754D01*
Y1473D01*
X4804D01*
X4903Y1283D01*
Y1449D01*
Y1449D01*
Y1449D01*
X4903Y1451D01*
X4902Y1453D01*
X4901Y1455D01*
X4901Y1455D01*
X4900Y1456D01*
X4897Y1456D01*
X4896Y1457D01*
X4878D01*
Y1473D01*
X4946D01*
Y1457D01*
D02*
G37*
G36*
X4158D02*
X4142D01*
X4140Y1456D01*
X4137Y1456D01*
X4135Y1454D01*
X4135Y1454D01*
X4134Y1453D01*
X4133Y1451D01*
X4132Y1449D01*
Y1208D01*
X4117D01*
X4006Y1425D01*
Y1233D01*
Y1232D01*
X4007Y1231D01*
X4007Y1228D01*
X4008Y1227D01*
X4009Y1226D01*
X4010Y1226D01*
X4012Y1225D01*
X4016Y1225D01*
X4032D01*
Y1208D01*
X3964D01*
Y1225D01*
X3980D01*
X3983Y1225D01*
X3985Y1225D01*
X3987Y1227D01*
X3987Y1227D01*
X3988Y1228D01*
X3989Y1230D01*
X3989Y1233D01*
Y1449D01*
Y1449D01*
Y1449D01*
X3989Y1451D01*
X3988Y1453D01*
X3987Y1455D01*
X3987Y1455D01*
X3986Y1456D01*
X3983Y1456D01*
X3982Y1457D01*
X3966D01*
Y1473D01*
X4017D01*
X4115Y1283D01*
Y1449D01*
Y1449D01*
Y1449D01*
X4115Y1451D01*
X4115Y1453D01*
X4114Y1455D01*
X4113Y1455D01*
X4112Y1456D01*
X4110Y1456D01*
X4108Y1457D01*
X4090D01*
Y1473D01*
X4158D01*
Y1457D01*
D02*
G37*
G36*
X4345Y1409D02*
X4330Y1407D01*
Y1407D01*
X4330Y1409D01*
X4329Y1410D01*
X4328Y1413D01*
X4327Y1415D01*
X4326Y1418D01*
X4323Y1425D01*
X4320Y1432D01*
X4317Y1438D01*
X4315Y1441D01*
X4314Y1444D01*
X4312Y1446D01*
X4311Y1448D01*
X4311Y1448D01*
X4310Y1449D01*
X4308Y1450D01*
X4306Y1451D01*
X4302Y1453D01*
X4298Y1454D01*
X4293Y1455D01*
X4286Y1455D01*
X4275D01*
X4273Y1455D01*
X4273D01*
Y1454D01*
Y1454D01*
Y1453D01*
X4272Y1451D01*
Y1449D01*
Y1446D01*
Y1442D01*
Y1233D01*
Y1232D01*
X4273Y1231D01*
X4273Y1228D01*
X4275Y1227D01*
X4275Y1226D01*
X4277Y1226D01*
X4279Y1225D01*
X4282Y1225D01*
X4300D01*
Y1208D01*
X4213D01*
Y1225D01*
X4231D01*
X4234Y1225D01*
X4236Y1225D01*
X4238Y1227D01*
X4238Y1227D01*
X4239Y1228D01*
X4240Y1230D01*
X4240Y1233D01*
Y1444D01*
Y1445D01*
Y1446D01*
Y1447D01*
Y1449D01*
Y1451D01*
Y1453D01*
X4240Y1454D01*
Y1455D01*
X4239D01*
X4239Y1455D01*
X4227D01*
X4224Y1455D01*
X4220Y1454D01*
X4215Y1453D01*
X4211Y1452D01*
X4207Y1450D01*
X4204Y1448D01*
X4203Y1448D01*
X4202Y1447D01*
X4201Y1444D01*
X4200Y1443D01*
X4199Y1441D01*
X4197Y1438D01*
X4196Y1435D01*
X4194Y1432D01*
X4192Y1428D01*
X4190Y1424D01*
X4188Y1419D01*
X4186Y1413D01*
X4183Y1407D01*
X4168Y1409D01*
X4182Y1473D01*
X4332D01*
X4345Y1409D01*
D02*
G37*
%LPC*%
G36*
X4644Y1457D02*
X4627D01*
X4625Y1456D01*
X4622Y1456D01*
X4620Y1454D01*
X4620Y1454D01*
X4619Y1453D01*
X4618Y1451D01*
X4618Y1449D01*
Y1354D01*
X4649D01*
X4651Y1355D01*
X4654Y1355D01*
X4659Y1356D01*
X4665Y1357D01*
X4670Y1359D01*
X4676Y1363D01*
X4682Y1367D01*
X4682Y1367D01*
X4684Y1369D01*
X4686Y1372D01*
X4689Y1377D01*
X4691Y1382D01*
X4693Y1389D01*
X4695Y1397D01*
X4696Y1406D01*
Y1407D01*
Y1407D01*
Y1409D01*
Y1410D01*
X4695Y1415D01*
X4694Y1420D01*
X4693Y1426D01*
X4690Y1432D01*
X4687Y1438D01*
X4683Y1443D01*
X4682Y1444D01*
X4681Y1446D01*
X4678Y1447D01*
X4674Y1450D01*
X4668Y1453D01*
X4661Y1454D01*
X4653Y1456D01*
X4644Y1457D01*
D02*
G37*
G36*
X4462Y1052D02*
X4460D01*
X4459Y1052D01*
X4455Y1051D01*
X4451Y1050D01*
X4445Y1047D01*
X4439Y1044D01*
X4436Y1042D01*
X4433Y1039D01*
X4430Y1036D01*
X4427Y1033D01*
Y1033D01*
X4427Y1032D01*
X4426Y1031D01*
X4425Y1030D01*
X4424Y1028D01*
X4423Y1025D01*
X4421Y1022D01*
X4420Y1019D01*
X4418Y1015D01*
X4417Y1011D01*
X4416Y1006D01*
X4415Y1001D01*
X4413Y996D01*
X4413Y990D01*
X4412Y983D01*
X4412Y976D01*
Y976D01*
Y975D01*
Y973D01*
X4412Y970D01*
Y967D01*
X4413Y964D01*
X4413Y960D01*
X4414Y955D01*
X4416Y946D01*
X4418Y937D01*
X4422Y928D01*
X4424Y924D01*
X4427Y921D01*
X4427Y920D01*
X4427Y920D01*
X4429Y918D01*
X4432Y915D01*
X4437Y912D01*
X4442Y909D01*
X4448Y906D01*
X4455Y904D01*
X4459Y904D01*
X4462Y903D01*
X4464D01*
X4466Y904D01*
X4470Y904D01*
X4476Y906D01*
X4482Y908D01*
X4488Y911D01*
X4491Y913D01*
X4494Y916D01*
X4496Y919D01*
X4499Y922D01*
Y922D01*
X4500Y923D01*
X4500Y924D01*
X4501Y926D01*
X4502Y928D01*
X4503Y930D01*
X4504Y933D01*
X4506Y936D01*
X4507Y940D01*
X4508Y944D01*
X4509Y948D01*
X4510Y953D01*
X4511Y959D01*
X4512Y964D01*
X4512Y970D01*
Y976D01*
Y977D01*
Y978D01*
Y980D01*
X4512Y983D01*
Y986D01*
X4512Y989D01*
X4511Y993D01*
X4511Y998D01*
X4509Y1007D01*
X4506Y1016D01*
X4503Y1025D01*
X4500Y1030D01*
X4498Y1033D01*
Y1034D01*
X4497Y1034D01*
X4495Y1036D01*
X4492Y1039D01*
X4488Y1043D01*
X4483Y1046D01*
X4476Y1049D01*
X4470Y1051D01*
X4466Y1052D01*
X4462Y1052D01*
D02*
G37*
%LPD*%
D37*
X4856Y16072D02*
Y16511D01*
D55*
X7304Y21815D02*
G03*
X7304Y21815I-4J0D01*
G01*
D56*
X7750Y20143D02*
G03*
X7750Y20015I0J-64D01*
G01*
X275Y8313D02*
X1575D01*
Y10813D01*
X275Y8313D02*
Y10813D01*
X1575D01*
X258Y13449D02*
X1258D01*
Y11449D02*
Y13449D01*
X258Y11449D02*
X1258D01*
X258D02*
Y13449D01*
X7750Y17165D02*
Y19677D01*
Y20127D02*
Y21615D01*
X1900D02*
X7750D01*
X1900Y17165D02*
Y21615D01*
Y17165D02*
X7750D01*
Y19677D02*
Y20015D01*
D57*
X3678Y12667D02*
X4078D01*
X4515Y12677D02*
X4915D01*
X7871Y12661D02*
X8271D01*
X7871Y13892D02*
X8271D01*
X2983Y16691D02*
Y16961D01*
X1969Y16691D02*
Y16961D01*
X2667Y13914D02*
Y14314D01*
X2513Y15382D02*
Y15602D01*
X2598Y16192D02*
X3233D01*
X2598Y14822D02*
X3233D01*
D58*
X373Y18101D02*
Y18371D01*
X383Y18071D02*
Y18401D01*
X393Y18031D02*
Y18441D01*
X403Y18011D02*
Y18461D01*
X413Y17981D02*
Y18491D01*
X423Y17971D02*
Y18511D01*
X433Y17941D02*
Y18531D01*
X443Y17931D02*
Y18551D01*
X453Y17911D02*
Y18141D01*
Y18191D02*
Y18201D01*
Y18331D02*
Y18571D01*
X463Y17891D02*
Y18111D01*
Y18361D02*
Y18581D01*
X473Y17891D02*
Y18071D01*
Y18381D02*
Y18391D01*
Y18411D02*
Y18591D01*
X483Y17901D02*
Y18041D01*
Y18431D02*
Y18591D01*
X493Y17911D02*
Y18021D01*
Y18461D02*
Y18581D01*
X503Y17911D02*
Y18001D01*
Y18161D02*
Y18321D01*
Y18481D02*
Y18571D01*
X513Y17921D02*
Y17981D01*
Y18101D02*
Y18381D01*
Y18481D02*
Y18491D01*
Y18501D02*
Y18571D01*
X523Y17931D02*
Y17961D01*
Y18081D02*
Y18401D01*
Y18511D02*
Y18561D01*
X533Y17951D02*
Y17961D01*
Y18041D02*
Y18431D01*
Y18531D02*
Y18551D01*
X543Y18031D02*
Y18451D01*
X553Y18001D02*
Y18471D01*
X563Y17991D02*
Y18481D01*
X573Y17971D02*
Y18161D01*
Y18321D02*
Y18501D01*
X583Y17971D02*
Y18131D01*
Y18351D02*
Y18511D01*
X593Y17971D02*
Y18091D01*
Y18361D02*
Y18371D01*
Y18381D02*
Y18521D01*
X603Y17991D02*
Y18071D01*
Y18401D02*
Y18501D01*
X613Y17981D02*
Y18051D01*
Y18431D02*
Y18491D01*
X623Y18001D02*
Y18031D01*
Y18441D02*
Y18491D01*
X633Y17611D02*
Y17761D01*
Y18161D02*
Y18311D01*
Y18461D02*
Y18481D01*
Y18541D02*
Y18921D01*
X643Y17611D02*
Y17761D01*
Y18131D02*
Y18341D01*
Y18541D02*
Y18941D01*
X653Y17611D02*
Y17761D01*
Y18101D02*
Y18381D01*
Y18541D02*
Y18971D01*
X663Y17611D02*
Y17761D01*
Y18081D02*
Y18391D01*
Y18541D02*
Y18981D01*
X673Y17611D02*
Y17761D01*
Y18041D02*
Y18051D01*
Y18061D02*
Y18421D01*
Y18541D02*
Y18991D01*
X683Y17611D02*
Y17761D01*
Y18051D02*
Y18431D01*
Y18541D02*
Y19001D01*
X693Y17611D02*
Y17761D01*
Y18051D02*
Y18161D01*
Y18321D02*
Y18431D01*
Y18541D02*
Y19011D01*
X703Y17611D02*
Y17761D01*
Y18051D02*
Y18141D01*
Y18341D02*
Y18431D01*
Y18541D02*
Y19011D01*
X713Y17611D02*
Y17761D01*
Y18061D02*
Y18101D01*
Y18371D02*
Y18431D01*
Y18541D02*
Y19021D01*
X723Y17611D02*
Y17761D01*
Y18071D02*
Y18091D01*
Y18381D02*
Y18411D01*
Y18541D02*
Y19031D01*
X733Y17611D02*
Y17761D01*
Y18411D02*
Y18421D01*
Y18541D02*
Y19031D01*
X743Y17611D02*
Y17761D01*
Y18541D02*
Y18691D01*
Y18831D02*
Y19031D01*
X753Y17611D02*
Y17761D01*
Y18541D02*
Y18691D01*
Y18871D02*
Y19031D01*
Y19461D02*
Y19561D01*
Y19591D02*
Y19611D01*
X763Y17611D02*
Y17761D01*
Y18181D02*
Y18301D01*
Y18541D02*
Y18691D01*
Y18881D02*
Y19041D01*
Y19221D02*
Y19371D01*
Y19461D02*
Y19561D01*
Y19591D02*
Y19611D01*
X773Y17611D02*
Y17761D01*
Y18141D02*
Y18341D01*
Y18541D02*
Y18691D01*
Y18881D02*
Y19041D01*
Y19181D02*
Y19411D01*
Y19491D02*
Y19511D01*
Y19531D02*
Y19571D01*
Y19581D02*
Y19611D01*
X783Y17611D02*
Y17761D01*
Y18121D02*
Y18361D01*
Y18541D02*
Y18691D01*
Y18891D02*
Y19041D01*
Y19171D02*
Y19431D01*
Y19491D02*
Y19511D01*
Y19531D02*
Y19571D01*
Y19581D02*
Y19611D01*
X793Y17611D02*
Y17761D01*
Y18101D02*
Y18381D01*
Y18541D02*
Y18691D01*
Y18891D02*
Y19041D01*
Y19151D02*
Y19441D01*
Y19491D02*
Y19511D01*
Y19531D02*
Y19611D01*
X803Y17611D02*
Y17761D01*
Y18091D02*
Y18391D01*
Y18541D02*
Y18691D01*
Y18891D02*
Y19041D01*
Y19141D02*
Y19451D01*
Y19491D02*
Y19511D01*
Y19531D02*
Y19611D01*
X813Y17611D02*
Y17761D01*
Y18081D02*
Y18411D01*
Y18541D02*
Y18691D01*
Y18891D02*
Y19041D01*
Y19131D02*
Y19461D01*
Y19491D02*
Y19511D01*
Y19531D02*
Y19551D01*
Y19561D02*
Y19611D01*
X823Y17611D02*
Y17761D01*
Y18071D02*
Y18411D01*
Y18541D02*
Y18691D01*
Y18891D02*
Y19041D01*
Y19131D02*
Y19471D01*
Y19491D02*
Y19511D01*
Y19531D02*
Y19551D01*
Y19561D02*
Y19611D01*
X833Y17611D02*
Y17761D01*
Y18061D02*
Y18431D01*
Y18541D02*
Y18691D01*
Y18891D02*
Y19041D01*
Y19121D02*
Y19471D01*
Y19481D02*
Y19491D01*
X843Y17611D02*
Y17761D01*
Y18051D02*
Y18431D01*
Y18541D02*
Y18691D01*
Y18891D02*
Y19041D01*
Y19111D02*
Y19471D01*
X853Y17611D02*
Y17761D01*
Y18041D02*
Y18441D01*
Y18541D02*
Y18691D01*
Y18881D02*
Y19041D01*
Y19111D02*
Y19251D01*
Y19341D02*
Y19481D01*
X863Y17611D02*
Y17761D01*
Y18041D02*
Y18451D01*
Y18541D02*
Y18691D01*
Y18871D02*
Y19031D01*
Y19111D02*
Y19251D01*
Y19351D02*
Y19481D01*
X873Y17611D02*
Y17761D01*
Y18031D02*
Y18191D01*
Y18291D02*
Y18451D01*
Y18541D02*
Y18691D01*
Y18861D02*
Y19031D01*
Y19111D02*
Y19241D01*
Y19351D02*
Y19481D01*
X883Y17611D02*
Y17761D01*
Y18031D02*
Y18181D01*
Y18311D02*
Y18451D01*
Y18541D02*
Y19031D01*
Y19111D02*
Y19241D01*
Y19351D02*
Y19481D01*
X893Y17611D02*
Y17761D01*
Y18031D02*
Y18171D01*
Y18311D02*
Y18461D01*
Y18541D02*
Y19021D01*
Y19111D02*
Y19241D01*
Y19351D02*
Y19481D01*
X903Y17611D02*
Y17761D01*
Y18021D02*
Y18161D01*
Y18321D02*
Y18461D01*
Y18541D02*
Y19011D01*
Y19351D02*
Y19481D01*
X913Y17611D02*
Y17761D01*
Y18021D02*
Y18161D01*
Y18331D02*
Y18471D01*
Y18541D02*
Y19011D01*
Y19341D02*
Y19481D01*
X923Y17611D02*
Y17761D01*
Y18011D02*
Y18151D01*
Y18331D02*
Y18471D01*
Y18541D02*
Y19001D01*
Y19281D02*
Y19481D01*
X933Y17611D02*
Y17761D01*
Y18011D02*
Y18151D01*
Y18331D02*
Y18471D01*
Y18541D02*
Y18991D01*
Y19221D02*
Y19481D01*
X943Y17611D02*
Y17761D01*
Y18011D02*
Y18151D01*
Y18331D02*
Y18471D01*
Y18541D02*
Y18981D01*
Y19201D02*
Y19481D01*
X953Y17611D02*
Y17761D01*
Y18011D02*
Y18151D01*
Y18331D02*
Y18471D01*
Y18541D02*
Y18961D01*
Y19171D02*
Y19481D01*
X963Y17611D02*
Y17761D01*
Y18011D02*
Y18151D01*
Y18331D02*
Y18471D01*
Y18541D02*
Y18951D01*
Y19151D02*
Y19481D01*
X973Y17611D02*
Y17761D01*
Y18011D02*
Y18151D01*
Y18331D02*
Y18471D01*
Y18541D02*
Y18931D01*
Y19121D02*
Y19131D01*
Y19141D02*
Y19481D01*
X983Y17611D02*
Y17761D01*
Y18011D02*
Y18151D01*
Y18331D02*
Y18471D01*
Y18541D02*
Y18931D01*
Y19131D02*
Y19481D01*
X993Y17611D02*
Y17761D01*
Y18011D02*
Y18151D01*
Y18331D02*
Y18471D01*
Y18541D02*
Y18941D01*
Y19111D02*
Y19481D01*
X1003Y17611D02*
Y17761D01*
Y18011D02*
Y18151D01*
Y18331D02*
Y18471D01*
Y18541D02*
Y18691D01*
Y18781D02*
Y18951D01*
Y19111D02*
Y19321D01*
Y19351D02*
Y19481D01*
X1013Y17611D02*
Y17761D01*
Y18011D02*
Y18151D01*
Y18331D02*
Y18471D01*
Y18541D02*
Y18691D01*
Y18791D02*
Y18951D01*
Y19101D02*
Y19291D01*
Y19351D02*
Y19481D01*
X1023Y17611D02*
Y17761D01*
Y18011D02*
Y18151D01*
Y18331D02*
Y18471D01*
Y18541D02*
Y18691D01*
Y18791D02*
Y18961D01*
Y19101D02*
Y19251D01*
Y19351D02*
Y19481D01*
X1033Y17611D02*
Y17761D01*
Y18011D02*
Y18151D01*
Y18331D02*
Y18471D01*
Y18541D02*
Y18691D01*
Y18791D02*
Y18971D01*
Y19091D02*
Y19241D01*
Y19351D02*
Y19481D01*
X1043Y17611D02*
Y17761D01*
Y18011D02*
Y18151D01*
Y18331D02*
Y18471D01*
Y18541D02*
Y18691D01*
Y18801D02*
Y18971D01*
Y19091D02*
Y19231D01*
Y19351D02*
Y19481D01*
X1053Y17611D02*
Y17761D01*
Y18021D02*
Y18161D01*
Y18321D02*
Y18471D01*
Y18541D02*
Y18691D01*
Y18811D02*
Y18971D01*
Y19091D02*
Y19221D01*
Y19351D02*
Y19481D01*
X1063Y17611D02*
Y17761D01*
Y18021D02*
Y18171D01*
Y18321D02*
Y18461D01*
Y18541D02*
Y18691D01*
Y18811D02*
Y18981D01*
Y19091D02*
Y19221D01*
Y19341D02*
Y19481D01*
X1073Y17611D02*
Y17981D01*
Y18031D02*
Y18171D01*
Y18311D02*
Y18461D01*
Y18541D02*
Y18691D01*
Y18821D02*
Y18991D01*
Y19091D02*
Y19221D01*
Y19331D02*
Y19481D01*
X1083Y17611D02*
Y17981D01*
Y18031D02*
Y18181D01*
Y18311D02*
Y18451D01*
Y18541D02*
Y18691D01*
Y18831D02*
Y18991D01*
Y19091D02*
Y19221D01*
Y19331D02*
Y19481D01*
X1093Y17611D02*
Y17981D01*
Y18031D02*
Y18191D01*
Y18291D02*
Y18451D01*
Y18541D02*
Y18691D01*
Y18831D02*
Y19001D01*
Y19091D02*
Y19231D01*
Y19321D02*
Y19481D01*
X1103Y17611D02*
Y17981D01*
Y18041D02*
Y18451D01*
Y18541D02*
Y18691D01*
Y18831D02*
Y19011D01*
Y19091D02*
Y19251D01*
Y19291D02*
Y19481D01*
X1113Y17611D02*
Y17981D01*
Y18041D02*
Y18441D01*
Y18541D02*
Y18691D01*
Y18841D02*
Y19011D01*
Y19091D02*
Y19481D01*
X1123Y17611D02*
Y17981D01*
Y18051D02*
Y18431D01*
Y18541D02*
Y18691D01*
Y18851D02*
Y19011D01*
Y19091D02*
Y19481D01*
X1133Y17611D02*
Y17981D01*
Y18061D02*
Y18431D01*
Y18541D02*
Y18691D01*
Y18851D02*
Y19021D01*
Y19101D02*
Y19481D01*
X1143Y17611D02*
Y17981D01*
Y18071D02*
Y18411D01*
Y18541D02*
Y18691D01*
Y18861D02*
Y19031D01*
Y19101D02*
Y19481D01*
X1153Y17611D02*
Y17981D01*
Y18081D02*
Y18401D01*
Y18411D02*
Y18421D01*
Y18541D02*
Y18691D01*
Y18861D02*
Y19031D01*
Y19111D02*
Y19481D01*
X1163Y17611D02*
Y17981D01*
Y18091D02*
Y18391D01*
Y18541D02*
Y18691D01*
Y18871D02*
Y19041D01*
Y19121D02*
Y19491D01*
X1173Y17611D02*
Y17981D01*
Y18101D02*
Y18381D01*
Y18541D02*
Y18691D01*
Y18871D02*
Y19051D01*
Y19131D02*
Y19351D01*
Y19361D02*
Y19491D01*
X1183Y17611D02*
Y17981D01*
Y18121D02*
Y18361D01*
Y18541D02*
Y18691D01*
Y18881D02*
Y19051D01*
Y19141D02*
Y19331D01*
Y19361D02*
Y19491D01*
X1193Y17611D02*
Y17981D01*
Y18141D02*
Y18341D01*
Y18541D02*
Y18691D01*
Y18881D02*
Y19051D01*
Y19151D02*
Y19311D01*
Y19371D02*
Y19491D01*
X1203Y18181D02*
Y18301D01*
Y19191D02*
Y19281D01*
X1233Y18061D02*
Y18071D01*
X1243D02*
Y18101D01*
Y18391D02*
Y18411D01*
X1253Y18061D02*
Y18121D01*
Y18381D02*
Y18421D01*
X1263Y18051D02*
Y18141D01*
Y18341D02*
Y18431D01*
X1273Y18051D02*
Y18171D01*
Y18321D02*
Y18431D01*
X1283Y18041D02*
Y18441D01*
X1293Y18061D02*
Y18421D01*
X1303Y18091D02*
Y18401D01*
X1313Y18101D02*
Y18381D01*
X1323Y18141D02*
Y18351D01*
X1333Y18001D02*
Y18021D01*
Y18171D02*
Y18321D01*
X1343Y17991D02*
Y18041D01*
Y18451D02*
Y18481D01*
X1353Y17991D02*
Y18051D01*
Y18441D02*
Y18491D01*
X1363Y17981D02*
Y18081D01*
Y18411D02*
Y18491D01*
X1373Y17971D02*
Y18101D01*
Y18391D02*
Y18511D01*
X1383Y17971D02*
Y18141D01*
Y18361D02*
Y18511D01*
X1393Y17971D02*
Y18171D01*
Y18321D02*
Y18511D01*
X1403Y17981D02*
Y17991D01*
Y18001D02*
Y18491D01*
X1413Y18011D02*
Y18481D01*
X1423Y18041D02*
Y18451D01*
X1433Y17921D02*
Y17951D01*
Y18051D02*
Y18441D01*
Y18551D02*
Y18561D01*
X1443Y17931D02*
Y17971D01*
Y18061D02*
Y18071D01*
Y18091D02*
Y18411D01*
Y18521D02*
Y18551D01*
X1453Y17921D02*
Y17981D01*
Y18111D02*
Y18381D01*
Y18511D02*
Y18561D01*
X1463Y17911D02*
Y18011D01*
Y18171D02*
Y18321D01*
Y18481D02*
Y18571D01*
X1473Y17901D02*
Y18021D01*
Y18471D02*
Y18571D01*
X1483Y17901D02*
Y18061D01*
Y18441D02*
Y18581D01*
X1493Y17891D02*
Y18071D01*
Y18421D02*
Y18591D01*
X1503Y17901D02*
Y18121D01*
Y18371D02*
Y18591D01*
X1513Y17921D02*
Y18151D01*
Y18341D02*
Y18581D01*
X1523Y17941D02*
Y18551D01*
X1533Y17951D02*
Y18541D01*
X1543Y17971D02*
Y18521D01*
X1553Y17991D02*
Y18501D01*
X1563Y18021D02*
Y18471D01*
X1573Y18041D02*
Y18451D01*
X1583Y18081D02*
Y18411D01*
X1593Y18111D02*
Y18381D01*
X5737Y1844D02*
X5977D01*
X5017D02*
X5487D01*
X4367D02*
X4977D01*
X3937D02*
X4217D01*
X3677D02*
X3907D01*
X3357D02*
X3637D01*
X5737Y1854D02*
X5977D01*
X5017D02*
X5517D01*
X4377D02*
X4977D01*
X3937D02*
X4247D01*
X3677D02*
X3907D01*
X3327D02*
X3627D01*
X5737Y1864D02*
X5977D01*
X5017D02*
X5547D01*
X4387D02*
X4977D01*
X3937D02*
X4287D01*
X3677D02*
X3907D01*
X3287D02*
X3627D01*
X5737Y1874D02*
X5977D01*
X5017D02*
X5567D01*
X4407D02*
X4977D01*
X3937D02*
X4317D01*
X3677D02*
X3907D01*
X3267D02*
X3627D01*
X5737Y1884D02*
X5977D01*
X5017D02*
X5587D01*
X4417D02*
X4977D01*
X3937D02*
X4337D01*
X3677D02*
X3907D01*
X3237D02*
X3627D01*
X5737Y1894D02*
X5977D01*
X5017D02*
X5597D01*
X4437D02*
X4977D01*
X3937D02*
X4357D01*
X3677D02*
X3907D01*
X3217D02*
X3627D01*
X5737Y1904D02*
X5977D01*
X5017D02*
X5607D01*
X4437D02*
X4977D01*
X3937D02*
X4367D01*
X3677D02*
X3907D01*
X3207D02*
X3627D01*
X5737Y1914D02*
X5977D01*
X5017D02*
X5617D01*
X4457D02*
X4977D01*
X3937D02*
X4377D01*
X3677D02*
X3907D01*
X3187D02*
X3627D01*
X5737Y1924D02*
X5977D01*
X3677D02*
X3907D01*
X3177D02*
X3407D01*
X5737Y1934D02*
X5977D01*
X3677D02*
X3907D01*
X3157D02*
X3337D01*
X5737Y1944D02*
X5977D01*
X3677D02*
X3907D01*
X3147D02*
X3307D01*
X5737Y1954D02*
X5977D01*
X3677D02*
X3907D01*
X3137D02*
X3287D01*
X5737Y1964D02*
X5977D01*
X5557D02*
X5657D01*
X5017D02*
X5477D01*
X4487D02*
X4977D01*
X4307D02*
X4437D01*
X3937D02*
X4187D01*
X3677D02*
X3907D01*
X3377D02*
X3637D01*
X3127D02*
X3267D01*
X5737Y1974D02*
X5977D01*
X5567D02*
X5667D01*
X5017D02*
X5507D01*
X4497D02*
X4977D01*
X4327D02*
X4457D01*
X3937D02*
X4237D01*
X3677D02*
X3907D01*
X3337D02*
X3637D01*
X3117D02*
X3257D01*
X5737Y1984D02*
X5977D01*
X5577D02*
X5667D01*
X5017D02*
X5517D01*
X4507D02*
X4977D01*
X4337D02*
X4467D01*
X3937D02*
X4267D01*
X3677D02*
X3907D01*
X3307D02*
X3637D01*
X3107D02*
X3237D01*
X5737Y1994D02*
X5977D01*
X5587D02*
X5677D01*
X5017D02*
X5537D01*
X4517D02*
X4977D01*
X4357D02*
X4467D01*
X3937D02*
X4287D01*
X3677D02*
X3907D01*
X3287D02*
X3637D01*
X3097D02*
X3217D01*
X5737Y2004D02*
X5977D01*
X5587D02*
X5677D01*
X5017D02*
X5537D01*
X4517D02*
X4977D01*
X4367D02*
X4477D01*
X3937D02*
X4287D01*
X3677D02*
X3907D01*
X3277D02*
X3637D01*
X3087D02*
X3217D01*
X5737Y2014D02*
X5977D01*
X5597D02*
X5677D01*
X5017D02*
X5547D01*
X4527D02*
X4977D01*
X4377D02*
X4477D01*
X3937D02*
X4317D01*
X3677D02*
X3907D01*
X3257D02*
X3637D01*
X3087D02*
X3207D01*
X5737Y2024D02*
X5977D01*
X5607D02*
X5687D01*
X5017D02*
X5557D01*
X4527D02*
X4977D01*
X4387D02*
X4487D01*
X3937D02*
X4327D01*
X3677D02*
X3907D01*
X3247D02*
X3637D01*
X3077D02*
X3187D01*
X5737Y2034D02*
X5977D01*
X5607D02*
X5687D01*
X5437D02*
X5567D01*
X4537D02*
X4977D01*
X4397D02*
X4497D01*
X4137D02*
X4337D01*
X3937D02*
X4037D01*
X3677D02*
X3907D01*
X3227D02*
X3627D01*
X3067D02*
X3177D01*
X5737Y2044D02*
X5977D01*
X5617D02*
X5687D01*
X5467D02*
X5567D01*
X4547D02*
X4627D01*
X4407D02*
X4507D01*
X4207D02*
X4357D01*
X3937D02*
X4027D01*
X3677D02*
X3907D01*
X3217D02*
X3367D01*
X3067D02*
X3167D01*
X5737Y2054D02*
X5977D01*
X5617D02*
X5687D01*
X5477D02*
X5567D01*
X4547D02*
X4627D01*
X4407D02*
X4507D01*
X4227D02*
X4357D01*
X3937D02*
X4027D01*
X3677D02*
X3907D01*
X3217D02*
X3347D01*
X3057D02*
X3167D01*
X5737Y2064D02*
X5977D01*
X5617D02*
X5687D01*
X5487D02*
X5577D01*
X4557D02*
X4637D01*
X4417D02*
X4517D01*
X4247D02*
X4367D01*
X3937D02*
X4027D01*
X3677D02*
X3907D01*
X3207D02*
X3327D01*
X3057D02*
X3157D01*
X5737Y2074D02*
X5977D01*
X5617D02*
X5697D01*
X5487D02*
X5577D01*
X4557D02*
X4637D01*
X4427D02*
X4517D01*
X4267D02*
X4377D01*
X3937D02*
X4027D01*
X3677D02*
X3907D01*
X3187D02*
X3307D01*
X3047D02*
X3147D01*
X5737Y2084D02*
X5977D01*
X5617D02*
X5697D01*
X5497D02*
X5577D01*
X4567D02*
X4637D01*
X4427D02*
X4517D01*
X4277D02*
X4387D01*
X3937D02*
X4027D01*
X3677D02*
X3907D01*
X3187D02*
X3287D01*
X3037D02*
X3137D01*
X5737Y2094D02*
X5977D01*
X5617D02*
X5697D01*
X5497D02*
X5577D01*
X4567D02*
X4647D01*
X4437D02*
X4527D01*
X4287D02*
X4387D01*
X3937D02*
X4027D01*
X3677D02*
X3907D01*
X3177D02*
X3277D01*
X3037D02*
X3137D01*
X5737Y2104D02*
X5977D01*
X5617D02*
X5697D01*
X5497D02*
X5577D01*
X4567D02*
X4657D01*
X4437D02*
X4527D01*
X4297D02*
X4397D01*
X3937D02*
X4027D01*
X3677D02*
X3907D01*
X3177D02*
X3267D01*
X3037D02*
X3127D01*
X5737Y2114D02*
X5977D01*
X5617D02*
X5697D01*
X5497D02*
X5577D01*
X4577D02*
X4657D01*
X4437D02*
X4527D01*
X4307D02*
X4407D01*
X3937D02*
X4027D01*
X3677D02*
X3907D01*
X3167D02*
X3267D01*
X3027D02*
X3127D01*
X5737Y2124D02*
X5977D01*
X5617D02*
X5697D01*
X5487D02*
X5577D01*
X4577D02*
X4657D01*
X4447D02*
X4537D01*
X4317D02*
X4407D01*
X3937D02*
X4027D01*
X3677D02*
X3907D01*
X3157D02*
X3257D01*
X3027D02*
X3117D01*
X5737Y2134D02*
X5977D01*
X5617D02*
X5697D01*
X5487D02*
X5577D01*
X4577D02*
X4657D01*
X4457D02*
X4537D01*
X4327D02*
X4417D01*
X3937D02*
X4027D01*
X3677D02*
X3907D01*
X3157D02*
X3247D01*
X3027D02*
X3117D01*
X5737Y2144D02*
X5977D01*
X5617D02*
X5687D01*
X5477D02*
X5567D01*
X4577D02*
X4667D01*
X4457D02*
X4537D01*
X4337D02*
X4417D01*
X3937D02*
X4027D01*
X3677D02*
X3907D01*
X3147D02*
X3237D01*
X3017D02*
X3117D01*
X5737Y2154D02*
X5977D01*
X5617D02*
X5687D01*
X5467D02*
X5567D01*
X4577D02*
X4667D01*
X4457D02*
X4537D01*
X4337D02*
X4417D01*
X3937D02*
X4027D01*
X3677D02*
X3907D01*
X3147D02*
X3237D01*
X3017D02*
X3107D01*
X5737Y2164D02*
X5977D01*
X5607D02*
X5687D01*
X5447D02*
X5567D01*
X4587D02*
X4667D01*
X4467D02*
X4547D01*
X4337D02*
X4427D01*
X3937D02*
X4027D01*
X3677D02*
X3907D01*
X3137D02*
X3227D01*
X3017D02*
X3107D01*
X5737Y2174D02*
X5977D01*
X5607D02*
X5687D01*
X5207D02*
X5557D01*
X4587D02*
X4977D01*
X4467D02*
X4547D01*
X4347D02*
X4427D01*
X3937D02*
X4027D01*
X3677D02*
X3907D01*
X3137D02*
X3227D01*
X3017D02*
X3107D01*
X5737Y2184D02*
X5977D01*
X5597D02*
X5677D01*
X5177D02*
X5547D01*
X4587D02*
X4977D01*
X4467D02*
X4557D01*
X4357D02*
X4427D01*
X3937D02*
X4027D01*
X3677D02*
X3907D01*
X3137D02*
X3217D01*
X3007D02*
X3107D01*
X5737Y2194D02*
X5977D01*
X5587D02*
X5677D01*
X5147D02*
X5537D01*
X4587D02*
X4977D01*
X4467D02*
X4557D01*
X4357D02*
X4437D01*
X3937D02*
X4027D01*
X3677D02*
X3907D01*
X3137D02*
X3217D01*
X3007D02*
X3097D01*
X5737Y2204D02*
X5977D01*
X5587D02*
X5677D01*
X5137D02*
X5537D01*
X4587D02*
X4977D01*
X4467D02*
X4557D01*
X4357D02*
X4437D01*
X3937D02*
X4027D01*
X3677D02*
X3907D01*
X3137D02*
X3217D01*
X3007D02*
X3097D01*
X5737Y2214D02*
X5977D01*
X5577D02*
X5667D01*
X5117D02*
X5517D01*
X4587D02*
X4977D01*
X4477D02*
X4557D01*
X4357D02*
X4437D01*
X3937D02*
X4027D01*
X3677D02*
X3907D01*
X3127D02*
X3207D01*
X3007D02*
X3097D01*
X5737Y2224D02*
X5977D01*
X5567D02*
X5667D01*
X5107D02*
X5507D01*
X4597D02*
X4977D01*
X4477D02*
X4557D01*
X4367D02*
X4437D01*
X3937D02*
X4027D01*
X3677D02*
X3907D01*
X3127D02*
X3207D01*
X3007D02*
X3087D01*
X5737Y2234D02*
X5977D01*
X5557D02*
X5657D01*
X5097D02*
X5477D01*
X4597D02*
X4977D01*
X4477D02*
X4557D01*
X4367D02*
X4437D01*
X3937D02*
X4027D01*
X3677D02*
X3907D01*
X3127D02*
X3207D01*
X3007D02*
X3087D01*
X5737Y2244D02*
X5977D01*
X4597D02*
X4677D01*
X4477D02*
X4557D01*
X4367D02*
X4437D01*
X3937D02*
X4027D01*
X3677D02*
X3907D01*
X3127D02*
X3207D01*
X3007D02*
X3087D01*
X5737Y2254D02*
X5977D01*
X4597D02*
X4677D01*
X4477D02*
X4557D01*
X4367D02*
X4437D01*
X3937D02*
X4027D01*
X3677D02*
X3907D01*
X3127D02*
X3207D01*
X3007D02*
X3087D01*
X5737Y2264D02*
X5977D01*
X4597D02*
X4677D01*
X4477D02*
X4557D01*
X4367D02*
X4437D01*
X3937D02*
X4027D01*
X3677D02*
X3907D01*
X3127D02*
X3207D01*
X3007D02*
X3087D01*
X5737Y2274D02*
X5977D01*
X4597D02*
X4677D01*
X4477D02*
X4557D01*
X4367D02*
X4437D01*
X3937D02*
X4027D01*
X3677D02*
X3907D01*
X3127D02*
X3207D01*
X3007D02*
X3087D01*
X5737Y2284D02*
X5977D01*
X5227D02*
X5617D01*
X5057D02*
X5157D01*
X4597D02*
X4977D01*
X4477D02*
X4557D01*
X4367D02*
X4437D01*
X3937D02*
X4027D01*
X3677D02*
X3907D01*
X3127D02*
X3207D01*
X3007D02*
X3087D01*
X5737Y2294D02*
X5977D01*
X5207D02*
X5597D01*
X5057D02*
X5147D01*
X4597D02*
X4977D01*
X4477D02*
X4557D01*
X4367D02*
X4437D01*
X3937D02*
X4027D01*
X3677D02*
X3907D01*
X3127D02*
X3207D01*
X3007D02*
X3087D01*
X5737Y2304D02*
X5977D01*
X5187D02*
X5587D01*
X5047D02*
X5137D01*
X4597D02*
X4977D01*
X4467D02*
X4557D01*
X4357D02*
X4437D01*
X3937D02*
X4027D01*
X3677D02*
X3907D01*
X3127D02*
X3207D01*
X3007D02*
X3097D01*
X5737Y2314D02*
X5977D01*
X5177D02*
X5577D01*
X5037D02*
X5127D01*
X4587D02*
X4977D01*
X4467D02*
X4557D01*
X4357D02*
X4437D01*
X3937D02*
X4027D01*
X3677D02*
X3907D01*
X3137D02*
X3217D01*
X3007D02*
X3097D01*
X5737Y2324D02*
X5977D01*
X5167D02*
X5557D01*
X5037D02*
X5127D01*
X4587D02*
X4977D01*
X4467D02*
X4557D01*
X4357D02*
X4437D01*
X3937D02*
X4027D01*
X3677D02*
X3907D01*
X3137D02*
X3217D01*
X3017D02*
X3097D01*
X5747Y2334D02*
X5977D01*
X5157D02*
X5527D01*
X5037D02*
X5117D01*
X4587D02*
X4977D01*
X4467D02*
X4547D01*
X4357D02*
X4427D01*
X3937D02*
X4027D01*
X3677D02*
X3907D01*
X3137D02*
X3217D01*
X3017D02*
X3107D01*
X5767Y2344D02*
X5977D01*
X5157D02*
X5487D01*
X5027D02*
X5107D01*
X4587D02*
X4977D01*
X4467D02*
X4547D01*
X4347D02*
X4427D01*
X3937D02*
X4027D01*
X3697D02*
X3907D01*
X3137D02*
X3217D01*
X3017D02*
X3107D01*
X5787Y2354D02*
X5977D01*
X5147D02*
X5257D01*
X5027D02*
X5107D01*
X4587D02*
X4667D01*
X4457D02*
X4547D01*
X4337D02*
X4427D01*
X3937D02*
X4027D01*
X3717D02*
X3907D01*
X3147D02*
X3227D01*
X3017D02*
X3107D01*
X5807Y2364D02*
X5977D01*
X5147D02*
X5237D01*
X5027D02*
X5107D01*
X4587D02*
X4667D01*
X4457D02*
X4537D01*
X4337D02*
X4427D01*
X3937D02*
X4027D01*
X3727D02*
X3907D01*
X3147D02*
X3227D01*
X3017D02*
X3107D01*
X5827Y2374D02*
X5977D01*
X5137D02*
X5227D01*
X5027D02*
X5107D01*
X4587D02*
X4667D01*
X4457D02*
X4537D01*
X4337D02*
X4417D01*
X3937D02*
X4027D01*
X3757D02*
X3907D01*
X3157D02*
X3237D01*
X3027D02*
X3117D01*
X5857Y2384D02*
X5977D01*
X5737D02*
X5767D01*
X5137D02*
X5227D01*
X5017D02*
X5097D01*
X4577D02*
X4657D01*
X4457D02*
X4537D01*
X4327D02*
X4417D01*
X3937D02*
X4027D01*
X3777D02*
X3907D01*
X3677D02*
X3687D01*
X3157D02*
X3237D01*
X3027D02*
X3117D01*
X5877Y2394D02*
X5977D01*
X5747D02*
X5787D01*
X5137D02*
X5217D01*
X5017D02*
X5097D01*
X4577D02*
X4657D01*
X4447D02*
X4527D01*
X4317D02*
X4407D01*
X3937D02*
X4027D01*
X3807D02*
X3907D01*
X3677D02*
X3717D01*
X3167D02*
X3257D01*
X3027D02*
X3127D01*
X5897Y2404D02*
X5977D01*
X5747D02*
X5817D01*
X5137D02*
X5217D01*
X5017D02*
X5097D01*
X4577D02*
X4657D01*
X4437D02*
X4527D01*
X4307D02*
X4407D01*
X3937D02*
X4027D01*
X3827D02*
X3907D01*
X3677D02*
X3737D01*
X3167D02*
X3267D01*
X3037D02*
X3127D01*
X5917Y2414D02*
X5977D01*
X5747D02*
X5827D01*
X5137D02*
X5217D01*
X5017D02*
X5097D01*
X4577D02*
X4657D01*
X4437D02*
X4527D01*
X4307D02*
X4397D01*
X3937D02*
X4027D01*
X3837D02*
X3907D01*
X3677D02*
X3757D01*
X3177D02*
X3267D01*
X3037D02*
X3127D01*
X5937Y2424D02*
X5977D01*
X5747D02*
X5857D01*
X5137D02*
X5217D01*
X5017D02*
X5097D01*
X4567D02*
X4647D01*
X4427D02*
X4517D01*
X4297D02*
X4387D01*
X3937D02*
X4027D01*
X3867D02*
X3907D01*
X3677D02*
X3777D01*
X3177D02*
X3277D01*
X3037D02*
X3137D01*
X5957Y2434D02*
X5977D01*
X5747D02*
X5877D01*
X5137D02*
X5217D01*
X5017D02*
X5097D01*
X4567D02*
X4637D01*
X4427D02*
X4517D01*
X4277D02*
X4387D01*
X3937D02*
X4027D01*
X3887D02*
X3907D01*
X3677D02*
X3807D01*
X3187D02*
X3287D01*
X3047D02*
X3137D01*
X5747Y2444D02*
X5907D01*
X5137D02*
X5217D01*
X5017D02*
X5097D01*
X4557D02*
X4637D01*
X4417D02*
X4517D01*
X4267D02*
X4377D01*
X3937D02*
X4027D01*
X3677D02*
X3827D01*
X3197D02*
X3307D01*
X3057D02*
X3157D01*
X5767Y2454D02*
X5927D01*
X5137D02*
X5227D01*
X5017D02*
X5097D01*
X4557D02*
X4637D01*
X4417D02*
X4507D01*
X4247D02*
X4367D01*
X3937D02*
X4027D01*
X3697D02*
X3847D01*
X3207D02*
X3327D01*
X3057D02*
X3157D01*
X5777Y2464D02*
X5937D01*
X5137D02*
X5227D01*
X5027D02*
X5107D01*
X4557D02*
X4627D01*
X4407D02*
X4507D01*
X4237D02*
X4357D01*
X3937D02*
X4027D01*
X3707D02*
X3857D01*
X3217D02*
X3337D01*
X3057D02*
X3167D01*
X5807Y2474D02*
X5967D01*
X5147D02*
X5247D01*
X5027D02*
X5107D01*
X4547D02*
X4627D01*
X4407D02*
X4497D01*
X4207D02*
X4347D01*
X3937D02*
X4027D01*
X3727D02*
X3887D01*
X3227D02*
X3357D01*
X3067D02*
X3177D01*
X5827Y2484D02*
X5977D01*
X5157D02*
X5697D01*
X5027D02*
X5107D01*
X4537D02*
X4617D01*
X4387D02*
X4487D01*
X4157D02*
X4337D01*
X3937D02*
X4027D01*
X3757D02*
X3907D01*
X3237D02*
X3417D01*
X3077D02*
X3177D01*
X5847Y2494D02*
X5977D01*
X5747D02*
X5767D01*
X5157D02*
X5697D01*
X5027D02*
X5117D01*
X4537D02*
X4977D01*
X4377D02*
X4487D01*
X3937D02*
X4317D01*
X3777D02*
X3907D01*
X3677D02*
X3687D01*
X3257D02*
X3637D01*
X3077D02*
X3187D01*
X5867Y2504D02*
X5977D01*
X5747D02*
X5787D01*
X5167D02*
X5697D01*
X5027D02*
X5117D01*
X4527D02*
X4977D01*
X4367D02*
X4477D01*
X3937D02*
X4307D01*
X3797D02*
X3907D01*
X3677D02*
X3717D01*
X3267D02*
X3637D01*
X3087D02*
X3207D01*
X5877Y2514D02*
X5977D01*
X5747D02*
X5807D01*
X5167D02*
X5697D01*
X5037D02*
X5117D01*
X4527D02*
X4977D01*
X4367D02*
X4467D01*
X3937D02*
X4297D01*
X3807D02*
X3907D01*
X3677D02*
X3727D01*
X3277D02*
X3637D01*
X3097D02*
X3217D01*
X5907Y2524D02*
X5977D01*
X5747D02*
X5827D01*
X5177D02*
X5697D01*
X5037D02*
X5127D01*
X4517D02*
X4977D01*
X4357D02*
X4467D01*
X3937D02*
X4277D01*
X3837D02*
X3907D01*
X3677D02*
X3757D01*
X3297D02*
X3637D01*
X3107D02*
X3227D01*
X5927Y2534D02*
X5977D01*
X5747D02*
X5857D01*
X5197D02*
X5697D01*
X5037D02*
X5137D01*
X4517D02*
X4977D01*
X4337D02*
X4457D01*
X3937D02*
X4257D01*
X3857D02*
X3907D01*
X3677D02*
X3777D01*
X3317D02*
X3637D01*
X3117D02*
X3237D01*
X5957Y2544D02*
X5977D01*
X5747D02*
X5877D01*
X5217D02*
X5697D01*
X5057D02*
X5147D01*
X4507D02*
X4977D01*
X4317D02*
X4447D01*
X3937D02*
X4217D01*
X3877D02*
X3907D01*
X3677D02*
X3807D01*
X3357D02*
X3637D01*
X3127D02*
X3257D01*
X5747Y2554D02*
X5907D01*
X5257D02*
X5697D01*
X5057D02*
X5157D01*
X4487D02*
X4977D01*
X4307D02*
X4437D01*
X3937D02*
X4167D01*
X3677D02*
X3827D01*
X3407D02*
X3637D01*
X3137D02*
X3277D01*
X5757Y2564D02*
X5917D01*
X3677D02*
X3837D01*
X3137D02*
X3287D01*
X5777Y2574D02*
X5937D01*
X3707D02*
X3867D01*
X3157D02*
X3317D01*
X5797Y2584D02*
X5967D01*
X3727D02*
X3887D01*
X3167D02*
X3357D01*
X5827Y2594D02*
X5977D01*
X5087D02*
X5697D01*
X4457D02*
X4977D01*
X3947D02*
X4387D01*
X3757D02*
X3907D01*
X3187D02*
X3637D01*
X5847Y2604D02*
X5977D01*
X5097D02*
X5697D01*
X4447D02*
X4977D01*
X3937D02*
X4377D01*
X3777D02*
X3907D01*
X3207D02*
X3637D01*
X5857Y2614D02*
X5977D01*
X5107D02*
X5697D01*
X4437D02*
X4977D01*
X3937D02*
X4367D01*
X3787D02*
X3907D01*
X3217D02*
X3637D01*
X5877Y2624D02*
X5977D01*
X5117D02*
X5697D01*
X4427D02*
X4977D01*
X3937D02*
X4347D01*
X3807D02*
X3907D01*
X3227D02*
X3637D01*
X5907Y2634D02*
X5977D01*
X5137D02*
X5697D01*
X4417D02*
X4977D01*
X3937D02*
X4327D01*
X3827D02*
X3907D01*
X3257D02*
X3627D01*
X5927Y2644D02*
X5977D01*
X5157D02*
X5697D01*
X4407D02*
X4977D01*
X3937D02*
X4297D01*
X3857D02*
X3907D01*
X3277D02*
X3627D01*
X5957Y2654D02*
X5977D01*
X5177D02*
X5697D01*
X4387D02*
X4977D01*
X3937D02*
X4267D01*
X3877D02*
X3907D01*
X3317D02*
X3627D01*
X5967Y2664D02*
X5977D01*
X5207D02*
X5697D01*
X4377D02*
X4977D01*
X3937D02*
X4237D01*
X3887D02*
X3907D01*
X3337D02*
X3627D01*
X3977Y2674D02*
X4067D01*
D59*
X2102Y12751D02*
X2622D01*
X2102Y13302D02*
X2592D01*
X2252Y12872D02*
X2490Y13032D01*
X2252Y12872D02*
Y13189D01*
X2490Y13032D01*
D60*
X994Y13740D02*
X1211D01*
X974Y16811D02*
X1211D01*
X1821Y15965D02*
Y16102D01*
Y14429D02*
Y14587D01*
D61*
X2178Y10538D02*
Y10853D01*
X2690D01*
X7887D02*
X8084D01*
Y10341D02*
Y10853D01*
X7690Y4947D02*
X8084D01*
Y5971D01*
X2178Y5341D02*
Y5459D01*
Y5341D02*
X2572Y4947D01*
X3202D01*
D62*
X1968Y6909D02*
X1772Y6778D01*
X1968D02*
X1772Y6909D01*
Y6581D02*
Y6713D01*
X1903Y6581D01*
X1936D01*
X1968Y6614D01*
Y6680D01*
X1936Y6713D01*
Y6516D02*
X1968Y6483D01*
Y6417D01*
X1936Y6385D01*
X1804D01*
X1772Y6417D01*
Y6483D01*
X1804Y6516D01*
X1936D01*
X5604Y11995D02*
X5571Y12027D01*
X5505D01*
X5472Y11995D01*
Y11864D01*
X5505Y11831D01*
X5571D01*
X5604Y11864D01*
X5800Y11831D02*
X5669D01*
X5800Y11962D01*
Y11995D01*
X5768Y12027D01*
X5702D01*
X5669Y11995D01*
X5866D02*
X5899Y12027D01*
X5964D01*
X5997Y11995D01*
Y11962D01*
X5964Y11929D01*
X5932D01*
X5964D01*
X5997Y11896D01*
Y11864D01*
X5964Y11831D01*
X5899D01*
X5866Y11864D01*
X5613Y12349D02*
X5581Y12382D01*
X5515D01*
X5482Y12349D01*
Y12218D01*
X5515Y12185D01*
X5581D01*
X5613Y12218D01*
X5810Y12185D02*
X5679D01*
X5810Y12316D01*
Y12349D01*
X5777Y12382D01*
X5712D01*
X5679Y12349D01*
X6007Y12185D02*
X5876D01*
X6007Y12316D01*
Y12349D01*
X5974Y12382D01*
X5909D01*
X5876Y12349D01*
X5492Y11437D02*
Y11634D01*
X5591D01*
X5623Y11601D01*
Y11535D01*
X5591Y11503D01*
X5492D01*
X5558D02*
X5623Y11437D01*
X5820D02*
X5689D01*
X5820Y11568D01*
Y11601D01*
X5787Y11634D01*
X5722D01*
X5689Y11601D01*
X5886Y11470D02*
X5918Y11437D01*
X5984D01*
X6017Y11470D01*
Y11601D01*
X5984Y11634D01*
X5918D01*
X5886Y11601D01*
Y11568D01*
X5918Y11535D01*
X6017D01*
X7536Y12241D02*
X7569Y12274D01*
Y12339D01*
X7536Y12372D01*
X7405D01*
X7372Y12339D01*
Y12274D01*
X7405Y12241D01*
X7372Y12175D02*
X7569D01*
Y12077D01*
X7536Y12044D01*
X7470D01*
X7438Y12077D01*
Y12175D01*
Y12110D02*
X7372Y12044D01*
Y11847D02*
Y11978D01*
X7503Y11847D01*
X7536D01*
X7569Y11880D01*
Y11946D01*
X7536Y11978D01*
X7372Y11782D02*
Y11716D01*
Y11749D01*
X7569D01*
X7536Y11782D01*
X7529Y13470D02*
X7561Y13502D01*
Y13568D01*
X7529Y13601D01*
X7397D01*
X7365Y13568D01*
Y13502D01*
X7397Y13470D01*
X7365Y13404D02*
X7561D01*
Y13306D01*
X7529Y13273D01*
X7463D01*
X7430Y13306D01*
Y13404D01*
Y13338D02*
X7365Y13273D01*
Y13076D02*
Y13207D01*
X7496Y13076D01*
X7529D01*
X7561Y13109D01*
Y13174D01*
X7529Y13207D01*
Y13010D02*
X7561Y12978D01*
Y12912D01*
X7529Y12879D01*
X7397D01*
X7365Y12912D01*
Y12978D01*
X7397Y13010D01*
X7529D01*
X2129Y16542D02*
X2096Y16575D01*
X2031D01*
X1998Y16542D01*
Y16411D01*
X2031Y16378D01*
X2096D01*
X2129Y16411D01*
X2195Y16378D02*
Y16575D01*
X2293D01*
X2326Y16542D01*
Y16476D01*
X2293Y16444D01*
X2195D01*
X2260D02*
X2326Y16378D01*
X2392D02*
X2457D01*
X2424D01*
Y16575D01*
X2392Y16542D01*
X2556Y16378D02*
X2621D01*
X2588D01*
Y16575D01*
X2556Y16542D01*
X3609Y16371D02*
X3642Y16339D01*
X3707D01*
X3740Y16371D01*
Y16503D01*
X3707Y16535D01*
X3642D01*
X3609Y16503D01*
X3543Y16535D02*
Y16339D01*
X3445D01*
X3412Y16371D01*
Y16437D01*
X3445Y16470D01*
X3543D01*
X3478D02*
X3412Y16535D01*
X3347D02*
X3281D01*
X3314D01*
Y16339D01*
X3347Y16371D01*
X3183D02*
X3150Y16339D01*
X3084D01*
X3051Y16371D01*
Y16503D01*
X3084Y16535D01*
X3150D01*
X3183Y16503D01*
Y16371D01*
X3847Y11653D02*
X3880Y11621D01*
X3945D01*
X3978Y11653D01*
Y11785D01*
X3945Y11817D01*
X3880D01*
X3847Y11785D01*
X3781Y11817D02*
X3716D01*
X3748D01*
Y11621D01*
X3781Y11653D01*
X3617Y11817D02*
X3552D01*
X3584D01*
Y11621D01*
X3617Y11653D01*
X4833Y11663D02*
X4866Y11630D01*
X4932D01*
X4965Y11663D01*
Y11794D01*
X4932Y11827D01*
X4866D01*
X4833Y11794D01*
X4768Y11827D02*
X4702D01*
X4735D01*
Y11630D01*
X4768Y11663D01*
X4473Y11827D02*
X4604D01*
X4473Y11696D01*
Y11663D01*
X4505Y11630D01*
X4571D01*
X4604Y11663D01*
X2300Y11145D02*
X2333Y11112D01*
X2398D01*
X2431Y11145D01*
Y11276D01*
X2398Y11309D01*
X2333D01*
X2300Y11276D01*
X2234Y11309D02*
X2169D01*
X2202D01*
Y11112D01*
X2234Y11145D01*
X2070D02*
X2038Y11112D01*
X1972D01*
X1939Y11145D01*
Y11178D01*
X1972Y11211D01*
X2005D01*
X1972D01*
X1939Y11243D01*
Y11276D01*
X1972Y11309D01*
X2038D01*
X2070Y11276D01*
X4305Y15850D02*
X4272Y15817D01*
Y15751D01*
X4305Y15718D01*
X4436D01*
X4469Y15751D01*
Y15817D01*
X4436Y15850D01*
X4469Y15915D02*
Y15981D01*
Y15948D01*
X4272D01*
X4305Y15915D01*
X4469Y16178D02*
X4272D01*
X4370Y16079D01*
Y16210D01*
X3635Y14701D02*
X3602Y14734D01*
X3537D01*
X3504Y14701D01*
Y14570D01*
X3537Y14537D01*
X3602D01*
X3635Y14570D01*
X3701Y14537D02*
X3766D01*
X3734D01*
Y14734D01*
X3701Y14701D01*
X3996Y14734D02*
X3865D01*
Y14636D01*
X3930Y14669D01*
X3963D01*
X3996Y14636D01*
Y14570D01*
X3963Y14537D01*
X3898D01*
X3865Y14570D01*
X3565Y3917D02*
X3532Y3950D01*
X3466D01*
X3433Y3917D01*
Y3786D01*
X3466Y3753D01*
X3532D01*
X3565Y3786D01*
X3761Y3753D02*
X3630D01*
X3761Y3884D01*
Y3917D01*
X3729Y3950D01*
X3663D01*
X3630Y3917D01*
X3827Y3753D02*
X3893D01*
X3860D01*
Y3950D01*
X3827Y3917D01*
X2963Y13652D02*
Y13455D01*
X3061D01*
X3094Y13488D01*
Y13619D01*
X3061Y13652D01*
X2963D01*
X3159Y13455D02*
X3225D01*
X3192D01*
Y13652D01*
X3159Y13619D01*
X3323D02*
X3356Y13652D01*
X3422D01*
X3455Y13619D01*
Y13488D01*
X3422Y13455D01*
X3356D01*
X3323Y13488D01*
Y13619D01*
X456Y17264D02*
X390D01*
X423D01*
Y17100D01*
X390Y17067D01*
X358D01*
X325Y17100D01*
X522Y17067D02*
X587D01*
X554D01*
Y17264D01*
X522Y17231D01*
X686D02*
X718Y17264D01*
X784D01*
X817Y17231D01*
Y17100D01*
X784Y17067D01*
X718D01*
X686Y17100D01*
Y17231D01*
X1426Y11176D02*
X1360D01*
X1393D01*
Y11012D01*
X1360Y10979D01*
X1328D01*
X1295Y11012D01*
X1623Y10979D02*
X1492D01*
X1623Y11110D01*
Y11143D01*
X1590Y11176D01*
X1524D01*
X1492Y11143D01*
X1688D02*
X1721Y11176D01*
X1787D01*
X1820Y11143D01*
Y11012D01*
X1787Y10979D01*
X1721D01*
X1688Y11012D01*
Y11143D01*
X458Y10999D02*
Y11196D01*
X556D01*
X589Y11163D01*
Y11097D01*
X556Y11064D01*
X458D01*
X655Y10999D02*
X720D01*
X687D01*
Y11196D01*
X655Y11163D01*
X819D02*
X851Y11196D01*
X917D01*
X950Y11163D01*
Y11032D01*
X917Y10999D01*
X851D01*
X819Y11032D01*
Y11163D01*
X2411Y13661D02*
Y13465D01*
X2313D01*
X2280Y13497D01*
Y13563D01*
X2313Y13596D01*
X2411D01*
X2346D02*
X2280Y13661D01*
X2215D02*
X2149D01*
X2182D01*
Y13465D01*
X2215Y13497D01*
X2051Y13661D02*
X1985D01*
X2018D01*
Y13465D01*
X2051Y13497D01*
X5492Y12559D02*
Y12756D01*
X5591D01*
X5623Y12723D01*
Y12657D01*
X5591Y12625D01*
X5492D01*
X5558D02*
X5623Y12559D01*
X5689Y12723D02*
X5722Y12756D01*
X5787D01*
X5820Y12723D01*
Y12690D01*
X5787Y12657D01*
X5755D01*
X5787D01*
X5820Y12625D01*
Y12592D01*
X5787Y12559D01*
X5722D01*
X5689Y12592D01*
X5886Y12723D02*
X5918Y12756D01*
X5984D01*
X6017Y12723D01*
Y12592D01*
X5984Y12559D01*
X5918D01*
X5886Y12592D01*
Y12723D01*
X5522Y12972D02*
Y13169D01*
X5620D01*
X5653Y13136D01*
Y13071D01*
X5620Y13038D01*
X5522D01*
X5587D02*
X5653Y12972D01*
X5718Y13136D02*
X5751Y13169D01*
X5817D01*
X5850Y13136D01*
Y13104D01*
X5817Y13071D01*
X5784D01*
X5817D01*
X5850Y13038D01*
Y13005D01*
X5817Y12972D01*
X5751D01*
X5718Y13005D01*
X5915Y12972D02*
X5981D01*
X5948D01*
Y13169D01*
X5915Y13136D01*
X2880Y4122D02*
X2913Y4154D01*
Y4220D01*
X2880Y4253D01*
X2848D01*
X2815Y4220D01*
Y4154D01*
X2782Y4122D01*
X2749D01*
X2716Y4154D01*
Y4220D01*
X2749Y4253D01*
X2716Y3925D02*
Y4056D01*
X2848Y3925D01*
X2880D01*
X2913Y3958D01*
Y4023D01*
X2880Y4056D01*
Y3859D02*
X2913Y3826D01*
Y3761D01*
X2880Y3728D01*
X2749D01*
X2716Y3761D01*
Y3826D01*
X2749Y3859D01*
X2880D01*
X3848Y15738D02*
X4012D01*
X4045Y15771D01*
Y15837D01*
X4012Y15869D01*
X3848D01*
X4045Y15935D02*
Y16001D01*
Y15968D01*
X3848D01*
X3881Y15935D01*
Y16099D02*
X3848Y16132D01*
Y16197D01*
X3881Y16230D01*
X4012D01*
X4045Y16197D01*
Y16132D01*
X4012Y16099D01*
X3881D01*
X8238Y16919D02*
X8074D01*
X8041Y16886D01*
Y16821D01*
X8074Y16788D01*
X8238D01*
X8041Y16723D02*
Y16657D01*
Y16690D01*
X8238D01*
X8205Y16723D01*
X8041Y16559D02*
Y16493D01*
Y16526D01*
X8238D01*
X8205Y16559D01*
X8228Y4577D02*
Y4741D01*
X8196Y4774D01*
X8130D01*
X8097Y4741D01*
Y4577D01*
X7900Y4774D02*
X8032D01*
X7900Y4642D01*
Y4610D01*
X7933Y4577D01*
X7999D01*
X8032Y4610D01*
X7835D02*
X7802Y4577D01*
X7736D01*
X7704Y4610D01*
Y4741D01*
X7736Y4774D01*
X7802D01*
X7835Y4741D01*
Y4610D01*
X8169Y20354D02*
X8005D01*
X7972Y20322D01*
Y20256D01*
X8005Y20223D01*
X8169D01*
X8136Y20158D02*
X8169Y20125D01*
Y20059D01*
X8136Y20026D01*
X8104D01*
X8071Y20059D01*
Y20092D01*
Y20059D01*
X8038Y20026D01*
X8005D01*
X7972Y20059D01*
Y20125D01*
X8005Y20158D01*
X8136Y19961D02*
X8169Y19928D01*
Y19862D01*
X8136Y19830D01*
X8005D01*
X7972Y19862D01*
Y19928D01*
X8005Y19961D01*
X8136D01*
X489Y20148D02*
X620Y19952D01*
Y20148D02*
X489Y19952D01*
X686Y20116D02*
X719Y20148D01*
X784D01*
X817Y20116D01*
Y20083D01*
X784Y20050D01*
X751D01*
X784D01*
X817Y20017D01*
Y19984D01*
X784Y19952D01*
X719D01*
X686Y19984D01*
X883Y20116D02*
X915Y20148D01*
X981D01*
X1014Y20116D01*
Y19984D01*
X981Y19952D01*
X915D01*
X883Y19984D01*
Y20116D01*
X5033Y5646D02*
X5079Y5600D01*
X5171D01*
X5217Y5646D01*
Y5692D01*
X5171Y5738D01*
X5079D01*
X5033Y5784D01*
Y5830D01*
X5079Y5876D01*
X5171D01*
X5217Y5830D01*
X4941Y5600D02*
Y5876D01*
X4849Y5784D01*
X4757Y5876D01*
Y5600D01*
X4482Y5876D02*
X4666D01*
X4482Y5692D01*
Y5646D01*
X4528Y5600D01*
X4620D01*
X4666Y5646D01*
X4390D02*
X4344Y5600D01*
X4252D01*
X4206Y5646D01*
Y5830D01*
X4252Y5876D01*
X4344D01*
X4390Y5830D01*
Y5646D01*
D63*
X2529Y13030D02*
D03*
M02*
